<svg id="eEsXvMJnN511" xmlns="http://www.w3.org/2000/svg" xmlns:xlink="http://www.w3.org/1999/xlink" viewBox="0 0 344.9 245" shape-rendering="geometricPrecision" text-rendering="geometricPrecision"><style><![CDATA[#eEsXvMJnN514_to {animation: eEsXvMJnN514_to__to 2000ms linear 1 normal forwards}@keyframes eEsXvMJnN514_to__to { 0% {transform: translate(104.729271px,43.935639px)} 20% {transform: translate(104.729271px,43.935639px)} 25% {transform: translate(106.474016px,43.2983px)} 30% {transform: translate(104.729271px,43.935639px)} 100% {transform: translate(104.729271px,43.935639px)}} #eEsXvMJnN514_tr {animation: eEsXvMJnN514_tr__tr 2000ms linear 1 normal forwards}@keyframes eEsXvMJnN514_tr__tr { 0% {transform: rotate(0deg)} 20% {transform: rotate(0deg)} 25% {transform: rotate(2.134095deg)} 30% {transform: rotate(0deg)} 100% {transform: rotate(0deg)}} #eEsXvMJnN5120_to {animation: eEsXvMJnN5120_to__to 2000ms linear 1 normal forwards}@keyframes eEsXvMJnN5120_to__to { 0% {transform: translate(282.249985px,101.83308px)} 20% {transform: translate(282.249985px,101.83308px)} 25% {transform: translate(281.349985px,99.578034px)} 30% {transform: translate(282.249985px,101.83308px)} 100% {transform: translate(282.249985px,101.83308px)}} #eEsXvMJnN5120_tr {animation: eEsXvMJnN5120_tr__tr 2000ms linear 1 normal forwards}@keyframes eEsXvMJnN5120_tr__tr { 0% {transform: rotate(0deg)} 20% {transform: rotate(0deg)} 25% {transform: rotate(-1.952122deg)} 30% {transform: rotate(0deg)} 100% {transform: rotate(0deg)}} #eEsXvMJnN5143_to {animation: eEsXvMJnN5143_to__to 2000ms linear 1 normal forwards}@keyframes eEsXvMJnN5143_to__to { 0% {offset-distance: 0%} 25% {offset-distance: 0%;animation-timing-function: cubic-bezier(0.25,1,0.25,1)} 55% {offset-distance: 100%} 100% {offset-distance: 100%}} #eEsXvMJnN5143_tr {animation: eEsXvMJnN5143_tr__tr 2000ms linear 1 normal forwards}@keyframes eEsXvMJnN5143_tr__tr { 0% {transform: rotate(-47.858927deg)} 25% {transform: rotate(-47.858927deg);animation-timing-function: cubic-bezier(0.25,1,0.25,1)} 55% {transform: rotate(0deg)} 100% {transform: rotate(0deg)}} #eEsXvMJnN5185_to {animation: eEsXvMJnN5185_to__to 2000ms linear 1 normal forwards}@keyframes eEsXvMJnN5185_to__to { 0% {offset-distance: 0%} 25% {offset-distance: 0%;animation-timing-function: cubic-bezier(0.25,1,0.25,1)} 55% {offset-distance: 100%} 100% {offset-distance: 100%}} #eEsXvMJnN5185_tr {animation: eEsXvMJnN5185_tr__tr 2000ms linear 1 normal forwards}@keyframes eEsXvMJnN5185_tr__tr { 0% {transform: rotate(-49.5486deg)} 25% {transform: rotate(-49.5486deg);animation-timing-function: cubic-bezier(0.25,1,0.25,1)} 55% {transform: rotate(0deg)} 100% {transform: rotate(0deg)}}]]></style><defs><linearGradient id="eEsXvMJnN514-fill" x1="88.3322" y1="55.7608" x2="127.3306" y2="22.8512" spreadMethod="pad" gradientUnits="userSpaceOnUse" gradientTransform="translate(0 0)"><stop id="eEsXvMJnN514-fill-0" offset="0%" stop-color="#f19e43"/><stop id="eEsXvMJnN514-fill-1" offset="58.42%" stop-color="#cc632f"/></linearGradient><linearGradient id="eEsXvMJnN5120-fill" x1="277.3725" y1="193.748" x2="283.2817" y2="78.0988" spreadMethod="pad" gradientUnits="userSpaceOnUse" gradientTransform="translate(0 0)"><stop id="eEsXvMJnN5120-fill-0" offset="54.95%" stop-color="#f19e43"/><stop id="eEsXvMJnN5120-fill-1" offset="87.18%" stop-color="#cc632f"/></linearGradient></defs><g><path d="M303.9,80.2c-17.2.4-33.2-.2-47.8-1.3-6.2.5-9.6-1.8-10.9-2.8-2.2-1.7-3.9-3.6-5.7-8.1-1.2-2.9-2.5-5.8-4.1-8.6s-3.4-5.5-5.7-7.8-5-4.2-7.7-6c-10.1-6.5-21.4-11.6-33.3-13.4-4.6-.7-9.3-.9-14-.9-7.8,0-15.5.8-21.9,5.3-4.5-.8-9.5-.8-13.3,1.8-2.4,1.6-3.5,3.4-4.9,5.9C116.2,37.7,100,24.9,89.4,8.5c-.4-.6-1.3-.5-1.8,0-1.2,1.3-1.8,3.1-2.2,4.9-2.4,9.4-2.7,19.2-1.1,28.7.6,2.2,1.7,2.8,3.7,7.6c1,2.5,5.3,6.7,4.9,9.2-.3,1.7,4.1,1.9,7.6.2c1.2-.6,2-1.6,3-2.4c1.1-1,2.3-1.9,3.6-2.4c2.3-1,5.2-1.3,7.4.1c1.8,1.1,2.7,3.2,2.3,5.3-.4,2.2-1.9,3.7-3.7,4.9s-3.9,2.3-5.2,4c-.3.4,8.8,9.8,8.7,10.2c0,6.6,5.1,16.9,7.7,20.8.7,1.5,6.2,11.6,21.2,16.9c8.3,2.9,35.8,10.8,50.4,10.1s40.9-5.5,43.1-4.9c5.6,1.1,12.9,2,21.3,2c3.8,0,11.6-.3,20.8-2.2c12.5-2.6,24.1-8.6,34.2-16.4s19.3-17,26.9-27.2c-11.9,1.1-24.7,2-38.3,2.3Z" fill="#99a82c"/><g id="eEsXvMJnN514_to" transform="translate(104.729271,43.935639)"><g id="eEsXvMJnN514_tr" transform="rotate(0)"><path d="M120.8,71.2c1.5-2.3,3.3-4.5,5.5-6.2-.1-1,.1-2.1.1-3.1-3.8-3.4-7.8-6.6-11.3-10.4-5.9-6.4-10.7-13.8-15-21.4-4-7-7.6-14.3-10.7-21.7-.4-.5-1.2-.4-1.7.1-1.2,1.3-1.8,3.1-2.2,4.9-2.4,9.4-3.5,20.1-1.1,28.7c3.8,13.6,12.8,28.3,32.2,37.7.6-1.8,3.1-6.9,4.2-8.6Z" transform="translate(-104.729271,-43.935639)" fill="url(#eEsXvMJnN514-fill)"/></g></g><path d="M137.3,105.1c-4-2.4-6.9-5.8-8.8-10.1-1.6-3.8-2.6-7.8-4.2-11.6-1.3-3-3.3-6.1-5.8-7.9-.1.2-.4,1.5-.5,1.7c1.2,6.7,3.2,14.1,6.2,20.3s6.4,10.6,10,11.5c4.2,1.1,14.6,1.9,17.6,1.1-4.8-.9-10.5-2.6-14.5-5Z" fill="#858c25"/><path d="M129.3,102.1c-1.6-1.7-7-12.7-8-14.8-1.1-2.4-2.7-5.7-3.3-10.9-.6,3.4.1,9.2,2.2,14.2s5.4,15.2,11.2,18c2.9,1.4,7.9,3.2,14.3,1.9-2.6.1-10.5-2.1-16.4-8.4Z" fill="#73751c"/><path d="M198.3,46.4c-2,.4-7.8,1.5-13,4.6-3.2,1.9-5.4,4.1-5.6,4.3-.8.8-1.6,1.7-2.4,2.7.3-.3.6-.6.9-.8c1.6-1.5,3.3-2.9,5.1-4.1c7.5-5.3,17.3-6.6,26-4c4.3,1.3,8.6,3.6,11.8,6.8c2.2,2.2,3.6,5.1,5,7.8-.5-1.3-1.1-2.5-1.8-3.8-1.4-2.7-3.1-5.3-5.2-7.5-1.9-2-4.2-3.7-6.9-4.8-.9-.4-2.6-1.1-5-1.5-1.3-.2-2.6-.2-5.1-.7-.7-.1-1.3-.2-1.7-.3-.2-.1-.5-.2-.9-.5-.2-.2-.4-.3-.6-.5c0,0-.2-.2-1.1-.9s-1.9-1.2-2.3-1.3c-3.2-1.2-6.6-1.9-10.1-1.7-.9.1-1.8.2-2.7.4-.4.1-.8.3-1.3.3-.6,0-1.1-.4-1.5-.7-.6-.5-1.3-1-2-1.4-2.7-1.7-6.2-2.1-9.4-2.1-1.6,0-3.2.3-4.8.6-1.3.3-2.6,1.2-3.9,1.1-1.5-.1-2.8-1.1-4.2-1.5-.7-.2-1.5-.4-2.2-.6c1.1.6,2.1,1.4,3,2.2c1.9,1.6,3.5,3.4,4.8,5.5c1.4,2.2,2.5,4.6,3,7.2.5,2.2.5,4.5.7,6.7.1-2.6.4-5.2-.2-7.8-.7-3.2-2.1-6.1-3.4-9.1c0-.1,0-.2.1-.2c2.2-1.5,5.4-1.4,7.9-1.2c3.3.3,6.4,1.2,9.1,3.1.1.1.1.2,0,.3-3.5,2.3-6.2,5.5-8,9.3-.7,1.5-1.3,3-1.7,4.6.8-1.7,1.7-3.3,2.7-4.9c2.4-3.7,5.6-6.9,9.8-8.6c0-.1,0-.2.1-.2c3.7-1.4,8.2-.3,8.2-.3c2.6.7,5.5,1.6,8.8,3.5Z" fill="#6b6d12"/><path d="M158,45.7c-3-6.4-11.8-8.6-17.7-4.9-2.8,1.7-4.8,4.6-6.3,7.4-.3.6-.7,1.2-1,1.9c1.4,2.8,3.6,5.1,6.4,6.8-.3-.5-.5-1-.7-1.6-.1-.2.3-.3.3-.1c1.3,3.8,4.7,5.8,8,7.8c2.7,1.7,5.3,3.6,7.8,5.7.8-1.3,1.8-3.1,2.6-5.3c1.2-3.1,1.6-5.6,1.7-6.3.4-3.7.5-7.8-1.1-11.4Z" fill="#6b6d12"/><path d="M155.7,73.7c.5-.7,1.3-1.3,2.1-1.8c1.6-.9,3.4-1.5,5.3-1.3s3.6,1.2,4.5,2.9c.6,1.2.6,2.6.3,3.9-.1.6-.4,1.2-.8,1.7-.3.3-.8.6-1.2.8-2.9,1.2-6.3.3-8.9-1.3-.7-.4-1.8-1.1-2.1-2-.2-1,.3-2.1.8-2.9Z" fill="#bbbf2e"/><path d="M154.7,68.8c.5-3.7.7-7.4.7-11.2c0-4.9-.6-8-3-9.7-3.5-2.6-9.1-.2-9.5,0-1.9.8-3.3,2.1-4.1,2.8-1.5,1.3-2.5,2.6-3.2,3.6-.6,1.8-1.3,4.9-.5,8.5.3,1.5.7,3.4,2.3,5.2c2.5,2.8,6.1,3.1,7.8,3.3c4.6.3,8.1-1.6,9.5-2.5Z" fill="#1b0f00"/><path d="M230.1,73.3c-.3-2.7-1.3-7.8-5.1-12.5-.3-.4-1.7-2.1-4.1-3.9-5.1-3.8-11.4-6.1-17.8-6.2-2.5,0-10.5,0-17.9,5.9-8.1,6.5-9.7,15.5-10,17.6.8.2,1.5.4,2.3.5.9.2,1.9.4,2.8.7.5,1.1,3.9,8.1,12.1,10.5c6.9,2,13.4-1.5,17.2-3.2c2.2-1,3.6-4.1,5.2-5.9c1.2-1.4,2.2-2.2,3.6-3.5.9.4,2.2,1,3.9,1.2c1.4.2,2.5.1,3.1,0c1.2,0,2.8-.3,4.7-1.2Z" fill="#6b6d12"/><path d="M219,73.5c-1-2.7-3.1-7.2-7-10.8-2.1-1.9-3.7-2.6-4.4-2.9-2.3-1-4.3-1-5.8-1.1-1.5,0-3.9.1-6.7,1-2.5.8-4.7,2.3-6.7,3.9-3.9,3.1-7.4,6.7-9.6,11.2c2.2,5.1,7.1,9.7,12.4,11.4s11.1,1.3,16.2-.8c5.5-2.1,9.9-6.2,11.6-11.9Z" fill="#1b0f00"/><path d="M142.3,73.1c-.9-.2-6.1-1.8-8.8-7.1-2.4-4.7-1.3-9.2-1-10.3-1.2,2.1-1.3,4.3-1.3,6.7c0,1.4,0,2.9.3,4.2.2.7,1,3.3,3.6,5.1c3.1,2.2,6.5,1.6,7.2,1.4Z" fill="#818918"/><path d="M222.5,76.8c-1.9,2.3-5.9,6.8-12.6,9.6-9,3.8-17.2,2.2-20,1.5.2.5.7.9,1.1,1.2c6.7,3.3,16,3.2,22.5-.2.8-.4,1.5-.8,2.5-1.6c4.3-3.3,5.9-8,6.5-10.5Z" fill="#818918"/><path d="M155,77c-.1-.4-.2-.8-.2-1.2.1-1.1,1-2,2.1-2.3s2.2-.2,3.3,0c2.4.5,4.7,1.5,6.4,3.2.4.4.8.9.8,1.5c0,.9-.8,1.5-1.6,1.9-2.8,1.4-7.1,1.8-9.4-.7-.7-.6-1.2-1.4-1.4-2.4Z" fill="#818918"/><path d="M216.6,73.5c-1.4,2-4.3,5.9-8.2,8.4-1.5,1-2.6,1.5-3,1.7-2.6,1.1-4.9,1.2-6,1.3-1,0-4.2,0-7.7-1.7-.2-.1-3.6-1.8-5.9-4.8c0,0-1-1.3-1.5-3.3-.3-1-.2-1.4,0-1.8.3-.5,1-.6,1.9-.8.6-.1,1.6-.2,2.7-.1.4.9,1.5,3,3.8,4.3c3.6,2,7.3.5,8.2.2s1.8-.8,2.6-1.4c1.4-1.2,2.4-2.8,2.8-4.6.1-.6.5-3-.8-5.3-1.8-3.1-5.3-3.5-5.7-3.6.5,0,6-.3,9.1,1.7c1.3.8,2.5,2,2.5,2c.1.1,1,.9,1.8,2c1.7,1.9,2.9,4.4,3.4,5.8Z" fill="#49240c"/><path d="M155.4,60.1c-.1.3-.3.6-.6,1.1-1.1,1.7-2.7,2.5-3.5,2.8-.1.1-2.6,1.1-5.3.7-3.7-.6-6.8-3.9-8.1-8.4-1.5,3-2,6.7-.1,9.6c1.4,2.1,3.9,3.4,6.4,3.8s5.1-.1,7.5-1c.9-.3,1.8-.7,2.6-1.3.2-.1.3-.2.4-.3.4-2.3.6-4.6.7-7Z" fill="#49240c"/><path d="M196.4,61.8c-.5.3-.9.9-.9,1.4s.4,1,.9,1.2s1,.3,1.6.3c2.4.3,4.8.6,7,1.6c2,.8,3.8,2.1,5.3,3.7.6.7,1.4,1.5,2.3,1.4.8-.1,1.4-.9,1.5-1.7s-.3-1.6-.7-2.3c-1.6-2.9-4.4-5.1-7.6-6.1-2.7-.9-6.9-1.3-9.4.5Z" fill="#fff"/><path d="M152.8,48.2c-.1-.1-.3-.1-.4-.1-1.4-.3-3-.6-4.5-.2-.5.1-1,.3-1.3.7s-.5.9-.3,1.4c.2.6.9.8,1.5.9c2,.5,4.1,1.3,5.5,2.8c1.2,1.4,1.6,3.3,2,5.1c0-.4,0-.9,0-1.3.2-4.5-.4-7.5-2.5-9.3Z" fill="#fff"/><g id="eEsXvMJnN5120_to" transform="translate(282.249985,101.83308)"><g id="eEsXvMJnN5120_tr" transform="rotate(0)"><path d="M278.4,94.1c-7.4,1.1-37.1,2.9-44.1,1.2-.9,5.6-2.6,11.1-5.5,16-1.4,2.4-3.5,5.1-5.4,7.1c33.6,10.3,65.3,7.6,92.2-12.6c10.2-7.7,17.9-16.2,25.5-26.4-18.5,7.7-46.8,12.2-62.7,14.7Z" transform="translate(-282.249985,-101.83308)" fill="url(#eEsXvMJnN5120-fill)"/></g></g><path d="M315.8,85c-17.3,4.1-35.2,6.2-52.9,6.3-4.5,0-9-.1-13.5-.4-3.2-.2-6.9-.1-9.9-1.4-2.3-1-3.2-3.1-3.5-5.5-.5-3.8-1.3-7.2-3.4-10.3-.2,6.5-1,12.8-3.6,18.8-2.3,5.4-6,10-10.7,13.7-8.8,6.9-20.2,11-31.3,11.3-1,0-3-.1-4-.1.2.8.8,7.9.9,8.2c6.7.7,14.5.5,21.2-.6c3.3-.5,6.5-1.4,9.7-2.3c6.9-2.3,9.6-4,14-11.3c2.9-4.9,4.5-10.5,5.4-16.1c0-.1.1-.1.2-.1c4.1,1.1,8.4,1.2,12.6,1.2c4.1,0,8.2-.1,12.3-.3c15-.8,29.7-3.6,44.3-7.1c7-1.7,14-3.4,20.9-5.2c5.2-1.4,10.4-3.1,15.2-5.4-.9.1-1.7.2-2.6.2-7,2.5-14.1,4.7-21.3,6.4Z" opacity="0.51" fill="#858c25"/><path d="M158.4,104.9c-2.1.4-4.4.4-6.4-.4-2.4-.9-4.2-2.8-5.5-4.9.1,3.7,2.3,6.4,5.7,7.9c5.5,2.5,13.4,2.8,18.3-1.3c1.1-.9,2-2.2,2.1-3.6.1-1.9-1.2-3.4-2.5-4.6-1.5-1.4-3-2.8-4.7-4.1-1.2-.9-2.4-1.7-3.8-2.2c2,1.6,4.1,3.1,4.5,5.8.6,4.4-3.9,6.7-7.7,7.4Z" opacity="0.51" fill="#858c25"/><path d="M115.9,36.9c3,2.1,6.1,4.2,9.3,6c2.9,1.7,6.1,2.7,9.3,3.7.2-.2.3-.5.5-.7-.1-.5-.3-1-.4-1.5-13.4-4.8-25.5-12.9-35.2-23.2.1.2.3.4.4.6c4.5,5.8,10,10.8,16.1,15.1Z" fill="#bbbf2e"/><path d="M159.9,33.8c1.9.2,3.5.1,5.4-.4c1.6-.4,3.2-.6,4.9-.7c3.3-.1,6.3.9,9.3,2c1.3.5,2.6.8,4,1c1.5.1,3-.1,4.6-.2c2.6-.1,5.1.3,7.4,1.4c1.4.7,2.6,1.5,3.9,2.4s2.8,1.5,4.3,1.9c2.9.8,6,1,8.9,2.1c5.4,2,10.3,5.1,14.4,9.1c4.4,4.3,7.3,10,9.8,15.6c1.1,2.4,2.1,4.9,3.8,7c.8,1,1.8,1.9,2.9,2.6c1.3.8,2.9,1.2,4.4,1.5c3.5.8,7,1,10.5,1.3c3.6.2,7.2.6,10.8.9c7.3.4,14.6.3,21.9-.1c4.2-.2,8.5-.6,12.7-1.1-17.1.4-33.1-.2-47.6-1.3-6.2.5-9.6-1.8-10.9-2.8-2.2-1.7-3.9-3.6-5.7-8.1-1.2-2.9-2.5-5.8-4.1-8.6s-3.4-5.5-5.7-7.8-5-4.2-7.7-6C212,39,200.7,33.9,188.8,32.1c-4.6-.7-9.3-.9-14-.9-5.5,0-10.9.4-15.8,2.2.3.3.6.3.9.4Z" fill="#bbbf2e"/><path d="M153.6,89.5c1.3.2,5.6.9,9.7,3.5c1.2.8,2.5,1.8,2.7,2c1.1.9,2,1.7,2.6,2.3-.3-.7-.7-1.7-1.5-2.7-.7-.9-1.3-1.5-1.6-1.7-1.1-1-2.4-1.6-3.7-2.2-1.7-.8-2.7-1.3-4.2-1.7-.4-.1-2.2-.6-4.6-.6-1.5,0-2.6,0-4,.4s-2.4,1.1-3,1.7c.3-.2.8-.4,1.4-.6.7-.2,1.3-.3,2.1-.4c2.1-.2,4,0,4.1,0Z" fill="#bbbf2e"/><path d="M169.2,96.3c-1.4-2.5-3.7-4.4-6.2-5.8s-5.3-2-8.2-2.4c-3-.3-6.2-.2-8.8,1.4-.1.1-.3,0-.5,0-.4,0-.7.6-.4.9s.8.3,1.1,0c.2-.2.3-.4.4-.5.3-.4.8-.5,1.3-.6c3.6-.8,7.3-.6,10.8.5s6.6,3.2,9.1,5.9c.2.2.3.4.4.7c0,.3-.1.5-.1.8c0,.6.9.8,1.3.4.4-.5.1-.9-.2-1.3Z" fill="#6b6d12"/><path d="M178.6,43.2c-.6-.4-4.6-2.7-8.4-3.1-2-.2-3.9,0-3.9,0-.6.1-1.1.2-2.2.5-1.3.3-1.5.5-1.7.7-.2.3.4,1.4.7,2.1c3.9-2.5,10.4-2.3,13.4,1.3.1.1,0,.2,0,.2.7-.7,1.4-1.2,2.1-1.7Z" fill="#bbbf2e"/><path d="M190.2,43.6c-2.6-.5-5.5-.7-8,.2c0,.1,0,.1-.1.2-.6.2-1.1.4-1.6.7c3.8-.3,7.4.8,10.1,3.5c2.4-.9,4.9-1.5,7.3-2-2.2-1.5-5-2.2-7.7-2.6Z" fill="#bbbf2e"/><path d="M182.7,53.8c2.9-1.4,5.7-2.8,8.9-3.6c3.4-.8,6.7-.7,10.1-.3c3.2.5,6.5,1.1,9.5,2.2s5.7,2.6,8.2,4.6c2,1.6,3.8,3.4,5.5,5.3-1.4-2.5-2.8-5-4.9-6.9-6.7-6.1-16.5-8.4-25.3-6.7-4.4.9-8.3,2.7-12,5.4.1,0,.1,0,0,0Z" fill="#bbbf2e"/><path d="M157.9,76.9c-.2-.4-.4-.8-.8-1s-.9-.1-1.1.3c-.1.2,0,.5.3.9.3.5,1,1.3,2.2,2.1.1,0,.3.2.5.3v0c.1-.1-.1-.5-.3-.8-.3-.9-.6-1.3-.8-1.8Z" fill="#393a0a"/><path d="M163.6,78.1c.5-.1,1-.2,1.5,0c.1.1.3.1.3.3.1.2,0,.4-.1.5s-.3.2-.5.3c-.6.2-1.2.3-1.8.4-.4.1-1.6.3-1.9,0-.9-.5,2.1-1.4,2.5-1.5Z" fill="#393a0a"/><path d="M126.5,78.7c1.4,3.2,3.6,6,4.8,9.3.6,1.8,1,3.8,2.3,5.3c1.3,1.4,4,1.8,4.9.1.3-.5.3-1,.4-1.6.3-2.2.8-4.5,2.6-5.9.9-.7,2-1,2.6-1.9c1.1-1.6,0-4-1.7-5s-3.8-1.3-5.6-2c-2.1-.9-3.9-2.5-5-4.5-.5-1-.9-2.1-1.7-3-2.1-2.5-3.7-.2-4.3,1.9-.8,2.3-.3,5,.7,7.3Z" opacity="0.4" fill="#bbbf2e"/><path d="M219.9,87.2c1.1-1.1,2.7-2.3,3.9-1.4c1,.7.8,2.1.5,3.2-1.8,6.7-6.8,12.1-12.7,15.7-5,3.1-11,5-16.8,4.2s-11.4-4.6-13.2-10.2c-.2-.7-.4-1.5-.2-2.3.7-2.6,4.4-.8,6-.4c2.7.7,5.5.9,8.3.9c5.7-.1,11.3-1.5,16.3-4.1c3-1.5,5.6-3.4,7.9-5.6Z" opacity="0.4" fill="#bbbf2e"/><path d="M215.2,93.6c1.1.9.3,2.7-.6,3.8-2.9,3.6-6.8,6.7-11.3,7.9s-9.7.4-13.2-2.8c-1.9-1.8-.9-3.2,1.2-3.3c2.7-.2,5.4-.1,8.1-.5c2.8-.4,5.5-1.1,8.2-1.9.9-.3,7.4-3.4,7.6-3.2Z" fill="#bbbf2e"/><path d="M127.2,74.1c0,.8.4,1.5.8,2.3.6,1.1,1.3,2.3,2,3.3.6.9,1.3,1.8,1.8,2.8.5,1.1.9,2.3,1.3,3.5.4.9,1.1,1.9,2,1.7.8-.2,1.1-1.1,1.2-1.9s.1-1.7.7-2.2c.7-.7,2-.6,2.3-1.5.2-.5-.1-1.1-.5-1.4s-.9-.5-1.4-.7c-1.4-.4-2.7-.8-4-1.5s-2.4-1.7-2.9-3c-.3-.7-.4-1.4-.7-2.1-.8-1.7-2.7-1.3-2.6.7Z" fill="#bbbf2e"/><path d="M209.8,77.3c-.9-.8-2.4-.4-3.4-.2-1.3.3-2.6.8-3.8,1.4-2.1.9-4.3,1.8-6.6,1.6-1.2-.1-2.4-.4-3.4-1-.9-.6-1.7-1.4-2.5-2.2-.9-.8-2.2-1.9-3.4-1.2-.6.3-1.3,1.2-1.3,2c.2.4.4.6.4.6c2.3,3,5.7,4.8,5.9,4.8c3.5,1.7,6.7,1.7,7.7,1.7c1.1,0,3.4-.2,6-1.3.4-.2,1.6-.7,3-1.7.7-.5,1.4-1,2-1.5.4-1,.4-2.3-.6-3Z" fill="#683c1e"/><path d="M150.2,68c.3-.4.7-1.1,0-1.4-.8-.3-2-.1-2.8-.1-1.7.1-3.5.4-5.1-.3-3.6-1.5-4.6-5.4-4.7-9-1.2,2.8-1.4,6.1.3,8.6c1.4,2.1,3.9,3.4,6.4,3.8c1.5.2,3,.1,4.5-.1.5-.5,1-1,1.4-1.5Z" fill="#683c1e"/><path d="M195.5,83c-.2.2-.3.5-.4.7-.2.6.2,1.3.8,1.7.5.4,1.2.5,1.9.6.9.1,1.9,0,2.7-.4s1.3-1.4,1.1-2.3c-1-2.9-4.6-2.2-6.1-.3Z" opacity="0.72" fill="#fff"/><path d="M137.8,64c-.2.1-.3.3-.5.5-.3.5-.5,1.1-.4,1.6.1.4.4.7.7.9.4.3.9.5,1.4.3.6-.2,1.2-.8,1.5-1.6.8-2.7-1.2-3-2.7-1.7Z" opacity="0.72" fill="#fff"/><path d="M227.2,110.2c-5.9,6.5-14.3,10-22.6,11.8-2.3.5-4.8.8-7.2.9-2.3.1-4.6.2-7,0-2.6-.3-4.6-1.5-6.6-3c.1,1.2.2,5.1.2,5.9c6.8.7,14.4.5,21.1-.6c7.6-1.2,16.7-4,20.4-9.3c1.6-2.3,4.4-7.5,5.6-11.3-1.2,2.3-2.5,4.1-3.9,5.6Z" fill="#73751c"/></g><g transform="translate(0 0.000001)"><path d="M245.9,198.3c1-1.8,3-2.9,4.6-4c2.6-1.7,5-3.9,7.1-6.1c1.2-1.2,2.3-2.5,3.2-3.9.9-1.3,1.7-2.7,2.5-4.1c1.3-2.1,2.4-4.3,3.3-6.6.2-1.7.2-3.5.1-5.3c0-.8-.1-1.6-.5-2.3-.9-1.7-3.2-2-5.1-2s-4.1.2-5.5-1.1c-2.9-2.5-.6-8.2-3.6-10.6-1.3-1-3.1-1-4.8-.8-2.5.3-4.4.2-6.9.8-1.8-2.7-3.5-5.9-3.1-9.1.7-5.2,6.6-8.9,6.5-14.2c0-.7-.1-1.4-.5-2-.3-.5-.6-.9-1-1.3-.7-.7-1.3-1.4-2.2-2.1s-1.7-1.2-2.5-1.6c-2.1-.8-3.9-1.4-5.2-1.7-1.7-.5-3.1-.8-4.3-1-1.5-.3-3.1-.8-4.6-.9-2.1,1.7-4.5,2.9-7.1,3.8-10.2,3.5-21.1,4.4-31.9,3.3-.1.1-.3.2-.3,0-.1-.4-.1-.8-.1-1.1v0c-.2-1.5-.2-3-.3-4.5-.2-2.1-.8-4.1-2.1-5.8-2.8-3.5-7.4-3.9-11.6-4.1-9.1-.5-18.1.2-27.2-.3-3.6-.2-7.4-.4-10.7-2.1-2.7-1.3-4.9-3.7-6.6-6-.8-1.1-1.6-2.4-2.1-3.7-.6-1.6-.5-3.4-.4-5c.1-4.2-1.1-8.3-3-12-1.4-2.9-12.355363,13.9-14.455363,16.6-2.1,2.599998-3.98873,4.9-6.38873,7.2-1.383608,1.310787-28.520847,12.440657-34.222316,22.71833-2.12791,3.835847,9.473279,12.566314,10.995277,13.38167C79.828867,142.8,80.7,144.1,82.7,144c2.4-.1,4.4-.5,5.8-.8c5.4,2.9,9.2,8.5,10.7,14.5c1.7,6.7.3,13.8-2.1,20.2-2.3,6.5-5.5,12.6-7.4,19.3-2.6,8.8-2.7,18.3-.5,27.3.4,1.5,1.1,2.7,1.1,2.7.8,1.6,2.6,3.3,3,3.6c5.3,4.4,33.5,9.9,33.5,9.9c3,.6,6.8,1.3,12.1,2c2.1.3,5.4.9,9.7.9c7.5,0,14.9.1,22.4.1c24.7.1,49.8.2,73.4-6.9c4.2-1.3,4.4-7.3,4.7-11.6.8-8.9-.7-18-4.4-26.1.7-.1,1-.5,1.2-.8Z" fill="#694a37"/><g id="eEsXvMJnN5143_to" style="offset-path:path('M83.925116,160.009891C81.992388,144.400001,85.580365,122.500001,92.762784,107.138268');offset-rotate:0deg"><g id="eEsXvMJnN5143_tr" transform="rotate(-47.858927)"><g transform="translate(-92.762783,-107.138267)"><path d="M82.955098,82.68217l-1.140067,1.03162c-4.3,7.5-8.123969,14.531055-10.523969,22.931055-1.1,3.9-1.428711,8.122681-.628711,12.122681.8,3.6,2.938197,8.333138,6.738197,9.533138c3.2,1,7.734905-.137153,10.634905-1.437153c3.2-1.5,6.437209-4.052208,9.137209-6.352208c3.6-3.2,6.931998-6.814687,9.431998-10.914687s4.109919-9.108957,5.409919-13.708957c1.3-4.4,1.53044-9.037908.63044-13.637908C112.345019,80.649751,111.7,79,110.9,77.5c0,.1.1.3.1.4.2,1.7-.4,3.3-1,4.8-1.3,3.2-3.4,5.9-5.5,8.6-2.1,2.6-4.1,5.3-6.5,7.6-1.9,1.8-4.4,3.7-7.1,4.2-3.2.6-4.7-2.4-5.4-5.1-.9-3.7-.9-7.6-.9-11.3c0-.7,0-1.4,0-2.2c0-.2,0-.8,0-.8s-.5-.1-.6-.1c-.1-.1-.844902-.81783-1.044902-.91783Z" fill="#110b08"/><path d="M112.835618,81.952733c-.3-1.6-1.635618-4.252735-2.435618-5.752735c0,.1-.302329,2-.302329,2.1.2,1.7.099452,2.725772-.500548,4.225772C108.297123,85.72577,106.8,88.5,104.7,91.2c-2.1,2.6-4.1,5.3-6.5,7.6-1.9,1.8-4.4,3.7-7.1,4.2-3.2.6-4.7-2.4-5.4-5.1-.9-3.7-.9-7.6-.9-11.3c0-.1,0-.2,0-.3-.7,1-1.324769,1.556687-2.024769,2.656687C80.675231,92.456687,78.7,97.2,78.8,101.4c0,2,.7,4,1.9,5.7c1.3,1.8,3.2,2.6,5.2,3.3.1,0,.1.1.1.2-.2,3,.6,5.7,2.1,8.3c1,1.8,2.180524,3.744178,3.280524,5.444178c1.8-1.1,3.711553-2.310393,5.211553-3.710393c3.6-3.2,6.700847-7.030889,9.200847-11.130889s4.859494-8.463785,6.159494-13.063785c1.2-4.6,1.7832-9.886378.8832-14.486378Z" fill="#3f2a1e"/><path d="M82.3,105.3c-1-2-1.4-4.3-1.4-6.5c0-3.3.7-6.7,2-9.8-.1.1-.2.3-.3.4-2.1,3.5-4,7.7-3.9,11.9c0,1.2.3,2.3.7,3.4c1.4,1.7,3.1,3.1,5.3,3.7.2.1.4.1.6.2-1.2-.8-2.3-1.9-3-3.3Z" fill="#9b664e"/><path d="M85.9,110.5c0,.6,0,1.2,0,1.8c2.7.1,5.4-.5,7.8-1.3c5.9-2.1,10.8-6.6,14.4-11.6c2.1-2.9,4.166391-6.922215,5.066391-10.422215.3-2.5.478747-4.857264-.021253-7.257264-.3-1.6-1.945138-3.894751-2.745138-5.394751c0,.1-.2,1.558787-.2,1.658787.2,1.700001-.002877,2.815443-.602877,4.315443-.5,1.1-1.699452,3.4-2.299452,4.4-.3,3.4.202329,5.9-1.397671,9-1.5,2.9-3.7,5.7-6,8s-5.1,4.2-8.2,5c-2.7.7-5.6.7-8.2-.4-1.3-.6-2.5-1.4-3.5-2.5.2.4.4.8.7,1.1c1.3,1.8,3.2,2.6,5.2,3.3-.1.2,0,.3,0,.3Z" opacity="0.63" fill="#261912"/><path d="M87.8,112.7c-.6,0-1.3,0-1.9,0c.2,2.1.9,4.2,2,6.1c1,1.8,2.2,3.5,3.3,5.2.1-.1.2-.1.3-.2-2-3.4-3.6-7.2-3.7-11.1Z" fill="#9b664e"/><path d="M68.2,139.6c3.2,1.4,6.7,1.9,10.3,2.2c3.9.2,7.7,0,11.3-1.6c3.3-1.5,6.3-3.7,9-6.2c5.4-5,10.1-11.4,12.8-18.3c1.4-3.5,2.3-7.2,3.5-10.8c1.1-3.7,2.2-7.3,2.8-11c1-6.3,1.2-12-.7-18.1-.6-.7-1.8-2.1-2.6-2.7-2.2-1.7-4.8-2.5-7.5-2.7-.1.4-.1.9,0,1.4s.3.9.5,1.2c.6.3.697671,1.099998,1.097671,1.499998c2.6,2.5,3.302329,6.325772,3.602329,9.825772.2,2.4.199999,4.867746-.200001,7.167746-.4,2.6-.999999,4.906484-1.899999,7.406484-3.3,8.9-8.3,17.6-16,23.4-2.8,2.1-5.8,3.9-9.2,5-3,1-6.5,1.3-9.3-.5-3.1-2.1-4.5-6.1-4.9-9.6-.5-4.2.3-8.4,1.6-12.3c2.5-7.8,6.9-15.5,10.9-22.6-.8-.6-1.6-1.8-1.6-1.8-5.9,6.5-11,13.9-14.3,22.1s-4.8,17.2-3.7,25.9c.3,2.9,1.5,7.7,4.5,11.1Z" fill="#694a37"/><path d="M122.1,85.9c-.5-1.7-1.2-3.4-1.9-5-.8-1.8-1.8-3.5-3-5.1c1.9,6.7,1.9,13.8.5,20.7-.8,4-2.1,7.8-3.3,11.6-1.1,3.7-2.2,7.5-4,11-3.3,6.7-8.3,13-14.3,17.6-2.7,2.1-5.8,4-9.2,4.9-3.9,1-8.1.7-12,.2-2.2-.3-4.2-.8-6.2-1.6.9.9,1.8,1.6,3,2.2c3.9,2,9.3,1.7,11.3,1.6.1,0,.3,0,.4,0c1.1-.2,2.2-.3,3.3-.4.8-.1,1.5-.3,2.1-.4.1.1.2.1.3.2c1.4-.1,2.7-.2,4.1-.4c3.1-.4,6.5-.7,9.5-2c4-1.8,7-5.3,9.3-8.9c2.5-3.8,4.4-8,6-12.3c1.8-5,3-10.2,3.7-15.5.4-3.2.7-6.4.7-9.7-.1-2.9-.3-5.8-.3-8.7Z" fill="#54392a"/><path d="M117.2,75.8c-.6-.7-1.9-2.1-2.7-2.7-2.2-1.7-5.2-2.7-7.9-2.9-.1.4-.302329.999998-.302329,1.499998s-.2,1.825773,0,2.125773c.6.300001.902329,1.174227,1.302329,1.574227c2.6,2.5,4.745019,5.1,5.045019,8.6.1.8.654981,1.900002.554981,2.700002.2-.1.5-.1.7,0c1.8.3,1.9,3.1,1.8,4.4-.1,2.7-.6,5.5-1.1,8.2-1.6,8.2-1.5,6.7-2.3,8.8-.6,1.9-2.4,6.7-5.8,12.3-2.3,3.8-4.3,7-8.1,10.4-2.2,2-5.9,5-11.3,6.6-3.8,1.1-7.9.9-11.6-.6-5.8-2.4-9.3-7.8-11.1-13.6-.5-1.4-.8-2.9-1.1-4.4-.3,3.3-.2,6.5.2,9.8.4,2.9,2.442449,8.284163,5.442449,11.684163c3.2,1.4,6.378218,1.860914,9.978218,2.160914c3.9.2,7.686855.060886,11.286855-1.539114c3.3-1.5,6.347111-4.097992,9.047111-6.597992c5.4-5,11.004281-11.432034,13.704281-18.332034c1.4-3.5,1.839942-7.162776,3.039942-10.762776c1.1-3.7,2.063281-7.784825,2.663281-11.484825C119.762137,87.328336,119.1,81.8,117.2,75.8Z" opacity="0.53" fill="#54392a"/><path d="M94.2,122.4c-.4.3-.8.6-1.2.9-.9.8-2.1,1.7-3.5,2.6-.5.3-1.7,1-3.4,1.8-2.1.9-3.4,1.5-5.2,1.7-1.2.1-2.7.3-4.4-.1-.6-.1-1.6-.4-2.9-.2-1,.2-1.3.6-1.4.8-.1.3-.2.6,0,1c.6,1.9,2.7,3.1,4.5,3.6c3.9,1.2,8.1.3,11.8-1.1c7-2.6,12.8-8,17-14.1c4.1-6,6.5-12.6,7.9-19.7.7-3.5,1.2-7.1,1.1-10.6-.1-2.2-.4-4.4-1.2-6.4.1.5.2,1,.2,1.5.2,2.4-.1,4.9-.5,7.2-.4,2.6-1.1,5.2-2,7.7-3.5,9-9.2,17.6-16.8,23.4Z" opacity="0.64" fill="#89653e"/><path d="M81.7,121.9c-2.2-2.6-3.9-5.5-4.6-8.8-.7-3.4-.6-6.9-.6-10.4.1-3.2.5-6.4,1.2-9.4-2.3,4.3-4.4,8.6-5.7,13.3-1.1,3.9-1.6,8.1-.8,12.1.8,3.6,2.6,7.5,6.4,8.7c2.9.9,6.1.1,8.9-1-1.7-1.3-3.3-2.8-4.8-4.5Z" fill="#261912"/></g></g></g><path d="M184.5,126.9v0c0,.2,0,.3,0,.4v0c0,.3.1.6.2.8.1.1.6.2.8.2c1.1.2,2.3.2,3.4.2c2.4,0,4.8.1,7.2.1c4.4,0,8.9.2,13.3.1c4.3,0,8.7,0,13-.4c2.2-.2,4.4-.6,6.5-1.3.8-.3,1.9-.6,2.2-1.4.5-1-.4-1.9-1.2-2.4-1.4-.9-3.2-1.3-4.7-1.8-1.4-.5-2.9-.9-4.3-1.1-1.4.8-2.9,1.5-4.5,2.1-10.2,3.5-21.1,4.4-31.9,3.3c0,.1-.1.1-.1.1.1.3.1.7.1,1.1Z" fill="#261912"/><path d="M121,131.6c1.1,2,2.5,3.9,4,5.7c1.6,1.8,3.5,3.4,5.5,4.9c3.4,2.6,6.7,5.3,9.8,8.2c1.7,1.5,3.3,3.1,4.9,4.6c1.5,1.5,3,3,4.7,4.4c1.8,1.5,3.8,2.6,6.2,2c2.1-.5,3.7-1.9,5.3-3.3c2.7-2.5,4.7-5.8,6.2-9.1c1.5-3.4,2.6-6.9,3.5-10.5.9-3.4,1.3-7,2.5-10.4.5-1.5,1.2-3,2.2-4.2.7-.9,1.8-2,2.9-1.1s1.5,2.5,2.6,3.5c.6.6,1.4.9,2.3,1c.2,0,.4.1.6.1v-.1v0c0-2.8-.1-6.3-.4-8.4-.3-1.7-.9-3.3-2-4.7-1.3-2.2-3.8-2-5.4-1.1-1.8,1-2.9,2.8-3.6,4.8-.5,1.5-.8,3.1-1.2,4.6-.5,2-1,3.9-1.6,5.9-1.2,4.1-2.6,8.1-4.3,12.1-1.4,3.3-2.9,6.7-4.8,9.8-1.5,2.4-3.4,4.9-5.9,6.3.1.1.1.2,0,.3-.8.5-1.9-.1-2.6-.5-1.4-.8-2.7-1.8-3.9-2.8-1-.8-2-1.7-3-2.6-1.5-1.3-3.1-2.4-4.6-3.5-3.7-2.7-7.5-5.5-10.9-8.5-3.4-3.1-6.3-6.5-8.4-10.6-1.4-2.8-2.5-5.7-3.3-8.6-.3.8-.6,1.6-.9,2.4-.1.2-.1.3-.2.5c1,2.8,2.2,6,3.8,8.9Z" fill="#4c362a"/><path d="M132.8,140.6c.3-.2.5-.6.6-1c.4-1.8-1-4.1-1.8-5.6-.9-1.7-1.9-3.4-2.4-5.3-.3-.9-.5-1.9-.4-2.8s.5-1.8.7-2.7c.3-1.4-.1-2.4-.7-3.6-.5-.9-1.1-1.7-1.5-2.6-.9-1.8-1.1-3.9-1.3-5.8-.2-3.2.1-6.4-.1-9.6c0,0,0,0-.1-.1-.8-1.1-1.6-2.4-2.1-3.7-.6-1.6-.5-3.4-.4-5c0-2-.7-5-1.2-6.9c0,3,.4,7.2.4,10.2-.1,3.6-.2,7.2-.8,10.7-.6,4.1-1.7,8.1-3,11.9c1,3.5,2.3,7,4.1,10.2c2.4,4.8,6,8.5,10,11.7Z" opacity="0.63" fill="#54392a"/><path d="M170.2,110c-9.1-.5-18.1.2-27.2-.3-2.9-.2-6-.4-8.9-1.3c2.1,1.3,4.3,2.3,6.6,3.1c2.4.8,4.8,1.4,7.2,1.7c2,.3,4,.4,6,.4c3.8.2,8.1.3,11.5,2.2c3.7,2,4.7,6,4.8,10c.2-.9.5-1.7.7-2.6.8-3,1.1-6.4,3.2-8.9c1.1-1.3,2.6-2.2,4.3-2.2.5,0,1,.1,1.5.3-2.6-1.9-6.3-2.2-9.7-2.4Z" fill="#89653e"/><path d="M128.1,140.2c.8.4,1.6.7,2.4.9.7.2,1.5.1,2-.3-.8-.7-1.7-1.4-2.5-2.1-3.4-3.1-6.3-6.5-8.4-10.6-1.4-2.8-2.5-5.7-3.3-8.6-.3.8-.6,1.6-.9,2.4-.1.2-.1.3-.2.5.9,3.2,2.1,6.3,3.8,9.2c1.1,2,2.5,3.9,4,5.7c1,1,2,2,3.1,2.9Z" fill="#4c362a"/><path d="M90,197.2c-.9,3.1-1.5,6.2-1.8,9.4.6-1.6,1.3-3.2,2.1-4.7c2.5-4.9,5.8-9.4,8.3-14.3c2.7-5.3,4.6-11,4.7-17c.1-5.5-1.2-11.1-4.1-15.9-.7-1.2-1.6-2.5-2.6-3.7c1.3,2.1,2.3,4.4,2.9,6.8c1.7,6.7.3,13.8-2.1,20.2-2.3,6.4-5.5,12.6-7.4,19.2Z" fill="#89653e"/><path d="M237.1,171.1c-2.4,2.2-3.5,3.3-4,3.7-1.6,1.3-3.1,2.4-4.3,3.2c1.9-.7,3.7-2,5.4-3.1c2.4-1.6,4.8-3.4,6.9-5.4c2-1.8,4-3.8,5.5-6.2c1-1.6,2-3.8.9-5.6-1.6-2.7-5.2-2.3-8-2.9-.2.3-.3.5-.5.8-.8,1-1.7,1.7-2.8,2.3c1.3,1.5,2.8,2.9,3.9,4.6.8,1.4,1.1,2.8.4,4.3-.7,1.6-1.9,2.8-3.4,4.3Z" fill="#4f3425"/><path d="M145,155.2c-2.5-2.4-4.9-4.7-7.5-7-1.4-1.2-2.8-2.4-4.3-3.6c1.5,2.5,2.9,4.9,4.3,7.4c1.7,2.8,3.5,5.7,5.5,8.3c2.1,2.6,4.5,4.8,7.1,6.9c5.6,4.5,11.7,9,18.7,11.1c3.5,1,7.1,1.4,10.7.8c2.7-.5,5.4-1.3,8-2c2.8-.8,5.7-1.7,8.3-3c2.4-1.1,4.8-2.6,6.3-4.8-2.7-.9-5.5-.9-8.3-.9-2.9,0-5.7-.2-8.5-.3s-5.7-.3-8.5-.6c-2.4-.3-4.8-.8-7.1-1.2-4.6-.8-9.3-1.7-13.7-3.4-.8-.3-1.6-.7-2.4-1.1-.5-.1-.9-.3-1.4-.5-1.6-.8-3-2-4.3-3.3-1-.9-2-1.8-2.9-2.8Z" fill="#694a37"/><path d="M245.5,201.8c-.2,7.1,2.3,14.6-.2,21.5-2,5.8-7.2,9.3-12.8,11.4-3,1.1-6.1,1.9-9.2,2.6-3.9.9-7.9,1.7-11.8,2.3-4.7.8-9.5,1.3-14.3.9-4.6-.4-9.1-1.5-13.6-2.6-9.2-2.2-18.5-4.3-27.9-2.3-4.6,1-9.2,2.1-13.8,2.8s-9.2.8-13.8.2c-4.8-.7-9.5-1.8-14.1-3-4-1-8-1.9-11.5-4-5.9-3.3-8.9-9-10.7-15.2c0,.2-.1.4-.1.6-.4,4.4,0,9.1,1.4,13.3.3.2.5.4.6.5c5.3,4.4,33.5,9.9,33.5,9.9c3,.6,6.8,1.3,12.1,2c2.1.3,5.4.9,9.7.9c7.5,0,14.9.1,22.4.1c24.7.1,49.8.2,73.4-6.9c4.2-1.3,4.4-7.3,4.7-11.6.8-8.5-.6-17.1-3.9-25-.1.6-.1,1-.1,1.6Z" opacity="0.63" fill="#4f3425"/><path d="M266.9,168.4c0-.8-.1-1.6-.5-2.3-.7-1.3-2.3-1.8-3.9-2c.3.6.6,1.2.8,1.8c2.2,6.9-2.4,13.3-6.9,18.1-2.4,2.5-5,4.9-7.3,7.5-1.8,2-2.8,4.3-3.3,6.8c0,0,0-.1.1-.1c1-1.8,3-2.9,4.6-4c2.6-1.7,5-3.9,7.1-6.1c1.2-1.2,2.3-2.5,3.2-3.9.9-1.3,1.7-2.7,2.5-4.1c1.3-2.1,2.4-4.3,3.3-6.6.3-1.6.3-3.4.3-5.1Z" opacity="0.63" fill="#4f3425"/><path d="M197.5,210.7c-10.9-.8-30.1-7.4-45.2-19.8-2.6-2.1-4.2-3.7-7.2-6.6-5.4-5.3-12.6-12.5-19.1-23.1-1.3-2.2-3.1-5.3-4.9-9.1.2,1.8.7,4.7,1.7,8.1c1.4,5,2.7,6.8,5.9,15.2c2.5,6.7,2.7,8.1,2.5,9.7-.4,2.5-2,4.8-1.5,7.3.5,2.6,3,4.1,5.3,5.4c7.6,4.3,15.2,8.5,23.4,11.6c6.5,2.5,13.4,4.2,20.3,5.1c8,1,13.6-.3,18.2-1.1c1.5-.3,5.8-1,5.7-1.7-.1-.6-3.9-.9-5.1-1Z" opacity="0.63" fill="#4f3425"/><path d="M170.4,150.7c1.6-3.1,2.7-6.3,3.4-9.8.7-3.3,1.1-6.9,2.4-10.1.8-1.9,2.1-3.3,4.2-3.6.5-.1,1-.1,1.5-.1-.2-.1-.4-.2-.6-.4-.5-.4-.9-.9-1.2-1.5-.5-.8-1-2-1.9-2.4-1.1-.5-2.2,1.2-2.8,2-.6.9-1.1,1.9-1.5,3-.7,2-1.1,4-1.5,6-1.4,7-3.3,14.4-7.4,20.4-.2.3-.4.5-.6.8.8.5,1.6.9,2.5,1.2c1.4-1.7,2.5-3.6,3.5-5.5Z" fill="#382721"/><path d="M237.4,143.3c.7-5.2,6.6-8.9,6.5-14.2c0-.7-.1-1.4-.5-2-.3-.5-.6-.9-1-1.3-.2-.2-.7-.5-.8-.7.3,1.7.4,3.6-.2,5.4-1.3,4.1-4.6,7.1-6.3,11-1.1,2.4-1,4.9.4,7.2.9,1.4,1.9,2.5,1.8,4.3-.1,2.2-1.6,4-3.3,5.4c1.9-.5,3.6-1.5,4.8-3.1.7-1,1.2-2.1,1.4-3.3-1.6-2.7-3.2-5.6-2.8-8.7Z" fill="#89653e"/><path d="M237.4,128.9c-1.1.9-2.3,1.4-3.6,1.9-1.7.7-3.4,1.2-5.1,1.7-3.3.9-6.8,1.5-10.2,1.8-1.9.2-3.8.2-5.7.2s-3.8,0-5.7-.1c-3.6-.2-7.2-.7-10.8-.3-1.2.3-2.5.7-3,1.7-.9,1.7,1.7,2.8,1.8,4.4.2,1.5-1.2,2.6-2.3,3.2-1.3.7-2.8,1.3-4.2,1.7s-3.2.7-4.4,1.8c-1.8,1.6.2,2.9,1.7,3.5c3.8,1.5,8.4,1.3,12.4,1.2c8.5-.3,17.2-.7,25.3-3.4c4-1.3,7.7-3.4,10.8-6.1.2-.5.4-1,.6-1.4c1.8-3.6,4.8-6.5,6.1-10.5.6-1.9.9-3.3.5-5.1-.3-.3-.9-.8-1.3-1.2-.7,2.1-1.2,3.7-2.9,5Z" opacity="0.63" fill="#54392a"/><path d="M204.3,209.1c-.3.9-25-.8-47.3-16.5c0,0-19.7-13.9-31.8-37-1-2-5.6-11-5.3-11.2.2-.1,1.9,2.6,3.4,4.9c2.1,3.3,2.9,4.7,4.5,7.3.3.5,2.3,3.5,4.1,6.1c0,0,3.5,4.8,8.6,9.8c15.6,15.3,41.5,27.4,41.5,27.4c14.5,6.9,22.4,8.7,22.3,9.2Z" opacity="0.61" fill="#89653e"/><path d="M165.7,174.1c1.8.6,4.3,1.5,7.6,1.9c6.6.8,11.5-.9,18.1-3.2c1.4-.5,5.4-1.9,5.3-2.5-.1-.3-.8-.3-4.9-.5-2.1-.1-3.2-.1-3.4-.1c0,0-3.9-.1-9.4-.4-2.3-.1-7.8-.5-14.3-1.9-3-.6-5.1-1-7.8-2-4.2-1.5-7.5-3.4-9.7-4.8c1.9,2.5,4.8,5.7,9,8.7c1.8,1.2,5.1,3.2,9.5,4.8Z" opacity="0.61" fill="#89653e"/><path d="M213.9,161.1c-6.7.2-13.5.1-20.2,0-6.3,0-12.6,0-18.8-1.7-3.6-1-7.4-2.1-10.7-4.1-.8,1-1.6,2-2.5,2.9-1.3,1.3-2.8,2.5-4.5,3.2-.9.3-1.8.5-2.7.5c1.3.6,2.6,1.1,4,1.6c4.4,1.4,9,2.1,13.6,2.9c2.6.4,5.2.9,7.9,1.1c2.8.2,5.6.3,8.5.5c4.6.3,9.5-.5,13.9,1.1.1,0,.2.2.1.3-1.6,2.5-4.3,4.1-7,5.3-3,1.4-6.3,2.4-9.5,3.2-2.8.7-5.6,1.6-8.5,1.8-3.5.3-7-.3-10.4-1.5-6.8-2.4-12.7-6.9-18.2-11.4-5.3-4.3-9.1-9.8-12.5-15.7-1.4-2.3-2.7-4.7-4.1-7-.1-.1-.3-.2-.4-.3-1.7-1.3-3.4-2.5-4.9-3.9-5-4.5-8.1-10.6-10-17-1.6,4-3.6,7.8-6.1,11.3-2.4,3.3-5.5,6.4-9.4,7.7-3.8,1.3-7.9,1.6-11.9,2c2.3,1.4,4.2,3.2,5.8,5.3c1.7,1.7,3.2,3.8,4.3,5.7c2.8,4.7,4.1,10.2,4,15.6-.1,5.9-1.9,11.5-4.5,16.8-2.5,5.1-5.9,9.7-8.5,14.7-1,1.9-1.9,4-2.6,6-.4,5.5,0,11.1,1.4,16.5.4,1.5,1.1,2.7,1.1,2.7.5.9,1.3,1.9,1.9,2.6-1.4-4.4-1.6-9.2-1.1-13.8.6-5.6,2.5-10.8,5.4-15.6c3.1-5.1,6.6-10.1,9.1-15.5c2.6-5.5,4.3-11.6,3.1-17.7-.6-2.9-1.6-5.7-2.7-8.5s-2.4-5.7-4.1-8.2c-.1-.1,0-.2.1-.3c3.7-1.2,7.1-3.2,9.8-6c2.7-2.9,4.3-6.6,4.8-10.4c0-.2.3-.2.3,0c1.4,5.2,4.4,9.9,7.4,14.3c3,4.3,6,8.5,9.6,12.4c6.2,6.7,13.3,12.6,20.8,17.8c7.3,5.1,16,10,25.2,9.4c4.4-.3,8.5-2,12.3-3.9c4.1-2.1,8.1-4.2,12-6.6c3.8-2.3,7.1-5.1,10.5-8c2.9-2.4,6.2-5,7.7-8.5-2.9.1-5.8.3-8.8.4Z" opacity="0.63" fill="#4f3425"/><path d="M140.4,119.1c4,1.3,8.3,1.8,12.4,2.9c2.3.6,4.8,1.6,5.6,3.8.6,1.7.1,3.5-.4,5.2-1,3.3-2,6.6-2.9,9.8-.5,1.8-1.3,3.8-3.1,4.2-1.2.3-2.4-.4-3.2-1.3s-1.2-2.1-1.6-3.3c-1.1-3.2-2.2-6.5-4-9.4-2.2-3.4-5.5-6-8.4-8.9-2.9-2.8-5.7-6.1-6.6-10.1-.3-1.5.6-2.4,1.8-1.4.9.7,1.3,2.5,2.1,3.4c2.1,2.6,5.2,4.1,8.3,5.1Z" opacity="0.63" fill="#4f3425"/><path d="M147.8,225.9c-1.5-2.2-3-4.4-4.9-6.2s-4.3-3.2-7-3.5c-1.3-.1-2.6,0-3.7-.4-1-.4-1.7-1.1-2.6-1.6-1.6-1-3.5-1.3-5.4-.9-2.5.5-4.9,2.4-7.3,1.6-.9-.3-1.7-.9-2.5-1.3-2.9-1.2-6.1.2-8.7,1.9-1.6,1.1-3.2,2.2-4.7,3.5.4-.5,4.5-6.3,9-7.7.9-.3,2.5-.8,4.4-.3c1.1.3,1.2.7,2.1,1c2.1.8,4.3-.5,6.5-1c2.4-.6,4.9-.4,7.1.6c1.1.5,2.2,1.2,3.3,1.7c1.9.8,4.1.8,6.1,1.5c4.6,1.8,6.5,6.5,8.3,11.1Z" opacity="0.61" fill="#89653e"/><path d="M229.8,216.2c-3.2-1.3-6.5,2.3-9.9,1.8-1.1-.2-2.1-.8-3.1-1-1.9-.4-3.8.4-5.5,1.4-1.4.8-2.9,1.7-4.6,1.8-1,0-1.9-.3-2.8-.4-3.5-.5-7.2,1.6-8.6,4.9c1.7-4.1,5.5-6.9,9.9-7c1.1,0,2.2.1,3.3-.1c2.7-.4,4.9-2.7,7.6-2.9c1.7-.1,3.4.5,5.1.7c3,.4,5.8-.7,8.6.8Z" fill="#89653e"/><path d="M245.9,196.5c0-.1.1-.2.1-.4-2.3,2.1-4.8,4-7.8,5.1-2.1.8-4.3,1.3-6.4.5-2-.7-3.5-2.2-4.9-3.8-1.5-1.7-2.8-3.5-4.2-5.3-.8-1-1.5-2-2.2-3c.7,1.3,1.5,2.6,2.3,3.8c1.9,3,3.9,6.2,6.6,8.5c1.4,1.2,2.9,2,4.8,2.4c1.5.3,3,.5,4.4,1c1.8.7,3.3,1.8,4.5,3.3c1.9,2.4,2.7,5.5,3,8.5.2-5.9-1.5-11.9-.8-17.8-.1-.1-.1-.3-.2-.4.1-.1.2-.1.2-.2.2-.6.3-1.4.6-2.2Z" opacity="0.63" fill="#4f3425"/><path d="M218.5,166.7c-.1.1-.2.2-.4.3.1,1.2.2,2.5.3,3.7.1,1.6.2,3.4-.4,4.9-.6,1.4-1.9,2.5-2.4,4-.6,1.8.7,3.6,1.7,5c.3.4.5.7.7,1.1-.9-1.7-1.8-3.8-1.5-5.8.3-1.7,1.9-1.8,3.3-1.7.2,0,1.2,0,2.4,0-1-3.9-2.3-7.7-3.7-11.5Z" opacity="0.63" fill="#4f3425"/><path d="M226.9,180c1.5-.1,5.5-.3,10-2.4c3-1.4,5.7-3.3,8.1-5.5c2.7-2.5,5.2-5.4,6.9-8.6c1-1.8,1.6-3.8,1.6-5.9c0-1.3-.2-2.5-.3-3.8-.3-.6-.6-1.1-1.1-1.5-1.3-1-3.1-1-4.8-.8-2.5.3-4.4.2-6.9.8v0c-.2.7-.5,1.5-.8,2.1c3,.7,7.1.3,8.4,3.6.8,1.9-.2,4-1.2,5.6-1.6,2.4-3.7,4.5-5.8,6.4-2.3,2-4.7,3.9-7.3,5.6-1.7,1.1-3.4,2.3-5.3,2.9c0,0-.2-.2-.2-.3c0,0,.2.1.4.2-5.3.4-7.2.3-7.9.2c0,0-1.6-.4-2.5,0c0,0-.1,0-.2.1-.2,0-.3,0-.4,0c2,.7,5.3,1.5,9.3,1.3Z" fill="#89653e"/><path d="M144.1,229.9c-.7-2-2.1-3.4-3.3-4.3.9,2.5,1.1,5.3-.4,7.4-2.1,3-6.2,2.7-9.3,1.8-2.4-.7-4.6-1.3-7.1-.9-1.9.3-3.7.3-5.5-.2-1-.3-2-.7-3-1-1.3-.5-2.7-.7-4.1-.8-2.3-.1-4.6,0-6.8-1-1.4-.6-2.3-1.6-2.8-2.8-.1.3-.1.7-.1,1c0,.7,0,3.7,2.1,5.3c2.2,1.6,5.4.7,8.1,1.2c2.6.5,4.9,2.5,7.5,2.5c1.1,0,2.3-.4,3.4-.5c3-.3,5.8,1.2,8.6,2.1c2.5.7,5.2,1,7.6.2c2.5-.8,4.6-2.7,5.3-5.3.5-2.2,0-4.1-.2-4.7Z" fill="#563829"/><path d="M238.7,235.9c.8-4-.5-8.3-3.3-11.2.3,1.8.4,3.6-.1,5.4-.5,1.7-1.7,3.4-3.4,3.9-1.5.4-3.1.1-4.5.8-1,.5-1.6,1.5-2.4,2.2-1.6,1.4-4,1.4-6.1,1.1s-4.3-.8-6.3-.3c-2.3.5-4.1,2.2-6.3,2.8-2.3.6-4.9,0-6.8-1.4-1.9-1.5-3.1-3.7-3.5-6.1-.4,2.1-1.2,4.2-.8,6.3.2.7.4,1.4.9,1.9.6.5,1.3.6,2,.7c7.6.8,15.3-.7,22.8-2.2c4.8-1,9.6-1.9,14.4-2.9c1.2-.1,2.6-.1,3.4-1Z" fill="#563829"/><path d="M171.3,164.7c9.3,1.6,16.3,1.9,21.1,2.1c15,.6,21.1-1,22.9-1.5c2.6-.7,4.7-1.5,6.1-2.1c2.9-.4,5.3-.9,7-1.3c2-.5,3.1-.7,4.4-1.4c3.1-1.4,5.4-3.7,5.2-3.9s-2.1,1.6-4.5,2.2c-6.4,1.6-13.1,2-19.7,2.3-15.6.5-13.3.4-20.2,0-7.9-.4-12.5-.6-18.6-2.1-4.6-1.1-8.3-2.6-10.8-3.7-.8,1-1.6,2-2.5,2.9-1.3,1.3-2.8,2.5-4.5,3.2-.1,0-.2.1-.3.1c3.9,1.1,8.7,2.2,14.4,3.2Z" opacity="0.39" fill="#110b08"/></g><g><path d="M287.8,190.4c-.8-2.6-3.7-3.7-6.3-4.2s-5.2-.7-7.8-.7c-1.3,0-3-.2-3.4-1.5s.8-2.4,1.5-3.6c.1-.2,1.2-3.9-.8-5.8-1.3-1.2-3.4-1.4-5.3-.6v-.1c-.7,1.7-1.5,3.4-2.5,5-1.7,2.7-3.2,5.3-5.3,7.7-2.1,2.3-4.5,4.5-7,6.3-1.8,1.3-4.2,2.4-5.4,4.3c1.3,1.3,2.9,2.4,4,3.9c1.2,1.5,1.6,3.5,2.3,5.3s1.9,3.6,3.7,4.2c1.7.5,3.6-.3,4.9-1.5c1.6-1.4,2.6-3.7,1.9-5.7-.4-1.2-1.5-2.2-1.6-3.5-.1-1.4,1-2.6,2.2-3.3c2.4-1.3,5.3-1,7.9-.4c2.6.7,5.2,1.7,7.9,1.8c1.5.1,3.1-.2,4.5-.7s2.8-1.4,3.7-2.6s1.3-2.8.9-4.3Z" fill="#99a82c"/><path d="M281.5,186.2c-2.6-.5-5.2-.7-7.8-.7-1,0-2.2-.1-2.9-.7-.8-.1-1.6-.3-2.4-.5-1.4-.3-2.7-.2-3.8.7.2,0,.3-.1.5-.1c1.2-.1,2.4.3,3.4.7c1.1.4,2.3.9,3.4,1.1c1.4.2,2.8.2,4.2.3c2.7.2,5.5.5,7.9,1.7c1.5.7,2.6,2.1,2.1,3.8.8-.8,1.2-1.8,1.3-3.2-1.4-1.8-3.7-2.7-5.9-3.1Z" fill="#bbbf2e"/><path d="M287.8,190.4c-.1-.2-.2-.4-.3-.6-.1.9-.4,1.8-1,2.6-1,1.2-2.5,1.8-4,2.2-4.1,1-8.3.3-12.4-.2-2.4-.3-4.8-.5-7.2-.1-1.7.3-3.6.9-4.1,2.7-.9,3.2,2.7,6.4.1,9.3-1.3,1.4-3.1,2.4-5,2.2-.6,0-1.1-.2-1.5-.5.7,1.2,1.7,2.2,2.9,2.6c1.7.5,3.6-.3,4.9-1.5c1.6-1.4,2.6-3.7,1.9-5.7-.4-1.2-1.5-2.2-1.6-3.5-.1-1.4,1-2.6,2.2-3.3c2.4-1.3,5.3-1,7.9-.4c2.6.7,5.2,1.7,7.9,1.8c1.5.1,3.1-.2,4.5-.7s2.8-1.4,3.7-2.6c1.1-1.2,1.5-2.8,1.1-4.3Z" fill="#818918"/><path d="M250.3,197.9c1.4-2.4,3.7-4.1,5.9-5.6c1.3-.8,2.7-1.6,3.9-2.7c1.1-.9,1.8-2,2.6-3.1.6-.8,1.2-1.6,2.1-2.2c1-.6,2.2-.7,3.4-.4.8.2,1.5.4,2.3.6-.1-.1-.2-.3-.2-.4-.4-1.3.8-2.4,1.5-3.6.1-.2,1.2-3.9-.8-5.8-1.3-1.2-3.4-1.4-5.3-.6v-.1c-.7,1.7-1.5,3.4-2.5,5-1.7,2.7-3.2,5.3-5.3,7.7-2.1,2.3-4.5,4.5-7,6.3-1.8,1.3-4.2,2.4-5.4,4.3c1.3,1.3,2.9,2.4,4,3.9v0c-.1-1.2.2-2.3.8-3.3Z" fill="#818918"/></g><g id="eEsXvMJnN5185_to" style="offset-path:path('M58.932937,139.455144C64.197493,121.710724,82.308707,86.49015,92.465403,72.980137');offset-rotate:0deg"><g id="eEsXvMJnN5185_tr" transform="rotate(-49.5486)"><g transform="translate(-92.767731,-72.054365)"><path d="M73.4,75.7c1.5.7,3.3.8,4.8,1.4c1.3.5,2.6,1.5,3,2.9c1,1.5,1.8,3.1,3.6,3.3.1,0,.2.1.2.2c0,.5,0,1,0,1.6c0,3.3,0,6.5.3,9.8.3,2.5.9,6.7,3.7,7.7c1.8.6,3.9-.4,5.3-1.3c2.6-1.5,4.7-3.7,6.5-6c2-2.4,4-4.8,5.8-7.4.9-1.2,1.7-2.5,2.4-3.9.8-1.5,1.5-3.2,1.7-4.9s-.5-2.9-1.7-3.9c-.8-.7-1.7-1.4-2.1-2.4-.6-1.4-.3-3,.7-4.2c2.4-3.1,7.1-3.9,8.6-7.8.9-2.3.2-4.9-2-6.1-2.4-1.4-5.7-.7-8,.6-1.1.7-2.1,1.5-3.1,2.4-.8.7-1.5,1.5-2.5,1.9-1.5.7-2.9-.1-3.1-1.7-.2-2,.4-4,.7-6c.3-2.8-.4-6-2.4-8.1-1.8-1.9-4.6-2.6-7.1-2.5-1.3.1-2.6.3-3.8.9-.2.1-.4.3-.6.4-1.5,3-1.6,6.4-.4,9.5c1.4,3.4,4.3,6.2,4.5,9.9c0,.4,0,.8-.2,1.2-.3.6-.9,1-1.6,1.2-2.9.8-5.7-1.8-8.6-2.5-3.6-.9-7.6,1.3-8.8,4.7-1,3.4.9,7.6,4.2,9.1Z" fill="#99a82c"/><path d="M108.1,80.8c-.5-.8-1.3-1.5-2.2-1.7-1.2-.3-2.1.5-2.9,1.2-2.7,2.5-5.5,4.7-9.1,5.8-1.5.5-3,.9-4.2,2-1.1.9-1.6,2.3-1.7,3.7-.1,2.4.6,4.9,1.7,7c.6,1.3,1.6,2.7,2.9,3.3.6-.3,1.2-.6,1.7-.9c2.6-1.5,4.7-3.7,6.5-6c2-2.4,4-4.8,5.8-7.4.9-1.2,1.7-2.5,2.4-3.9v-.1c-.1-1-.3-2-.9-3Z" fill="#99a82c"/><path d="M114.3,54.6c-.9-.5-1.8-.7-2.8-.7c1.2.3,2.2.9,2.8,2.3.9,2.1.6,4.3-.8,6.1-1.7,2.1-4.1,3.6-5.8,5.6-1.9,2.2-2.2,5.2-3.8,7.5-1,1.3-2.3,2.5-3.9,3-4.7,1.4-5.4-5-5-8.1.3-2.6,1.1-5.3,2.5-7.5.8-1.1,1.7-2.1,2.6-3-1.2.2-2.1-.6-2.3-1.9-.2-2,.4-4,.7-6c.3-2.8-.4-6-2.4-8.1-.5-.5-1.1-1-1.8-1.3.4.6.8,1.2,1.1,1.8c1.7,3.6-1.5,7.8-5,8.7-1.8.5-3.8.2-5.3-1-.5-.4-.9-.9-1.3-1.4.1.5.3,1,.5,1.4c1.4,3.4,4.3,6.2,4.5,9.9c0,.4,0,.8-.2,1.2-.3.6-.9,1-1.6,1.2-2.2.6-4.2-.6-6.3-1.6c1,1,1.9,2.2,2.3,3.6c1.4,3.9-1.2,7.4-4.8,8.8-1.6.6-3.3.8-4.9.6c0,0,.1,0,.1.1c1.5.7,3.3.8,4.8,1.4.9.3,1.7.9,2.3,1.6c1.5-.5,3-.8,4.4-1.4c1.7-.8,2.8-2.4,4.2-3.6.8-.7,1.6-1.2,2.4-.3c1.1,1.2.9,3.1,2.3,4.2.8.6,1.7,1.2,1.8,2.3.1,1-.5,1.9-1.3,2.4-1.9,1.2-4.8,1.3-7,1.2-1.5-.1-2.9-.4-4.2-1c.5.4,1,.7,1.7.7.1,0,.2.1.2.2c0,.5,0,1,0,1.6c0,3.3,0,6.5.3,9.8.3,2.5.9,6.7,3.7,7.7c1,.4,2.1.2,3.2-.2-1.4-.8-2.4-2.5-3.1-4-1-2.1-1.8-4.9-1.4-7.3.3-1.5,1-2.8,2.3-3.6c1.4-1,3.2-1.4,4.8-2c2.4-.8,4.4-2.3,6.3-3.9c1.1-1,2.4-2.7,4.1-2.8c2.5-.1,3.6,2.4,4.1,4.6.7-1.4,1.3-2.8,1.4-4.3.2-1.7-.5-2.9-1.7-3.9-.8-.7-1.7-1.4-2.1-2.4-.6-1.4-.3-3,.7-4.2c2.4-3.1,7.1-3.9,8.6-7.8.9-2.4.3-4.9-1.9-6.2Z" fill="#818918"/><path d="M101.7,62.1c-3,2.9-5.9,6.6-5.6,10.8c0,.8.3,1.8,1,2.1.8.4,1.8-.1,2.4-.8.5-.7.7-1.6,1-2.5.7-2.3,2.1-4.4,3.9-6c1.9-1.6,4.2-2.7,6-4.4.6-.6,1.2-1.3,1.5-2.1.8-2.6-1.9-3.4-3.7-2.4-2.4,1.2-4.6,3.4-6.5,5.3Z" opacity="0.88" fill="#bbbf2e"/><path d="M106.6,85c-1.5-1.8-3.4-.8-5,.3-1.9,1.3-3.5,2.9-5,4.7-1.5,1.7-2.8,3.5-2.3,5.9.3,1.5,1,2.9,1.9,4.2c1.8-1.4,3.3-3.1,4.8-4.8c2-2.4,4-4.8,5.8-7.4.3-.4.6-.9.9-1.3-.4-.6-.7-1.1-1.1-1.6Z" fill="#bbbf2e"/><path d="M87.7,46.8c1.2-.3,2.2-1.2,2.5-2.4.3-1,0-2.1-.4-3.1-.3,0-.6,0-1,0-1.3.1-2.6.3-3.8.9-.2.1-.4.3-.6.4-.5,1-.8,2-1,3.1c1.3.8,2.7,1.5,4.3,1.1Z" fill="#bbbf2e"/><path d="M70.2,70.9c1.5,1,3.9.5,5.1-.8c1.4-1.4,1-3.8-.3-5.1-1-1-2.3-1.4-3.6-1.3-.8.8-1.5,1.7-1.8,2.8-.4,1.2-.5,2.4-.2,3.6.1.3.4.6.8.8Z" fill="#bbbf2e"/><path d="" fill="none" stroke="#3f5787" stroke-width="0.6898"/></g></g></g></svg>