<svg id="Layer_1" data-name="Layer 1" xmlns="http://www.w3.org/2000/svg" viewBox="0 0 1609.95 929.51"><defs><style>.cls-1{fill:#08f;}.cls-2{fill:#fff;}.cls-3{fill:#262626;}</style></defs><rect class="cls-1" x="558.32" width="493.3" height="493.3" rx="153.79"/><circle class="cls-2" cx="680.05" cy="190.3" r="29.84"/><circle class="cls-2" cx="795.25" cy="129.63" r="60.68"/><circle class="cls-2" cx="934.29" cy="141.15" r="45.08"/><circle class="cls-2" cx="849.42" cy="245.51" r="39.79"/><circle class="cls-2" cx="723.35" cy="334.97" r="90.03"/><path class="cls-3" d="M54.19,852.37H0V583.28q51.8-1.85,66.31-1.84,56.39,0,89.27,34.26t32.87,91.19Q188.45,852.38,54.19,852.37Zm-17.45-236V817.47a212.36,212.36,0,0,0,30.49,1.83q38.56,0,60.61-28.93t22-80.35q0-95.52-85.78-95.52Q59,614.5,36.74,616.34Z"/><path class="cls-3" d="M393.62,757.4H251.82q0,34.54,18.92,53.09,16.71,16.15,43,16.16,29.94,0,50-17.45l14.7,25.17q-8.08,8.08-24.8,14Q332.64,856,306.93,856q-37.11,0-63-25.16-28.85-27.74-28.84-74.58,0-48.67,29.57-78.06Q271.11,652,307.3,652q42,0,65.94,23.7,23.14,22.77,23.14,60.43A77.83,77.83,0,0,1,393.62,757.4Zm-84.67-76q-23.32,0-39.13,15.06-15.06,14.33-17.08,35.64H361.66q0-21.12-13.22-35.27Q333.92,681.36,309,681.36Z"/><path class="cls-3" d="M435.87,796.71V575h34.9V790.83q0,15.81,9.09,24.89t23.79,9.09V856Q435.87,856,435.87,796.71Z"/><path class="cls-3" d="M561,852.37V685H534V655.65h61.9V852.37Zm19.1-271.11a20.92,20.92,0,0,1,15.34,6.33,21.75,21.75,0,1,1-15.34-6.33Z"/><path class="cls-3" d="M644.16,906.18l18.92-27.91q30.49,20.38,56.21,20.38,23.69,0,37.38-8.17t13.68-20.3q0-23.88-34.53-23.88-5.88,0-21.31,2.94t-24.06,2.94q-41.88,0-41.88-31.59,0-9.74,9.83-17.63t24.34-11.39Q641.22,772.1,641.22,724q0-30.86,21.49-51.43T715.8,652q29,0,45.37,11.94L778.62,643l22.77,21.49-20.94,15.8q13.41,17.44,13.41,45.55,0,29.76-18.55,50t-48.68,23.15l-28.83,2.93q-5.14.55-13.78,3.95t-8.63,8.91q0,7.53,18,7.53,7.89,0,24.61-2.84t24.8-2.85q29,0,45.28,13.87t16.25,38.48q0,27.18-24.34,43.9t-61.62,16.71a131.65,131.65,0,0,1-40.23-6.79Q657,915.91,644.16,906.18Zm74-226.1q-18.2,0-29.67,12.85T677,724.16q0,20.57,11.11,34.07t30,13.5q18.54,0,29-13.13t10.47-34.44q0-18.37-11.3-31.23A36,36,0,0,0,718.19,680.08Z"/><path class="cls-3" d="M961.38,852.37V728.75q0-22-10.84-34.72t-30.49-12.67q-12.67,0-25.44,7.44t-19.56,17.36V852.37h-34.9V575h34.9V677.32q7-10.83,22.5-18.09A74.81,74.81,0,0,1,929.6,652q31.23,0,48.95,20.57t17.73,56.21V852.37Z"/><path class="cls-3" d="M1058.18,683.2H1035.4V655.65h22.78V614.5l34.89-13.41v54.56h54V683.2h-54v97.72q0,24.8,8.36,35.26t26.91,10.47q13.41,0,27.74-6.79l5.14,30.67a193.08,193.08,0,0,1-47.57,5.51q-23.34,0-39.4-17.36t-16.07-43.81Z"/><path class="cls-3" d="M1301.18,606.24a61.05,61.05,0,0,0-19.83-3.68A33.15,33.15,0,0,0,1255,614.69q-10.38,12.12-10.38,30.67a59.76,59.76,0,0,0,.92,10.29h40V685h-40V852.37h-34.9V685H1182V655.65h28.65q0-37.67,18.55-59.15t49-21.49a109,109,0,0,1,32.7,5.51Z"/><path class="cls-3" d="M1366.94,655.65V781.1q0,45.55,39.49,45.55a54.23,54.23,0,0,0,31.59-9.92q14.34-9.91,18.92-23V655.65h34.9V852.37h-34.9V825.18q-5.88,11.58-23.6,21.22T1398.72,856q-32.34,0-49.5-18.55T1332,784.77V655.65Z"/><path class="cls-3" d="M1542.17,796.71V575h34.9V790.83q0,15.81,9.09,24.89t23.79,9.09V856Q1542.17,856,1542.17,796.71Z"/></svg>