<svg id="Layer_1" data-name="Layer 1" xmlns="http://www.w3.org/2000/svg" viewBox="0 0 3000 600"><defs><style>.cls-1{fill:#262626;}.cls-2{fill:#08f;}.cls-3{fill:#fff;}</style></defs><path class="cls-1" d="M839.49,472.4H769.67V125.69q66.74-2.35,85.44-2.36,72.64,0,115,44.13T1012.48,285Q1012.48,472.4,839.49,472.4ZM817,168.29V427.43q15.86,2.37,39.29,2.37,49.69,0,78.1-37.27T962.79,289q0-123.06-110.52-123.06Q845.64,165.93,817,168.29Z"/><path class="cls-1" d="M1276.83,350.05h-182.7q0,44.49,24.38,68.39,21.52,20.82,55.37,20.83,38.58,0,64.37-22.49l18.94,32.42q-10.43,10.43-32,18-27,9.94-60.11,9.94-47.81,0-81.18-32.42Q1046.8,409,1046.8,348.63q0-62.72,38.1-100.58,34.08-33.84,80.7-33.85,54.2,0,85,30.53,29.82,29.36,29.82,77.86A100.51,100.51,0,0,1,1276.83,350.05Zm-109.1-98q-30.06,0-50.41,19.4-19.41,18.46-22,45.92h140.34q0-27.22-17-45.44Q1199.92,252.08,1167.73,252.07Z"/><path class="cls-1" d="M1331.26,400.69V115h45V393.12q0,20.36,11.71,32.06t30.65,11.72v40.23Q1331.26,477.13,1331.26,400.69Z"/><path class="cls-1" d="M1492.43,472.4V256.8h-34.79V218.94h79.75V472.4ZM1517,123.09a27.78,27.78,0,0,1,19.76,47.45,27.81,27.81,0,0,1-47.45-19.76A27.49,27.49,0,0,1,1517,123.09Z"/><path class="cls-1" d="M1599.63,541.74l24.38-36Q1663.28,532,1696.42,532q30.54,0,48.16-10.54t17.64-26.15q0-30.77-44.5-30.76-7.58,0-27.45,3.78t-31,3.79q-54,0-54-40.7,0-12.56,12.66-22.72t31.36-14.68Q1595.84,369,1595.84,307q0-39.75,27.69-66.26t68.4-26.51q37.38,0,58.45,15.39l22.48-27,29.35,27.69-27,20.35q17.28,22.48,17.28,58.69,0,38.34-23.9,64.37t-62.72,29.82l-37.15,3.79q-6.63.71-17.75,5.08t-11.13,11.48q0,9.71,23.2,9.71,10.17,0,31.71-3.67t32-3.67q37.38,0,58.33,17.87t21,49.58q0,35-31.36,56.56t-79.4,21.53q-24.62,0-51.83-8.75T1599.63,541.74ZM1695,250.41q-23.41,0-38.22,16.57T1642,307.21q0,26.51,14.32,43.9T1695,368.5q23.91,0,37.4-16.92t13.49-44.37q0-23.65-14.56-40.23T1695,250.41Z"/><path class="cls-1" d="M2008.34,472.4V313.13q0-28.41-14-44.73t-39.29-16.33q-16.32,0-32.78,9.58T1897.11,284V472.4h-45V115h45V246.86q9-14,29-23.31a96.52,96.52,0,0,1,41.3-9.35q40.23,0,63.07,26.51t22.83,72.42V472.4Z"/><path class="cls-1" d="M2133.06,254.44h-29.35v-35.5h29.35v-53l45-17.28v70.29h69.58v35.5H2178v125.9q0,31.95,10.77,45.44t34.67,13.49q17.28,0,35.74-8.76l6.62,39.52q-27.93,7.1-61.29,7.1-30.06,0-50.76-22.36t-20.71-56.45Z"/><path class="cls-1" d="M2446.16,155.28a78.71,78.71,0,0,0-25.56-4.74q-20.59,0-34,15.62t-13.37,39.52a78,78,0,0,0,1.18,13.26H2426V256.8h-51.59V472.4h-45V256.8h-36.91V218.94h36.91q0-48.51,23.91-76.21T2416.57,115q19.65,0,42.13,7.1Z"/><path class="cls-1" d="M2530.88,218.94V380.57q0,58.69,50.88,58.7a70,70,0,0,0,40.71-12.78q18.45-12.78,24.37-29.59v-178h45V472.4h-45v-35q-7.58,14.91-30.41,27.34t-44.61,12.42q-41.66,0-63.78-23.9t-22.12-67.92V218.94Z"/><path class="cls-1" d="M2756.65,400.69V115h45V393.12q0,20.36,11.71,32.06T2844,436.9v40.23Q2756.65,477.13,2756.65,400.69Z"/><rect class="cls-2" width="600" height="600" rx="153.79"/><circle class="cls-3" cx="148.06" cy="231.47" r="36.29"/><circle class="cls-3" cx="288.17" cy="157.67" r="73.8"/><circle class="cls-3" cx="457.28" cy="171.68" r="54.83"/><circle class="cls-3" cx="354.06" cy="298.61" r="48.4"/><circle class="cls-3" cx="200.73" cy="407.42" r="109.51"/></svg>