<svg id="Layer_1" data-name="Layer 1" xmlns="http://www.w3.org/2000/svg" viewBox="0 0 3200 1000"><defs><style>.cls-1{fill:#d9efff;}.cls-2{fill:#262626;}.cls-3{fill:#08f;}.cls-4{fill:#fff;}</style></defs><rect class="cls-1" width="3200" height="1000"/><path class="cls-2" d="M1017.5,672.4H947.68V325.69q66.74-2.35,85.44-2.36,72.64,0,115,44.13T1190.49,485Q1190.49,672.4,1017.5,672.4ZM995,368.29V627.43q15.86,2.37,39.29,2.37,49.7,0,78.1-37.27T1140.8,489q0-123.06-110.52-123.06Q1023.65,365.93,995,368.29Z"/><path class="cls-2" d="M1454.84,550.05h-182.7q0,44.49,24.38,68.39,21.52,20.82,55.37,20.83,38.58,0,64.38-22.49l18.93,32.42q-10.42,10.42-32,18-27,9.94-60.11,9.94-47.81,0-81.18-32.42-37.15-35.73-37.15-96.08,0-62.72,38.1-100.58,34.08-33.84,80.7-33.85,54.2,0,85,30.53,29.82,29.36,29.82,77.86A100.51,100.51,0,0,1,1454.84,550.05Zm-109.1-98q-30.06,0-50.41,19.4-19.41,18.46-22,45.92h140.34q0-27.22-17-45.44Q1377.93,452.08,1345.74,452.07Z"/><path class="cls-2" d="M1509.27,600.69V315h45V593.12q0,20.36,11.71,32.06t30.65,11.72v40.23Q1509.27,677.13,1509.27,600.69Z"/><path class="cls-2" d="M1670.44,672.4V456.8h-34.79V418.94h79.75V672.4Zm24.61-349.31a27.49,27.49,0,1,1-19.64,8.05A26.92,26.92,0,0,1,1695.05,323.09Z"/><path class="cls-2" d="M1777.64,741.74l24.38-36Q1841.31,732,1874.44,732q30.52,0,48.16-10.54t17.63-26.15q0-30.76-44.5-30.76-7.57,0-27.45,3.78t-31,3.79q-54,0-54-40.7,0-12.56,12.66-22.72t31.36-14.68Q1773.85,569,1773.86,507q0-39.75,27.68-66.26t68.4-26.51q37.39,0,58.45,15.39l22.49-27,29.34,27.69-27,20.35q17.28,22.49,17.28,58.69,0,38.34-23.9,64.37t-62.72,29.82l-37.15,3.79q-6.63.7-17.75,5.08t-11.13,11.48q0,9.71,23.2,9.71,10.17,0,31.71-3.67t32-3.67q37.38,0,58.33,17.87t21,49.58q0,35-31.36,56.56t-79.4,21.53q-24.62,0-51.83-8.75T1777.64,741.74ZM1873,450.41q-23.43,0-38.22,16.57T1820,507.21q0,26.51,14.32,43.9T1873,568.5q23.89,0,37.39-16.92t13.49-44.37q0-23.65-14.56-40.23T1873,450.41Z"/><path class="cls-2" d="M2186.35,672.4V513.13q0-28.41-14-44.73t-39.29-16.33q-16.32,0-32.77,9.58T2075.12,484V672.4h-45V315h45V446.86q9-14,29-23.31a96.52,96.52,0,0,1,41.3-9.35q40.23,0,63.07,26.51t22.84,72.42V672.4Z"/><path class="cls-2" d="M2311.07,454.44h-29.35v-35.5h29.35v-53l45-17.28v70.29h69.58v35.5H2356v125.9q0,31.95,10.77,45.44t34.67,13.49q17.28,0,35.74-8.76l6.62,39.52q-27.91,7.1-61.29,7.1-30.06,0-50.76-22.36t-20.71-56.45Z"/><path class="cls-2" d="M2624.17,355.28a78.62,78.62,0,0,0-25.56-4.74q-20.59,0-34,15.62t-13.37,39.52a78,78,0,0,0,1.18,13.26h51.59V456.8h-51.59V672.4h-45V456.8h-36.92V418.94h36.92q0-48.51,23.9-76.21T2594.59,315q19.63,0,42.12,7.1Z"/><path class="cls-2" d="M2708.89,418.94V580.57q0,58.7,50.88,58.7a70,70,0,0,0,40.71-12.78q18.45-12.78,24.37-29.59v-178h45V672.4h-45v-35q-7.57,14.91-30.41,27.34t-44.61,12.42q-41.65,0-63.78-23.9t-22.12-67.92V418.94Z"/><path class="cls-2" d="M2934.66,600.69V315h45V593.12q0,20.36,11.71,32.06T3022,636.9v40.23Q2934.66,677.13,2934.66,600.69Z"/><rect class="cls-3" x="178.01" y="200" width="600" height="600" rx="153.79"/><circle class="cls-4" cx="326.07" cy="431.47" r="36.29"/><circle class="cls-4" cx="466.18" cy="357.67" r="73.8"/><circle class="cls-4" cx="635.29" cy="371.68" r="54.83"/><circle class="cls-4" cx="532.07" cy="498.61" r="48.4"/><circle class="cls-4" cx="378.74" cy="607.42" r="109.51"/></svg>