<?xml version="1.0" encoding="UTF-8"?>
<svg id="smugThugPewPew" xmlns="http://www.w3.org/2000/svg" viewBox="0 0 1000 500">
  <g id="smugThugEmojiRight" transform="translate(-10 0)">
    <animate id="smugThugEmojiRightVisible" attributeName="visibility" from="visible" to="hidden" dur="450ms" repeatCount="indefinite"/>
    <g id="right">
      <animateTransform 
        attributeName="transform"
         type="rotate" 
         from="0 400 400"
         to="30 410 400" 
         dur="400ms" 
         begin="flashVisible1.end"
         calcMode="spline"
         keyTimes="0;1"
         keySplines="0 1 0.5 1"
            />
      <g id="gun">
        <polygon id="flash" points="70.15 318.89 70.15 339.83 37.49 354.41 46.56 342.21 12.98 343.36 41.57 332.01 9.36 324.36 39.75 319.43 17.76 302.68 70.15 318.89" fill="#ffce00" stroke-width="0">
          <animate attributeName="visibility" to="visible" dur="50ms" begin="0ms;smugThugEmojiLeftVisible.end" id="flashVisible1"/>
          <animate attributeName="visibility" to="hidden" dur="400ms" begin="flashVisible1.end" id="flashHidden1"/>
        </polygon>
        <path d="m213.73,318.29s-124.6-1.27-145.58-1.56c-9.12,4.77-7.87,20.55-3.02,25.32,20.96-.09,147.62-.88,147.62-.88l.98-22.88Z" fill="#7b7b7b" stroke="#222521" stroke-miterlimit="10" stroke-width="2"/>
        <path d="m203.57,321.73s-120.21,1.06-139.78,1.46c-1.75,3.23-1.64,9.08-.89,12.16,19.55-.6,140.31-2.68,140.31-2.68l.36-10.95Z" fill="#c9cac6" stroke-width="0"/>
        <polygon points="88.02 316.06 74.5 304.41 68.15 315.84 88.02 316.06" fill="#7b7b7b" stroke-width="0"/>
        <path d="m294.56,409.16c2.57-6.78,2.09-13.93.68-20.82s-7.57-34.34-9.85-39.75c-3.48-8.26-9.38-10.32-13.94-12.19.22-2.28-.58-4.4-1.42-5.66-2.04-3.73,7.14-14.64,10.07-17.39-12.56-4.25-13.02,11.45-18.86,8.82-.98-3.42-4.52-9.67-12.09-9.86-7.57-.19-40.15,1.09-40.15,1.09l-5.65,5.37-.32,22.46-49.76.31s.17,2.08,1.4,3.54,6.29,2.2,6.29,2.2l80.41.88s9.71,62.99,10.52,63.88c4.9-.14,42.68-2.87,42.68-2.87Z" fill="#6a6b69" stroke="#222521" stroke-miterlimit="10" stroke-width="2"/>
        <path d="m256.52,326.55c.69-5.23-1.41-9.26-4.94-11.75-4.58,4.84-10.11,9.69-5.55,24.14,5.6-3.75,10-8.58,10.5-12.39Z" fill="#c9cac6" stroke-width="0"/>
        <polygon points="242.14 314.8 216 315.49 212.6 319.3 238.83 319.11 242.14 314.8" fill="#c9cac6" stroke-width="0"/>
        <path d="m238.31,321.48l-27.54.53s-1.23,2.29-1.27,3.61,1.18,3.51,1.18,3.51l24.98-.17s1.45-1.75,2.25-3.11c.98-1.66.4-4.37.4-4.37Z" fill="#c9cac6" stroke-width="0"/>
        <path d="m235.97,331.71l-25.18.05s-1.39,1.73-1.17,3.16,1.41,3.12,1.41,3.12l27.27.36s.6-1.54-.22-3.44c-.62-1.44-2.11-3.26-2.11-3.26Z" fill="#c9cac6" stroke-width="0"/>
        <path d="m246.44,316.1c.5-1.06-.09-1.98-.66-2.04-.51-.05-1.42.19-1.93,1.56s-.29,2.08.36,2.29c.92.3,1.95-1.23,2.22-1.81Z" fill="#c9cac6" stroke-width="0"/>
        <path d="m241.61,340.06c-.64-.99-.18-1.98.38-2.11.5-.11,1.43,0,2.12,1.29s.56,2.02-.05,2.32c-.87.42-2.09-.96-2.45-1.5Z" fill="#c9cac6" stroke-width="0"/>
        <path d="m240.02,330.22c.49-.69,1.9.12,2.44.72s.52,1.71.16,2.38c-.42.77-1.77.32-2.42-.34-.5-.51-.97-1.65-.19-2.76Z" fill="#c9cac6" stroke-width="0"/>
        <path d="m198.11,342.5l-43-.07s.81,1.78,2.81,2.43,4.33.68,4.33.68l35.76.12s.94-1.01.9-1.57-.8-1.58-.8-1.58Z" fill="#c9cac6" stroke-width="0"/>
        <path d="m266.97,325.3c3.12-3.95,5.69-8.91,9.53-11.57-6.16-.96-9.8,8.34-11.6,8.78.53,1.03,2.08,2.79,2.08,2.79Z" fill="#c9cac6" stroke-width="0"/>
        <path d="m205.9,354.45c.97,8.06,3.95,24.99,31.09,22.55.55-3.06,2.71-2.05,2.35-4.67-19.67,4.17-28.69-6.3-28.12-16.82,8.46.19,14.61-2.52,16.53-7.57-10.78-.16-66.54-1.02-66.54-1.02,0,0-6.57.33-7.68-5.39-.18,0-.43-.01-.6,0,.69,4.8,5.39,5.98,8.41,5.95,3.56-.03,30.95.74,35.45.91,1.3,1.93,5.58,5.16,9.12,6.06Z" fill="#222521" stroke-width="0"/>
        <path d="m246.2,355.84c1.49,9.64,9.42,47.64,9.42,47.64,10.33-5.98,24.93-9.73,36.52-5.98-1.26-7.47-8.91-38.93-11.76-47.56-7.24-2.79-21.97-5.92-34.18,5.9Z" fill="#222521" stroke-width="0"/>
        <path d="m278.08,402.91c-9.03,1.43-28.1,5.39-26.32,10.14,1.38,3.68,13.4,4.53,24.63,4.07,11.68-.47,17.85-3.39,18.44-8.78.52-4.81-8.71-6.71-16.75-5.44Z" fill="#222521" stroke-width="0"/>
      </g>
      <g id="arm">
        <path d="m425.83,389.89c-9.92-1.47-103.79-13.93-111.26-16.32-4.1-10.43-19.5-35.33-31.22-33.66-11.72,1.67-13.26,14.95-12.16,25.12,1.24,11.44,17.43,19.04,20.16,3.46,2.83,14.9,7.9,28.61,3.55,40.08,3.55-.93,10.5-2.91,14.01-8.68,10.76,4.69,104.41,17.53,113.79,18.42,1.71-6.41,4.25-22.95,3.13-28.41Z" fill="#ddbc9b" stroke="#222521" stroke-miterlimit="10" stroke-width="2"/>
        <path d="m236.91,346.66c-10.84.25-16.15,2.73-20.19,7.34-2.41,2.76-2.75,12.55,6.67,13.56,9.42,1.01,18.04.67,22.92-.82,4.88-1.49,9.47-7.44,7.49-11.65-1.98-4.21-9.8-8.59-16.9-8.43Z" fill="#ddbc9b" stroke="#222521" stroke-miterlimit="10" stroke-width="2"/>
        <path d="m238.05,372.17c-6.86,5.17-10.3,11.96-7.29,18.71,3.01,6.75,10.38,6.84,15.58-.07,3.69-4.91,15.4-9.7,13.47-16.58s-8.84-11.8-21.76-2.06Z" fill="#ddbc9b" stroke="#222521" stroke-miterlimit="10" stroke-width="2"/>
        <path d="m257.93,404.83c5.02-4.82,11.75-11.84,5.5-18.88s-13.84,1.21-17.67,4.59-11.14,11.98-4.65,18.35c6.49,6.36,12.17.41,16.81-4.06Z" fill="#ddbc9b" stroke="#222521" stroke-miterlimit="10" stroke-width="2"/>
      </g>
    </g>
    <g id="left">
      <g id="gun-2" data-name="gun">
        <path d="m711.82,220.19s93.84-81.97,109.6-95.83c10.03-2.31,19.34,10.49,18.76,17.27-15.98,13.56-112.73,95.31-112.73,95.31l-15.62-16.75Z" fill="#7b7b7b" stroke="#222521" stroke-miterlimit="10" stroke-width="2"/>
        <path d="m721.77,216.21s92.03-77.36,107.15-89.77c3.43,1.32,7.15,5.83,8.59,8.66-15.25,12.25-108.34,89.19-108.34,89.19l-7.39-8.08Z" fill="#c9cac6" stroke-width="0"/>
        <polygon points="805.88 136.76 808.58 119.12 820.83 123.68 805.88 136.76" fill="#7b7b7b" stroke-width="0"/>
        <path d="m709.49,341.79c-6.36-3.48-10.64-9.22-14.05-15.38s-16.58-31.01-18.36-36.61c-2.73-8.54.42-13.94,2.67-18.33-1.65-1.59-2.42-3.72-2.6-5.23-.87-4.17-14.94-6.49-18.96-6.67,6.78-11.4,17.33.24,20.06-5.56-1.47-3.24-2.85-10.29,2.77-15.35,5.63-5.06,31.22-25.28,31.22-25.28l7.78.4,14.85,16.86,38.01-32.12s1.22,1.69,1.23,3.6-3.35,5.76-3.35,5.76l-60.53,52.95s33.58,54.17,33.54,55.38c-3.81,3.08-34.29,25.57-34.29,25.57Z" fill="#6a6b69" stroke="#222521" stroke-miterlimit="10" stroke-width="2"/>
        <path d="m684.68,254.29c-3.92-3.53-4.95-7.95-3.89-12.15,6.63.7,13.99.79,19.92,14.73-6.7.79-13.17-.02-16.03-2.59Z" fill="#c9cac6" stroke-width="0"/>
        <polygon points="687.97 236.01 708.27 219.54 713.33 220.23 693.28 237.14 687.97 236.01" fill="#c9cac6" stroke-width="0"/>
        <path d="m695.22,238.6l21.27-17.5s2.42.94,3.31,1.92,1.38,3.43,1.38,3.43l-19.09,16.11s-2.24-.39-3.73-.9c-1.82-.63-3.14-3.06-3.14-3.06Z" fill="#c9cac6" stroke-width="0"/>
        <path d="m703.64,244.85l19.16-16.33s2.18.41,2.95,1.64.96,3.28.96,3.28l-20.48,18.01s-1.46-.78-2.07-2.76c-.46-1.5-.52-3.85-.52-3.85Z" fill="#c9cac6" stroke-width="0"/>
        <path d="m685.54,239.8c-1.07-.48-1.22-1.57-.83-1.97.35-.37,1.2-.78,2.48-.07s1.57,1.4,1.22,1.97c-.5.82-2.28.33-2.87.07Z" fill="#c9cac6" stroke-width="0"/>
        <path d="m704.79,254.87c-.16-1.16-1.15-1.62-1.66-1.35-.45.24-1.09.93-.77,2.36s.89,1.9,1.54,1.73c.93-.25.97-2.09.88-2.73Z" fill="#c9cac6" stroke-width="0"/>
        <path d="m699.6,246.35c-.82-.21-1.36,1.33-1.39,2.13s.71,1.64,1.43,1.91c.82.31,1.56-.91,1.61-1.83.04-.71-.34-1.88-1.65-2.22Z" fill="#c9cac6" stroke-width="0"/>
        <path d="m739.43,228.43l32.62-28.01s.54,1.88-.55,3.67c-1.1,1.79-2.85,3.33-2.85,3.33l-27.1,23.34s-1.37-.15-1.71-.61-.42-1.72-.42-1.72Z" fill="#c9cac6" stroke-width="0"/>
        <path d="m675.93,260.14c-4.94-.98-10.12-3.08-14.76-2.59,4.05-4.73,12.86-.04,14.52-.88.27,1.12.23,3.47.23,3.47Z" fill="#c9cac6" stroke-width="0"/>
        <path d="m741.28,242.58c4.5,6.75,13.25,21.55-8.96,37.35-2.41-1.97-3.39.2-4.82-2.02,17.65-9.62,17.7-23.44,10.43-31.06-6.3,5.64-12.73,7.58-17.48,5,8.08-7.13,49.9-44.04,49.9-44.04,0,0,5.2-4.03,2.33-9.09.14-.12.32-.28.45-.39,2.6,4.1-.21,8.05-2.52,9.99-2.72,2.29-23.03,20.69-26.34,23.74.27,2.31-.88,7.55-2.99,10.53Z" fill="#222521" stroke-width="0"/>
        <path d="m711.56,269.83c5.14,8.29,23.81,42.32,23.81,42.32-11.74,2.17-25.27,8.82-31.63,19.2-3.9-6.49-18.54-35.37-21.99-43.78,3.69-6.82,12.84-18.78,29.81-17.74Z" fill="#222521" stroke-width="0"/>
        <path d="m717.94,326.33c7.79-4.79,24.86-14.18,26.59-9.41,1.35,3.7-7.24,12.15-16.07,19.11-9.18,7.24-15.77,9.04-19.71,5.32-3.52-3.32,2.26-10.76,9.19-15.02Z" fill="#222521" stroke-width="0"/>
      </g>
      <g id="arm-2" data-name="arm">
        <path d="m597.22,412.5c6.58-7.57,69.81-78.06,73.92-84.74-3.66-10.59-8.16-39.52,1.84-45.87,9.99-6.35,19.8,2.74,25.57,11.18,6.49,9.5-.86,25.79-13.06,15.73,7.54,13.16,12.6,26.88,23.36,32.76-3.3,1.6-9.87,4.62-16.29,2.51-5.13,10.56-67.93,81.21-74.48,87.98-5.47-3.76-18.15-14.67-20.85-19.55Z" fill="#ddbc9b" stroke="#222521" stroke-miterlimit="10" stroke-width="2"/>
        <path d="m712.65,256.82c8.4-6.86,14.05-8.43,20.11-7.54,3.62.53,10.24,7.75,3.75,14.64-6.5,6.89-13.28,12.24-17.95,14.28-4.67,2.04-12.04.51-13.27-3.98-1.23-4.49,1.86-12.89,7.36-17.39Z" fill="#ddbc9b" stroke="#222521" stroke-miterlimit="10" stroke-width="2"/>
        <path d="m728.37,276.94c8.57-.53,15.6,2.39,17.7,9.47,2.1,7.09-3.44,11.95-11.88,10.08-5.99-1.33-18.01,2.64-21.01-3.84-3-6.48-.96-14.71,15.19-15.71Z" fill="#ddbc9b" stroke="#222521" stroke-miterlimit="10" stroke-width="2"/>
        <path d="m734.5,314.68c-6.95-.4-16.62-1.35-16.46-10.76.17-9.41,11.3-8.08,16.41-8,5.1.07,16.25,1.87,15.46,10.92-.79,9.05-8.98,8.22-15.41,7.85Z" fill="#ddbc9b" stroke="#222521" stroke-miterlimit="10" stroke-width="2"/>
      </g>
    </g>
    <g id="head">
      <circle cx="513.18" cy="354.49" r="139.19" fill="#eac8a0" stroke="#222521" stroke-miterlimit="10" stroke-width="2"/>
    </g>
    <g id="sunglasses">
      <polygon points="357.6 321.63 356.62 344.91 368.26 345.4 367.77 357.05 379.41 357.54 378.92 369.18 390.56 369.67 390.07 381.32 470.51 384.72 471 373.08 482.64 373.57 483.14 361.92 494.78 362.42 495.74 339.64 518.46 340.6 517.49 363.38 529.14 363.87 528.64 375.51 540.29 376 539.79 387.65 620.23 391.05 620.73 379.41 632.37 379.9 632.86 368.25 644.51 368.75 645 357.1 656.64 357.6 657.63 334.31 357.6 321.63" fill="#222521" stroke-width="0"/>
      <g>
        <rect x="380.14" y="334.49" width="11.65" height="11.65" transform="translate(14.72 -16) rotate(2.42)" fill="#fff" stroke-width="0"/>
        <rect x="391.29" y="346.63" width="11.65" height="11.65" transform="translate(15.24 -16.46) rotate(2.42)" fill="#fff" stroke-width="0"/>
        <rect x="403.43" y="335.48" width="11.65" height="11.65" transform="translate(14.78 -16.98) rotate(2.42)" fill="#fff" stroke-width="0"/>
        <rect x="414.58" y="347.61" width="11.65" height="11.65" transform="translate(15.3 -17.44) rotate(2.42)" fill="#fff" stroke-width="0"/>
        <rect x="402.44" y="358.76" width="11.65" height="11.65" transform="translate(15.76 -16.92) rotate(2.42)" fill="#fff" stroke-width="0"/>
        <rect x="425.73" y="359.75" width="11.65" height="11.65" transform="translate(15.83 -17.9) rotate(2.42)" fill="#fff" stroke-width="0"/>
      </g>
      <g>
        <rect x="542.91" y="341.38" width="11.65" height="11.65" transform="translate(15.16 -22.87) rotate(2.42)" fill="#fff" stroke-width="0"/>
        <rect x="554.06" y="353.51" width="11.65" height="11.65" transform="translate(15.68 -23.33) rotate(2.42)" fill="#fff" stroke-width="0"/>
        <rect x="566.2" y="342.36" width="11.65" height="11.65" transform="translate(15.22 -23.85) rotate(2.42)" fill="#fff" stroke-width="0"/>
        <rect x="577.35" y="354.5" width="11.65" height="11.65" transform="translate(15.74 -24.31) rotate(2.42)" fill="#fff" stroke-width="0"/>
        <rect x="565.21" y="365.65" width="11.65" height="11.65" transform="translate(16.2 -23.79) rotate(2.42)" fill="#fff" stroke-width="0"/>
        <rect x="588.5" y="366.63" width="11.65" height="11.65" transform="translate(16.26 -24.77) rotate(2.42)" fill="#fff" stroke-width="0"/>
      </g>
    </g>
    <path id="mouth" d="m445.29,412.53c23.02,14.66,82.08,40.25,115.37,9.62-20.82,60.18-89.49,18.33-115.37-9.62Z" fill="#222521" stroke-width="0"/>
    <g id="hat">
      <path d="m613.49,252.52c35.93,10.26,68.78,13.14,89.79,7.9,19.42-4.85,22.48,3.67,17.91,9.14-4.57,5.47-36.82,38.26-129.4,61.71-91.55,23.19-179.13,15.05-229.17-11.74-50.75-27.17-70.56-70.18-26-102.87,44.56-32.69,130.25-9.78,161.69,1.58,31.44,11.36,88.42,26.64,115.19,34.29Z" fill="#9b5821" stroke="#222521" stroke-miterlimit="10" stroke-width="2"/>
      <path d="m407.08,253.95c11.65-35.74,23.3-68.39,59.45-93.69,14.05-9.97,81.19.13,116.04-2.39,30.84-2.24,34.5,6.72,38.1,13.47,6.01,11.25,19.37,66.66,19.7,97.01-65.3,29.26-207.17,21.25-233.29-14.4Z" fill="#774620" stroke="#222521" stroke-miterlimit="10" stroke-width="2"/>
      <path d="m459.22,179.2c-12.81,22.31-23.01,27.85-35.14,30.65,5.41-14.16,20.26-30.45,31.08-44.21,9.78-12.43,17.45-21.62,23.13-21.06,11.69,4.01-11.35,21.17-19.07,34.61Z" fill="#663a1a" stroke-width="0"/>
      <path d="m509.65,148.34c22.45,4.67,36.81,8.38,56.2,9.93-30.61,2.39-63.19,21-83.72,9.71-16.12-8.86,2.55-12.35-4.86-21.1-5.28-6.23,20.76-.96,32.38,1.46Z" fill="#9b5821" stroke-width="0"/>
      <path d="m540.89,169.58c13.22-5.99,50.61-13.78,66.89-2.83,16.28,10.95,18.71,44.69-3.83,57.28-22.54,12.59-55.29,1.68-68.79-14.42-13.5-16.1-19.98-28.38,5.73-40.03Z" fill="#663a1a" stroke-width="0"/>
      <path d="m416.98,225.81c-1.72,6.93-12.84,20.86,1.48,27.03,10.81,4.65,46.19,20.03,94.41,21.27,47.89,1.23,108.28-3.29,118.42-9.03,10.14-5.74,8.41-8.8,7.83-14.49-.18-1.55-.46-3.86-.65-5.24,5.57,3.11,10.76,8.25,7.54,23.68-3.22,15.43-34.03,18.15-49.75,20.86-17.33,2.98-117.99,9.66-166.2-13.63-33.29-16.08-29.5-25.69-28.13-32.66s10.66-17.65,15.06-17.8Z" fill="#222521" stroke-width="0"/>
    </g>
  </g>
  <g id="smugThugEmojiLeft" transform="scale(-1 1) translate(-1010 0)">
    <animate id="smugThugEmojiLeftVisible" attributeName="visibility" from="hidden" to="visible" dur="450ms" repeatCount="indefinite"/>
    <g id="right2">
      <animateTransform 
        attributeName="transform"
         type="rotate" 
         from="0 400 400"
         to="30 410 400" 
         dur="400ms" 
         begin="flashVisible2.end"
         calcMode="spline"
         keyTimes="0;1"
         keySplines="0 1 0.5 1"
            />
      <g id="gun2">
        <polygon id="flash2" points="70.15 318.89 70.15 339.83 37.49 354.41 46.56 342.21 12.98 343.36 41.57 332.01 9.36 324.36 39.75 319.43 17.76 302.68 70.15 318.89" fill="#ffce00" stroke-width="0">
          <animate attributeName="visibility" to="visible" dur="50ms" begin="smugThugEmojiRightVisible.end" id="flashVisible2"/>
          <animate attributeName="visibility" to="hidden" dur="400ms" begin="flashVisible2.end" id="flashHidden2"/>
        </polygon>
        <path d="m213.73,318.29s-124.6-1.27-145.58-1.56c-9.12,4.77-7.87,20.55-3.02,25.32,20.96-.09,147.62-.88,147.62-.88l.98-22.88Z" fill="#7b7b7b" stroke="#222521" stroke-miterlimit="10" stroke-width="2"/>
        <path d="m203.57,321.73s-120.21,1.06-139.78,1.46c-1.75,3.23-1.64,9.08-.89,12.16,19.55-.6,140.31-2.68,140.31-2.68l.36-10.95Z" fill="#c9cac6" stroke-width="0"/>
        <polygon points="88.02 316.06 74.5 304.41 68.15 315.84 88.02 316.06" fill="#7b7b7b" stroke-width="0"/>
        <path d="m294.56,409.16c2.57-6.78,2.09-13.93.68-20.82s-7.57-34.34-9.85-39.75c-3.48-8.26-9.38-10.32-13.94-12.19.22-2.28-.58-4.4-1.42-5.66-2.04-3.73,7.14-14.64,10.07-17.39-12.56-4.25-13.02,11.45-18.86,8.82-.98-3.42-4.52-9.67-12.09-9.86-7.57-.19-40.15,1.09-40.15,1.09l-5.65,5.37-.32,22.46-49.76.31s.17,2.08,1.4,3.54,6.29,2.2,6.29,2.2l80.41.88s9.71,62.99,10.52,63.88c4.9-.14,42.68-2.87,42.68-2.87Z" fill="#6a6b69" stroke="#222521" stroke-miterlimit="10" stroke-width="2"/>
        <path d="m256.52,326.55c.69-5.23-1.41-9.26-4.94-11.75-4.58,4.84-10.11,9.69-5.55,24.14,5.6-3.75,10-8.58,10.5-12.39Z" fill="#c9cac6" stroke-width="0"/>
        <polygon points="242.14 314.8 216 315.49 212.6 319.3 238.83 319.11 242.14 314.8" fill="#c9cac6" stroke-width="0"/>
        <path d="m238.31,321.48l-27.54.53s-1.23,2.29-1.27,3.61,1.18,3.51,1.18,3.51l24.98-.17s1.45-1.75,2.25-3.11c.98-1.66.4-4.37.4-4.37Z" fill="#c9cac6" stroke-width="0"/>
        <path d="m235.97,331.71l-25.18.05s-1.39,1.73-1.17,3.16,1.41,3.12,1.41,3.12l27.27.36s.6-1.54-.22-3.44c-.62-1.44-2.11-3.26-2.11-3.26Z" fill="#c9cac6" stroke-width="0"/>
        <path d="m246.44,316.1c.5-1.06-.09-1.98-.66-2.04-.51-.05-1.42.19-1.93,1.56s-.29,2.08.36,2.29c.92.3,1.95-1.23,2.22-1.81Z" fill="#c9cac6" stroke-width="0"/>
        <path d="m241.61,340.06c-.64-.99-.18-1.98.38-2.11.5-.11,1.43,0,2.12,1.29s.56,2.02-.05,2.32c-.87.42-2.09-.96-2.45-1.5Z" fill="#c9cac6" stroke-width="0"/>
        <path d="m240.02,330.22c.49-.69,1.9.12,2.44.72s.52,1.71.16,2.38c-.42.77-1.77.32-2.42-.34-.5-.51-.97-1.65-.19-2.76Z" fill="#c9cac6" stroke-width="0"/>
        <path d="m198.11,342.5l-43-.07s.81,1.78,2.81,2.43,4.33.68,4.33.68l35.76.12s.94-1.01.9-1.57-.8-1.58-.8-1.58Z" fill="#c9cac6" stroke-width="0"/>
        <path d="m266.97,325.3c3.12-3.95,5.69-8.91,9.53-11.57-6.16-.96-9.8,8.34-11.6,8.78.53,1.03,2.08,2.79,2.08,2.79Z" fill="#c9cac6" stroke-width="0"/>
        <path d="m205.9,354.45c.97,8.06,3.95,24.99,31.09,22.55.55-3.06,2.71-2.05,2.35-4.67-19.67,4.17-28.69-6.3-28.12-16.82,8.46.19,14.61-2.52,16.53-7.57-10.78-.16-66.54-1.02-66.54-1.02,0,0-6.57.33-7.68-5.39-.18,0-.43-.01-.6,0,.69,4.8,5.39,5.98,8.41,5.95,3.56-.03,30.95.74,35.45.91,1.3,1.93,5.58,5.16,9.12,6.06Z" fill="#222521" stroke-width="0"/>
        <path d="m246.2,355.84c1.49,9.64,9.42,47.64,9.42,47.64,10.33-5.98,24.93-9.73,36.52-5.98-1.26-7.47-8.91-38.93-11.76-47.56-7.24-2.79-21.97-5.92-34.18,5.9Z" fill="#222521" stroke-width="0"/>
        <path d="m278.08,402.91c-9.03,1.43-28.1,5.39-26.32,10.14,1.38,3.68,13.4,4.53,24.63,4.07,11.68-.47,17.85-3.39,18.44-8.78.52-4.81-8.71-6.71-16.75-5.44Z" fill="#222521" stroke-width="0"/>
      </g>
      <g id="arm2">
        <path d="m425.83,389.89c-9.92-1.47-103.79-13.93-111.26-16.32-4.1-10.43-19.5-35.33-31.22-33.66-11.72,1.67-13.26,14.95-12.16,25.12,1.24,11.44,17.43,19.04,20.16,3.46,2.83,14.9,7.9,28.61,3.55,40.08,3.55-.93,10.5-2.91,14.01-8.68,10.76,4.69,104.41,17.53,113.79,18.42,1.71-6.41,4.25-22.95,3.13-28.41Z" fill="#ddbc9b" stroke="#222521" stroke-miterlimit="10" stroke-width="2"/>
        <path d="m236.91,346.66c-10.84.25-16.15,2.73-20.19,7.34-2.41,2.76-2.75,12.55,6.67,13.56,9.42,1.01,18.04.67,22.92-.82,4.88-1.49,9.47-7.44,7.49-11.65-1.98-4.21-9.8-8.59-16.9-8.43Z" fill="#ddbc9b" stroke="#222521" stroke-miterlimit="10" stroke-width="2"/>
        <path d="m238.05,372.17c-6.86,5.17-10.3,11.96-7.29,18.71,3.01,6.75,10.38,6.84,15.58-.07,3.69-4.91,15.4-9.7,13.47-16.58s-8.84-11.8-21.76-2.06Z" fill="#ddbc9b" stroke="#222521" stroke-miterlimit="10" stroke-width="2"/>
        <path d="m257.93,404.83c5.02-4.82,11.75-11.84,5.5-18.88s-13.84,1.21-17.67,4.59-11.14,11.98-4.65,18.35c6.49,6.36,12.17.41,16.81-4.06Z" fill="#ddbc9b" stroke="#222521" stroke-miterlimit="10" stroke-width="2"/>
      </g>
    </g>
    <g id="left2">
      <g id="gun-22" data-name="gun">
        <path d="m711.82,220.19s93.84-81.97,109.6-95.83c10.03-2.31,19.34,10.49,18.76,17.27-15.98,13.56-112.73,95.31-112.73,95.31l-15.62-16.75Z" fill="#7b7b7b" stroke="#222521" stroke-miterlimit="10" stroke-width="2"/>
        <path d="m721.77,216.21s92.03-77.36,107.15-89.77c3.43,1.32,7.15,5.83,8.59,8.66-15.25,12.25-108.34,89.19-108.34,89.19l-7.39-8.08Z" fill="#c9cac6" stroke-width="0"/>
        <polygon points="805.88 136.76 808.58 119.12 820.83 123.68 805.88 136.76" fill="#7b7b7b" stroke-width="0"/>
        <path d="m709.49,341.79c-6.36-3.48-10.64-9.22-14.05-15.38s-16.58-31.01-18.36-36.61c-2.73-8.54.42-13.94,2.67-18.33-1.65-1.59-2.42-3.72-2.6-5.23-.87-4.17-14.94-6.49-18.96-6.67,6.78-11.4,17.33.24,20.06-5.56-1.47-3.24-2.85-10.29,2.77-15.35,5.63-5.06,31.22-25.28,31.22-25.28l7.78.4,14.85,16.86,38.01-32.12s1.22,1.69,1.23,3.6-3.35,5.76-3.35,5.76l-60.53,52.95s33.58,54.17,33.54,55.38c-3.81,3.08-34.29,25.57-34.29,25.57Z" fill="#6a6b69" stroke="#222521" stroke-miterlimit="10" stroke-width="2"/>
        <path d="m684.68,254.29c-3.92-3.53-4.95-7.95-3.89-12.15,6.63.7,13.99.79,19.92,14.73-6.7.79-13.17-.02-16.03-2.59Z" fill="#c9cac6" stroke-width="0"/>
        <polygon points="687.97 236.01 708.27 219.54 713.33 220.23 693.28 237.14 687.97 236.01" fill="#c9cac6" stroke-width="0"/>
        <path d="m695.22,238.6l21.27-17.5s2.42.94,3.31,1.92,1.38,3.43,1.38,3.43l-19.09,16.11s-2.24-.39-3.73-.9c-1.82-.63-3.14-3.06-3.14-3.06Z" fill="#c9cac6" stroke-width="0"/>
        <path d="m703.64,244.85l19.16-16.33s2.18.41,2.95,1.64.96,3.28.96,3.28l-20.48,18.01s-1.46-.78-2.07-2.76c-.46-1.5-.52-3.85-.52-3.85Z" fill="#c9cac6" stroke-width="0"/>
        <path d="m685.54,239.8c-1.07-.48-1.22-1.57-.83-1.97.35-.37,1.2-.78,2.48-.07s1.57,1.4,1.22,1.97c-.5.82-2.28.33-2.87.07Z" fill="#c9cac6" stroke-width="0"/>
        <path d="m704.79,254.87c-.16-1.16-1.15-1.62-1.66-1.35-.45.24-1.09.93-.77,2.36s.89,1.9,1.54,1.73c.93-.25.97-2.09.88-2.73Z" fill="#c9cac6" stroke-width="0"/>
        <path d="m699.6,246.35c-.82-.21-1.36,1.33-1.39,2.13s.71,1.64,1.43,1.91c.82.31,1.56-.91,1.61-1.83.04-.71-.34-1.88-1.65-2.22Z" fill="#c9cac6" stroke-width="0"/>
        <path d="m739.43,228.43l32.62-28.01s.54,1.88-.55,3.67c-1.1,1.79-2.85,3.33-2.85,3.33l-27.1,23.34s-1.37-.15-1.71-.61-.42-1.72-.42-1.72Z" fill="#c9cac6" stroke-width="0"/>
        <path d="m675.93,260.14c-4.94-.98-10.12-3.08-14.76-2.59,4.05-4.73,12.86-.04,14.52-.88.27,1.12.23,3.47.23,3.47Z" fill="#c9cac6" stroke-width="0"/>
        <path d="m741.28,242.58c4.5,6.75,13.25,21.55-8.96,37.35-2.41-1.97-3.39.2-4.82-2.02,17.65-9.62,17.7-23.44,10.43-31.06-6.3,5.64-12.73,7.58-17.48,5,8.08-7.13,49.9-44.04,49.9-44.04,0,0,5.2-4.03,2.33-9.09.14-.12.32-.28.45-.39,2.6,4.1-.21,8.05-2.52,9.99-2.72,2.29-23.03,20.69-26.34,23.74.27,2.31-.88,7.55-2.99,10.53Z" fill="#222521" stroke-width="0"/>
        <path d="m711.56,269.83c5.14,8.29,23.81,42.32,23.81,42.32-11.74,2.17-25.27,8.82-31.63,19.2-3.9-6.49-18.54-35.37-21.99-43.78,3.69-6.82,12.84-18.78,29.81-17.74Z" fill="#222521" stroke-width="0"/>
        <path d="m717.94,326.33c7.79-4.79,24.86-14.18,26.59-9.41,1.35,3.7-7.24,12.15-16.07,19.11-9.18,7.24-15.77,9.04-19.71,5.32-3.52-3.32,2.26-10.76,9.19-15.02Z" fill="#222521" stroke-width="0"/>
      </g>
      <g id="arm-22" data-name="arm">
        <path d="m597.22,412.5c6.58-7.57,69.81-78.06,73.92-84.74-3.66-10.59-8.16-39.52,1.84-45.87,9.99-6.35,19.8,2.74,25.57,11.18,6.49,9.5-.86,25.79-13.06,15.73,7.54,13.16,12.6,26.88,23.36,32.76-3.3,1.6-9.87,4.62-16.29,2.51-5.13,10.56-67.93,81.21-74.48,87.98-5.47-3.76-18.15-14.67-20.85-19.55Z" fill="#ddbc9b" stroke="#222521" stroke-miterlimit="10" stroke-width="2"/>
        <path d="m712.65,256.82c8.4-6.86,14.05-8.43,20.11-7.54,3.62.53,10.24,7.75,3.75,14.64-6.5,6.89-13.28,12.24-17.95,14.28-4.67,2.04-12.04.51-13.27-3.98-1.23-4.49,1.86-12.89,7.36-17.39Z" fill="#ddbc9b" stroke="#222521" stroke-miterlimit="10" stroke-width="2"/>
        <path d="m728.37,276.94c8.57-.53,15.6,2.39,17.7,9.47,2.1,7.09-3.44,11.95-11.88,10.08-5.99-1.33-18.01,2.64-21.01-3.84-3-6.48-.96-14.71,15.19-15.71Z" fill="#ddbc9b" stroke="#222521" stroke-miterlimit="10" stroke-width="2"/>
        <path d="m734.5,314.68c-6.95-.4-16.62-1.35-16.46-10.76.17-9.41,11.3-8.08,16.41-8,5.1.07,16.25,1.87,15.46,10.92-.79,9.05-8.98,8.22-15.41,7.85Z" fill="#ddbc9b" stroke="#222521" stroke-miterlimit="10" stroke-width="2"/>
      </g>
    </g>
    <g id="head2">
      <circle cx="513.18" cy="354.49" r="139.19" fill="#eac8a0" stroke="#222521" stroke-miterlimit="10" stroke-width="2"/>
    </g>
    <g id="sunglasses2">
      <polygon points="357.6 321.63 356.62 344.91 368.26 345.4 367.77 357.05 379.41 357.54 378.92 369.18 390.56 369.67 390.07 381.32 470.51 384.72 471 373.08 482.64 373.57 483.14 361.92 494.78 362.42 495.74 339.64 518.46 340.6 517.49 363.38 529.14 363.87 528.64 375.51 540.29 376 539.79 387.65 620.23 391.05 620.73 379.41 632.37 379.9 632.86 368.25 644.51 368.75 645 357.1 656.64 357.6 657.63 334.31 357.6 321.63" fill="#222521" stroke-width="0"/>
      <g>
        <rect x="380.14" y="334.49" width="11.65" height="11.65" transform="translate(14.72 -16) rotate(2.42)" fill="#fff" stroke-width="0"/>
        <rect x="391.29" y="346.63" width="11.65" height="11.65" transform="translate(15.24 -16.46) rotate(2.42)" fill="#fff" stroke-width="0"/>
        <rect x="403.43" y="335.48" width="11.65" height="11.65" transform="translate(14.78 -16.98) rotate(2.42)" fill="#fff" stroke-width="0"/>
        <rect x="414.58" y="347.61" width="11.65" height="11.65" transform="translate(15.3 -17.44) rotate(2.42)" fill="#fff" stroke-width="0"/>
        <rect x="402.44" y="358.76" width="11.65" height="11.65" transform="translate(15.76 -16.92) rotate(2.42)" fill="#fff" stroke-width="0"/>
        <rect x="425.73" y="359.75" width="11.65" height="11.65" transform="translate(15.83 -17.9) rotate(2.42)" fill="#fff" stroke-width="0"/>
      </g>
      <g>
        <rect x="542.91" y="341.38" width="11.65" height="11.65" transform="translate(15.16 -22.87) rotate(2.42)" fill="#fff" stroke-width="0"/>
        <rect x="554.06" y="353.51" width="11.65" height="11.65" transform="translate(15.68 -23.33) rotate(2.42)" fill="#fff" stroke-width="0"/>
        <rect x="566.2" y="342.36" width="11.65" height="11.65" transform="translate(15.22 -23.85) rotate(2.42)" fill="#fff" stroke-width="0"/>
        <rect x="577.35" y="354.5" width="11.65" height="11.65" transform="translate(15.74 -24.31) rotate(2.42)" fill="#fff" stroke-width="0"/>
        <rect x="565.21" y="365.65" width="11.65" height="11.65" transform="translate(16.2 -23.79) rotate(2.42)" fill="#fff" stroke-width="0"/>
        <rect x="588.5" y="366.63" width="11.65" height="11.65" transform="translate(16.26 -24.77) rotate(2.42)" fill="#fff" stroke-width="0"/>
      </g>
    </g>
    <path id="mouth2" d="m445.29,412.53c23.02,14.66,82.08,40.25,115.37,9.62-20.82,60.18-89.49,18.33-115.37-9.62Z" fill="#222521" stroke-width="0"/>
    <g id="hat2">
      <path d="m613.49,252.52c35.93,10.26,68.78,13.14,89.79,7.9,19.42-4.85,22.48,3.67,17.91,9.14-4.57,5.47-36.82,38.26-129.4,61.71-91.55,23.19-179.13,15.05-229.17-11.74-50.75-27.17-70.56-70.18-26-102.87,44.56-32.69,130.25-9.78,161.69,1.58,31.44,11.36,88.42,26.64,115.19,34.29Z" fill="#9b5821" stroke="#222521" stroke-miterlimit="10" stroke-width="2"/>
      <path d="m407.08,253.95c11.65-35.74,23.3-68.39,59.45-93.69,14.05-9.97,81.19.13,116.04-2.39,30.84-2.24,34.5,6.72,38.1,13.47,6.01,11.25,19.37,66.66,19.7,97.01-65.3,29.26-207.17,21.25-233.29-14.4Z" fill="#774620" stroke="#222521" stroke-miterlimit="10" stroke-width="2"/>
      <path d="m459.22,179.2c-12.81,22.31-23.01,27.85-35.14,30.65,5.41-14.16,20.26-30.45,31.08-44.21,9.78-12.43,17.45-21.62,23.13-21.06,11.69,4.01-11.35,21.17-19.07,34.61Z" fill="#663a1a" stroke-width="0"/>
      <path d="m509.65,148.34c22.45,4.67,36.81,8.38,56.2,9.93-30.61,2.39-63.19,21-83.72,9.71-16.12-8.86,2.55-12.35-4.86-21.1-5.28-6.23,20.76-.96,32.38,1.46Z" fill="#9b5821" stroke-width="0"/>
      <path d="m540.89,169.58c13.22-5.99,50.61-13.78,66.89-2.83,16.28,10.95,18.71,44.69-3.83,57.28-22.54,12.59-55.29,1.68-68.79-14.42-13.5-16.1-19.98-28.38,5.73-40.03Z" fill="#663a1a" stroke-width="0"/>
      <path d="m416.98,225.81c-1.72,6.93-12.84,20.86,1.48,27.03,10.81,4.65,46.19,20.03,94.41,21.27,47.89,1.23,108.28-3.29,118.42-9.03,10.14-5.74,8.41-8.8,7.83-14.49-.18-1.55-.46-3.86-.65-5.24,5.57,3.11,10.76,8.25,7.54,23.68-3.22,15.43-34.03,18.15-49.75,20.86-17.33,2.98-117.99,9.66-166.2-13.63-33.29-16.08-29.5-25.69-28.13-32.66s10.66-17.65,15.06-17.8Z" fill="#222521" stroke-width="0"/>
    </g>
  </g>
  <g id="pew1" transform="translate(-30 0)">
    <animate attributeName="visibility" from="visible" to="hidden" dur="450ms" repeatCount="indefinite"/>
    <path d="m322.47,107.96l3.83-.29c2.08-.16,3.49-.69,4.23-1.6.74-.91,1.04-2.27.91-4.07l-4.52-60.62c-.13-1.8-.63-3.07-1.5-3.81-.86-.74-2.34-1.04-4.42-.88l-3.83.29-.78-10.5,48.69-3.63c9.46-.7,17.05,1.18,22.76,5.66,5.71,4.48,8.9,11.26,9.58,20.34.68,9.09-1.51,16.46-6.56,22.11-5.05,5.66-12.26,8.84-21.63,9.54l-24.13,1.8,1.39,18.6c.13,1.8.63,3.09,1.5,3.89.87.79,2.34,1.11,4.43.95l3.69-.28.77,10.36-33.64,2.51-.77-10.36Zm44-37.82c5.96-.44,10.27-2.31,12.93-5.6,2.66-3.29,3.75-8.15,3.27-14.59-.49-6.53-2.2-11.02-5.14-13.46-2.94-2.44-7.54-3.44-13.78-2.97l-22.15,1.65,2.73,36.63,22.15-1.65Z" fill="#eac8a0" stroke="#000" stroke-miterlimit="10" stroke-width="2"/>
    <path d="m412.47,101.25l4.12-.31c1.89-.14,3.21-.67,3.95-1.58.74-.91,1.04-2.31.9-4.21l-4.51-60.47c-.13-1.8-.63-3.07-1.5-3.81-.86-.74-2.24-1.05-4.14-.91l-4.12.31-.78-10.5,68-5.07,1.36,18.31-13.63,1.02-.21-2.84c-.13-1.8-.66-3.07-1.57-3.81-.91-.74-2.31-1.04-4.21-.9l-24.56,1.83,2.25,30.24,24.56-1.83.78,10.51-24.56,1.83,2.26,30.38,24.56-1.83c1.89-.14,3.23-.65,4.03-1.51.79-.87,1.12-2.25.98-4.14l-.21-2.84,13.63-1.02,1.38,18.46-68,5.07-.77-10.36Z" fill="#eac8a0" stroke="#000" stroke-miterlimit="10" stroke-width="2"/>
    <path d="m500.74,29.16c-.64-2.24-1.56-3.71-2.76-4.43-1.2-.72-3.17-.98-5.91-.77l-2.98.22-.78-10.5,21.86-1.63,18.82,64.83,11.58-51.54,11.92-.89,19.23,49.24,9.15-66.92,21.72-1.62.78,10.5-3.12.23c-2.75.2-4.65.75-5.73,1.64-1.08.89-1.77,2.49-2.07,4.79l-11.27,76.78-12.35.92-20.5-51-12.43,53.46-12.49.93-22.66-74.25Z" fill="#eac8a0" stroke="#000" stroke-miterlimit="10" stroke-width="2"/>
  </g>
  <g id="pew2" transform="translate(40 0) rotate(10 450 300)">
    <animate attributeName="visibility" from="hidden" to="visible" dur="450ms" repeatCount="indefinite"/>
    <path d="m322.47,107.96l3.83-.29c2.08-.16,3.49-.69,4.23-1.6.74-.91,1.04-2.27.91-4.07l-4.52-60.62c-.13-1.8-.63-3.07-1.5-3.81-.86-.74-2.34-1.04-4.42-.88l-3.83.29-.78-10.5,48.69-3.63c9.46-.7,17.05,1.18,22.76,5.66,5.71,4.48,8.9,11.26,9.58,20.34.68,9.09-1.51,16.46-6.56,22.11-5.05,5.66-12.26,8.84-21.63,9.54l-24.13,1.8,1.39,18.6c.13,1.8.63,3.09,1.5,3.89.87.79,2.34,1.11,4.43.95l3.69-.28.77,10.36-33.64,2.51-.77-10.36Zm44-37.82c5.96-.44,10.27-2.31,12.93-5.6,2.66-3.29,3.75-8.15,3.27-14.59-.49-6.53-2.2-11.02-5.14-13.46-2.94-2.44-7.54-3.44-13.78-2.97l-22.15,1.65,2.73,36.63,22.15-1.65Z" fill="#eac8a0" stroke="#000" stroke-miterlimit="10" stroke-width="2"/>
    <path d="m412.47,101.25l4.12-.31c1.89-.14,3.21-.67,3.95-1.58.74-.91,1.04-2.31.9-4.21l-4.51-60.47c-.13-1.8-.63-3.07-1.5-3.81-.86-.74-2.24-1.05-4.14-.91l-4.12.31-.78-10.5,68-5.07,1.36,18.31-13.63,1.02-.21-2.84c-.13-1.8-.66-3.07-1.57-3.81-.91-.74-2.31-1.04-4.21-.9l-24.56,1.83,2.25,30.24,24.56-1.83.78,10.51-24.56,1.83,2.26,30.38,24.56-1.83c1.89-.14,3.23-.65,4.03-1.51.79-.87,1.12-2.25.98-4.14l-.21-2.84,13.63-1.02,1.38,18.46-68,5.07-.77-10.36Z" fill="#eac8a0" stroke="#000" stroke-miterlimit="10" stroke-width="2"/>
    <path d="m500.74,29.16c-.64-2.24-1.56-3.71-2.76-4.43-1.2-.72-3.17-.98-5.91-.77l-2.98.22-.78-10.5,21.86-1.63,18.82,64.83,11.58-51.54,11.92-.89,19.23,49.24,9.15-66.92,21.72-1.62.78,10.5-3.12.23c-2.75.2-4.65.75-5.73,1.64-1.08.89-1.77,2.49-2.07,4.79l-11.27,76.78-12.35.92-20.5-51-12.43,53.46-12.49.93-22.66-74.25Z" fill="#eac8a0" stroke="#000" stroke-miterlimit="10" stroke-width="2"/>
  </g>
</svg>