<?xml version="1.0" encoding="UTF-8"?>
<svg id="web" xmlns="http://www.w3.org/2000/svg" viewBox="0 0 1000.84 1000.85">
    <defs>
        <style>
            .webLines {
            fill: none;
            opacity: .3;
            stroke: #7c7c7c;
            stroke-miterlimit: 10;
            }
        </style>
    </defs>
    <polyline class="webLines" points="280.01 .61 256.68 68.58 275.34 141.08 308.68 170.36 412.01 210.79 550.01 306.3 644.01 399.77 759.34 552.37 821.34 661.12 1000.34 1000.61"/>
    <polyline class="webLines" points="736.01 .61 752.68 15.6 768.68 .61 789.34 12.12 796.68 37.91 828.01 41.4 871.34 23.97 888.01 .61"/>
    <polyline class="webLines" points="928.68 .61 953.34 9.33 967.34 41.4 928.68 51.15 878.01 37.21 871.34 23.97"/>
    <polyline class="webLines" points="494.3 47.13 504.01 41.4 515.34 48.37"/>
    <line class="webLines" x1="500.34" y1="63.01" x2="515.34" y2="58.13"/>
    <line class="webLines" x1="497.34" y1="83.22" x2="515.34" y2="75.55"/>
    <line class="webLines" x1="504.82" y1=".61" x2="504.01" y2="41.4"/>
    <polyline class="webLines" points="531.32 34.92 519.34 21 519.34 .61"/>
    <line class="webLines" x1="488.68" y1="32.33" x2="504.01" y2="4.45"/>
    <line class="webLines" x1="519.34" y1="21" x2="504.82" y2="25.88"/>
    <polyline class="webLines" points="515.34 53.94 548.68 60.57 571.34 48.37 599.34 41.4 616.68 18.39 616.68 .61"/>
    <polyline class="webLines" points="466.01 .61 488.68 32.33 500.34 63.01 497.34 83.22 476.68 127.84 433.34 159.9 410.68 167.2 305.08 167.2 377.34 77.91 305.08 .61"/>
    <polyline class="webLines" points="416.43 165.35 469.34 186.39 476.01 194.76 497.34 181.51 515.34 186.39 525.34 152.93 537.01 129.23 558.68 100.65 542.68 93.68 515.34 75.55 515.34 48.37 542.68 25.36 538.68 .61"/>
    <polyline class="webLines" points="525.33 198.24 494.3 202.43 476.01 194.76"/>
    <polyline class="webLines" points="484.73 110.46 496.34 118.77 490.53 149.45 472.68 157.81 469.34 186.39"/>
    <polyline class="webLines" points="433.34 159.9 472.68 157.81 500.67 155.02 512.08 173.15 512.08 185.51"/>
    <line class="webLines" x1="531.32" y1="86.15" x2="496.34" y2="118.77"/>
    <polyline class="webLines" points="497.91 79.39 531.32 102.46 558.68 110.46 594.01 102.46 616.68 63.01 599.34 41.4"/>
    <polyline class="webLines" points="553.21 58.13 549.34 83.22 554.01 97.69"/>
    <line class="webLines" x1="534.68" y1="58.13" x2="534.68" y2="88.37"/>
    <line class="webLines" x1="550.16" y1="77.91" x2="534.68" y2="77.91"/>
    <line class="webLines" x1="551" y1="88.37" x2="539.22" y2="91.39"/>
    <polyline class="webLines" points="507.84 108.05 522.23 118.77 531.32 110.46 528.22 100.32"/>
    <polyline class="webLines" points="525.34 152.93 512.08 139.22 519.58 129 522.23 118.77 537.01 129.23"/>
    <line class="webLines" x1="545.11" y1="118.54" x2="531.32" y2="110.46"/>
    <polyline class="webLines" points="496.34 155.45 496.34 167.2 493.14 184.12 480.9 175.01 476.01 157.48"/>
    <line class="webLines" x1="520.98" y1="148.42" x2="506.34" y2="164.03"/>
    <polyline class="webLines" points="558.68 110.46 561.34 127.14 551 152.93 500.67 155.02 512.08 139.22"/>
    <line class="webLines" x1="527.12" y1="198.59" x2="531.01" y2="191.57"/>
    <polyline class="webLines" points="406.7 208.71 504.82 211.72 536.68 224.04 554.01 203.82 540.68 194.76 515.34 186.39"/>
    <polyline class="webLines" points="452.41 238.75 536.68 224.04 579.56 247.51 604.9 251.22 649.79 271.67 677.34 293.05 688.9 304.2 700.01 325.12 700.01 339.99 671.12 334.41 647.12 339.99 652.01 287.94 610.68 261.45 596.45 307.46 561.34 317.57"/>
    <polyline class="webLines" points="561.34 127.14 581.79 121.1 597.79 130.86 637.79 128.53 653.15 130.86"/>
    <polyline class="webLines" points="594.01 102.46 602.68 116.45 594.01 135.85 586.68 156.23 576.21 162.87"/>
    <line class="webLines" x1="646.68" y1="158.28" x2="657.79" y2="191.57"/>
    <line class="webLines" x1="557.29" y1="138.94" x2="576.21" y2="148.42"/>
    <polyline class="webLines" points="579.2 121.86 567.01 158.28 551 202.43 591.12 195.08"/>
    <line class="webLines" x1="594.68" y1="128.96" x2="569.04" y2="160.04"/>
    <line class="webLines" x1="586.2" y1="104.23" x2="581.79" y2="121.1"/>
    <line class="webLines" x1="571.21" y1="107.62" x2="571.21" y2="124.22"/>
    <line class="webLines" x1="517.86" y1="177.97" x2="561.34" y2="177.97"/>
    <polyline class="webLines" points="581.86 164.03 591.12 177.97 589.44 202.43 579.56 230.31 579.56 247.51"/>
    <line class="webLines" x1="618.56" y1="179.13" x2="613.79" y2="205.77"/>
    <polyline class="webLines" points="638.69 185.51 612.01 209.4 607.24 252.29"/>
    <polyline class="webLines" points="589.44 202.43 602.68 200.1 613.79 205.77"/>
    <polyline class="webLines" points="586.2 211.57 598.68 208.93 611.58 213.28"/>
    <polyline class="webLines" points="589.44 186.39 607.24 184.12 612.9 177.33 646.68 158.28 655.12 122.49 680.9 105.76 732.01 86.15 758.23 86.15 769.79 91.39 788.01 114.5 788.01 138.29 764.01 173.61 732.01 186.39 677.34 198.59 657.79 191.57 612.9 177.33 551 152.93"/>
    <line class="webLines" x1="558.68" y1="201.02" x2="557.29" y2="224.91"/>
    <line class="webLines" x1="494.3" y1="202.43" x2="504.82" y2="211.72"/>
    <line class="webLines" x1="438.68" y1="208.93" x2="446.65" y2="234.77"/>
    <line class="webLines" x1="433.34" y1="225.56" x2="435.12" y2="208.93"/>
    <polyline class="webLines" points="612.87 23.44 638.69 34.92 644.9 51.15 636.9 58.13 613.79 59.4"/>
    <polyline class="webLines" points="655.12 122.49 638.69 112.66 616.68 107.62 609.34 118.54 594.68 159.21 594.98 170.27"/>
    <polyline class="webLines" points="628.88 109.55 629.12 93.68 621.34 79.39 636.9 58.13 642.68 88.37 640.45 102.46 632.01 104.23"/>
    <polyline class="webLines" points="607.24 77.91 613.79 97.69 614.77 110.46"/>
    <polyline class="webLines" points="646.68 117.44 622.97 97.69 614.77 100.32"/>
    <polyline class="webLines" points="648.9 118.77 652.23 109.55 640.45 102.46"/>
    <polyline class="webLines" points="636.9 58.13 644.9 65.79 622.97 82.37"/>
    <polyline class="webLines" points="680.9 105.76 676.01 97.69 667.56 94.18"/>
    <line class="webLines" x1="670.26" y1="112.66" x2="670.26" y2="100.32"/>
    <polyline class="webLines" points="634.89 107.62 676.01 97.69 718.23 77.91 738.68 34.92 749.34 30.59 754.68 .61"/>
    <polyline class="webLines" points="529.06 36.82 640.45 18.39 697.34 17.77 748.45 .61"/>
    <polyline class="webLines" points="735.58 41.42 712.45 48.37 694.78 48.37 682.68 .61"/>
    <polyline class="webLines" points="642.68 48.37 680.9 36.82 692.37 38.86"/>
    <polyline class="webLines" points="634.89 19.31 667.56 30.59 697.34 17.77"/>
    <line class="webLines" x1="652.23" y1="45.48" x2="667.56" y2="30.59"/>
    <polyline class="webLines" points="718.35 91.39 718.23 77.91 735.58 86.15"/>
    <polyline class="webLines" points="749.76 28.23 749.76 44.88 783.56 59.4 788.01 82.37 776.9 97.69"/>
    <polyline class="webLines" points="769.79 91.39 777.79 70.25 775.56 63.01 740.9 70.25 724.01 80.65"/>
    <polyline class="webLines" points="759.93 49.25 741.34 54.12 736.01 63.01 724.01 63.01"/>
    <line class="webLines" x1="728.59" y1="56.13" x2="740.13" y2="56.13"/>
    <line class="webLines" x1="749.76" y1="68.4" x2="736.01" y2="63.01"/>
    <line class="webLines" x1="780.59" y1="58.13" x2="775.56" y2="63.01"/>
    <polyline class="webLines" points="777.79 70.25 819.56 60.57 824.9 70.25 796.01 117.44 771.99 94.18"/>
    <polyline class="webLines" points="758.23 86.15 778.08 79.39 788.01 79.39 798.44 88.37 788.01 132.74"/>
    <polyline class="webLines" points="828.01 41.4 817.34 65.7 822.68 77.91 838.68 75.55 848.01 77.91 852.9 89 824.9 132.66 812.01 142.37 804.01 138.94 796.01 117.44"/>
    <polyline class="webLines" points="860.01 .61 854.88 30.59 857.44 54.12 845.34 62.96 824.9 70.25"/>
    <polyline class="webLines" points="878.01 37.21 880.45 65.7 892.9 77.91 931.12 73.25 950.23 77.2 974.68 49.25 967.34 41.4"/>
    <polyline class="webLines" points="932.9 51.15 950.23 77.2 953.79 107.56 923.12 114.5 899.56 104.23 890.88 75.93"/>
    <line class="webLines" x1="857.44" y1="54.12" x2="857.44" y2="79.39"/>
    <polyline class="webLines" points="850.62 83.84 869.83 70.25 883.46 68.65"/>
    <polyline class="webLines" points="899.56 104.23 893.34 124.22 876.31 121.86"/>
    <polyline class="webLines" points="824.9 132.66 835.12 148.42 852.9 144.5 867.04 135.85 866.05 124.22 852.9 141.21 829.79 150.38 812.01 167.2"/>
    <polyline class="webLines" points="890.88 123.88 880.01 142.37 852.9 144.5"/>
    <polyline class="webLines" points="894.31 121.1 923.12 114.5 919.34 125.98 908.72 138.94"/>
    <polyline class="webLines" points="899.56 106.06 908.72 121.1 908.72 144.5 890.88 164.03 864.45 164.03 867.04 152.93 850.62 145"/>
    <polyline class="webLines" points="868.89 143.24 860.01 177.97 822.23 213.28 822.23 232.17 840.01 297.23 905.79 274.93 953.79 232.63 943.12 198.59 926.34 174.92 908.72 164.03 890.88 164.03"/>
    <polyline class="webLines" points="908.72 144.5 919.34 158.28 930.68 164.03 949.34 164.03 971.12 134.19 962.23 115.92 953.79 109.55"/>
    <polyline class="webLines" points="788.01 138.29 791.56 152.93 804.01 158.28"/>
    <polyline class="webLines" points="761.88 174.92 802.23 167.2 809.29 141.21 796.01 152.93"/>
    <polyline class="webLines" points="680.9 198.59 700.01 202.94 720.9 200.1 764.01 173.61 804.01 138.94"/>
    <polyline class="webLines" points="663.67 193.68 674.23 213.28 655.12 263.77 638.76 266.65"/>
    <polyline class="webLines" points="669.51 286.97 700.01 254.48 694.78 217.24 680.9 208.93 674.23 213.28"/>
    <polyline class="webLines" points="700.01 202.94 694.78 217.24 731.56 230.17 746.23 258.66 777.79 247.95 814.68 202.94 812.01 198.59 804.01 196.85 802.23 167.2"/>
    <polyline class="webLines" points="802.39 169.79 812.01 167.2 817.34 193.68"/>
    <polyline class="webLines" points="822.23 232.17 788.01 261.91 777.79 247.95 804.01 201.02 817.34 193.68 850.62 185.51"/>
    <polyline class="webLines" points="746.23 258.66 726.91 294.91 728.59 321.86 773.79 302.35 796.01 282.01 788.01 261.91"/>
    <line class="webLines" x1="716.01" y1="200.1" x2="728.59" y2="229.12"/>
    <polyline class="webLines" points="802.39 162.14 785.59 164.03 780.59 162.14"/>
    <line class="webLines" x1="785.59" y1="169.79" x2="785.59" y2="164.03"/>
    <line class="webLines" x1="882.02" y1="138.94" x2="905.13" y2="148.42"/>
    <line class="webLines" x1="919.34" y1="158.28" x2="913.37" y2="166.91"/>
    <line class="webLines" x1="926.34" y1="174.92" x2="930.68" y2="164.03"/>
    <polyline class="webLines" points="920.03 123.88 969.22 136.79 974.68 177.97 962.23 180.44 953.79 160.04"/>
    <polyline class="webLines" points="973.01 51.15 994.68 62.96 1000.34 60.57"/>
    <polyline class="webLines" points="962.23 115.92 991.56 77.2 994.68 62.96"/>
    <polyline class="webLines" points="971.12 134.19 986.68 132.66 1000.34 138.29"/>
    <line class="webLines" x1="978.45" y1="94.51" x2="986.68" y2="132.66"/>
    <polyline class="webLines" points="1000.34 173.15 986.68 188.86 974.68 177.97"/>
    <line class="webLines" x1="700.01" y1="254.48" x2="732.67" y2="284.09"/>
    <line class="webLines" x1="822.23" y1="213.28" x2="814.68" y2="202.94"/>
    <line class="webLines" x1="491.6" y1="231.91" x2="499.56" y2="269.28"/>
    <polyline class="webLines" points="703.84 84.65 676.45 82.37 665.11 100.32"/>
    <line class="webLines" x1="644.9" y1="65.79" x2="676.45" y2="82.37"/>
    <polyline class="webLines" points="524.41 97.69 664.18 75.93 778.34 56.13 855.12 49.25 879.2 51.15 868.9 68.4 871.34 73.25 852.9 86.15 866.05 124.22 874.23 124.22 897.56 97.69"/>
    <polyline class="webLines" points="899.56 41.42 961.59 28.23 955.33 13.89 1000.34 4.45"/>
    <polyline class="webLines" points="1000.34 193.68 962.23 266.65 949.95 319.08 916.36 402.73 899.56 459.89 883.46 528.21 850.62 614.65 829.79 642.07 818.45 656.06"/>
    <polyline class="webLines" points="796.01 282.01 824.45 318.15 842.45 296.4"/>
    <polyline class="webLines" points="773.79 302.35 818.45 325.58 839.52 379.96 848.45 432.01 883.46 443.63 899.56 457.1"/>
    <line class="webLines" x1="906.7" y1="435.59" x2="883.46" y2="443.63"/>
    <line class="webLines" x1="834.55" y1="305.95" x2="817.34" y2="309.11"/>
    <polyline class="webLines" points="576.21 247.51 649.34 339.99 694.78 405.52 722.3 418.53 718.23 443.63 758.23 518.91 754.68 546.2"/>
    <polyline class="webLines" points="679.32 276.52 659.9 250.6 665.11 283.56"/>
    <polyline class="webLines" points="648.45 286.97 646.68 270.26 663.74 274.9 674.23 269.73"/>
    <polyline class="webLines" points="676.45 290.26 696.9 297.23 726.91 294.91 737.2 318.15"/>
    <polyline class="webLines" points="694.78 313.03 684.48 313.03 696.9 297.23"/>
    <polyline class="webLines" points="728.59 321.86 724.01 342.78 709.13 353.93 716.34 415.71 700.01 428.75"/>
    <polyline class="webLines" points="718.86 416.9 724.01 342.78 700.01 339.99"/>
    <polyline class="webLines" points="724.01 360.44 732.67 370.66 804.01 354.86 821.12 332.46 819.23 355.79"/>
    <line class="webLines" x1="722.3" y1="418.53" x2="732.67" y2="370.66"/>
    <polyline class="webLines" points="839.52 379.96 829.34 363.69 819.23 355.79 804.01 354.86"/>
    <polyline class="webLines" points="848.45 432.01 814.68 498 788.01 546.2 756.72 548.9"/>
    <line class="webLines" x1="780.59" y1="586.77" x2="788.01" y2="546.2"/>
    <polyline class="webLines" points="853.62 606.77 895.08 555.16 927.56 484.06 944.9 389.72 972.9 318.15 1000.34 309.11"/>
    <line class="webLines" x1="883.46" y1="528.21" x2="909.57" y2="523.44"/>
    <line class="webLines" x1="868.92" y1="566.48" x2="888.01" y2="561.67"/>
    <line class="webLines" x1="876.13" y1="578.75" x2="869.83" y2="564.08"/>
    <polyline class="webLines" points="1000.34 327.91 989.79 357.18 972.45 359.51 962.18 345.54"/>
    <polyline class="webLines" points="1000.34 370.66 974.23 382.75 974.23 429.22 993.79 465.93 1000.34 469.65"/>
    <polyline class="webLines" points="972.45 359.51 965.34 373.45 974.23 385.07"/>
    <line class="webLines" x1="953.79" y1="370.66" x2="965.34" y2="373.45"/>
    <polyline class="webLines" points="975.72 432.01 976.01 469.65 969.79 498.46 987.29 505.9"/>
    <polyline class="webLines" points="1000.34 509.62 987.29 505.9 987.29 594.2 1000.34 749.89"/>
    <line class="webLines" x1="896.52" y1="552.02" x2="969.79" y2="498.46"/>
    <polyline class="webLines" points="273.34 244.6 321.34 247.51 435.12 269.28 550.01 306.3 566.01 240.09 579.56 230.31 539.6 220.62 569.04 237.12"/>
    <polyline class="webLines" points="320.33 174.92 352.9 205.22 341.79 217.24 336.61 234.77 336.61 249.54"/>
    <line class="webLines" x1="371.85" y1="195.08" x2="349.9" y2="202.43"/>
    <polyline class="webLines" points="349.9 186.49 340.5 193.68 343.95 214.9"/>
    <line class="webLines" x1="316.44" y1="247.21" x2="336.61" y2="234.77"/>
    <line class="webLines" x1="323.6" y1="177.97" x2="300.9" y2="191.57"/>
    <polyline class="webLines" points="308.68 170.36 287.12 169.79 285.28 149.81"/>
    <polyline class="webLines" points="278.38 234.77 253.34 202.94 232.45 191.57 213.79 174.92 195.56 144.5 158.23 88.37 111.12 .61"/>
    <polyline class="webLines" points="273.34 135.85 239.56 103.47 212.9 77.91 171.12 .61"/>
    <line class="webLines" x1="198.74" y1="149.81" x2="239.56" y2="103.47"/>
    <polyline class="webLines" points=".34 416.9 75.56 346.5 194.75 331.16 239.56 293.52 270.68 249.54 312.01 170.27"/>
    <polyline class="webLines" points="49.79 .61 104.45 138.94 193.09 331.37"/>
    <polyline class="webLines" points="232.45 191.57 204.01 225.56 205.79 234.77 222.23 244.2 229.34 272.6 239.56 293.52"/>
    <line class="webLines" x1="219.15" y1="310.66" x2="229.34" y2="272.6"/>
    <line class="webLines" x1="264.22" y1="258.66" x2="239.56" y2="218.9"/>
    <polyline class="webLines" points="204.01 323.38 197.34 290.26 224.45 240.09 253.34 202.94 287.12 169.79"/>
    <line class="webLines" x1="146.47" y1="230.17" x2="197.34" y2="290.26"/>
    <polyline class="webLines" points="205.79 234.77 177.35 266.65 164.49 269.28"/>
    <polyline class="webLines" points="219.15 179.13 176.9 193.68 122.96 179.13"/>
    <line class="webLines" x1="204.01" y1="225.56" x2="183.04" y2="191.57"/>
    <polyline class="webLines" points="145.44 227.94 160.01 208.93 185.21 195.08"/>
    <line class="webLines" x1="156.18" y1="188.86" x2="140.52" y2="217.24"/>
    <line class="webLines" x1="165.33" y1="207.07" x2="149.47" y2="201.02"/>
    <polyline class="webLines" points="190.9 188.86 173.79 156.23 142.68 124.22 80.92 79.39"/>
    <line class="webLines" x1="106.03" y1="142.37" x2="121.44" y2="108.8"/>
    <line class="webLines" x1="165.33" y1="190.56" x2="109.82" y2="134.12"/>
    <line class="webLines" x1="442.66" y1="271.71" x2="421.33" y2="217.24"/>
    <line class="webLines" x1="442.66" y1="230.36" x2="428.19" y2="234.77"/>
    <line class="webLines" x1="434.23" y1="249.54" x2="438.49" y2="229.12"/>
    <polyline class="webLines" points="469.34 280.31 477.79 254.48 494.3 244.6"/>
    <line class="webLines" x1="490.02" y1="286.97" x2="501.32" y2="272.6"/>
    <line class="webLines" x1="515.34" y1="284.09" x2="510.34" y2="293.52"/>
    <polyline class="webLines" points="574.32 313.83 601.61 321.86 649.34 339.99"/>
    <line class="webLines" x1="596.45" y1="307.46" x2="621.04" y2="304.2"/>
    <line class="webLines" x1="626.15" y1="310.66" x2="601.61" y2="321.86"/>
    <polyline class="webLines" points="649.34 406.83 700.01 428.75 718.23 443.63"/>
    <line class="webLines" x1="706.83" y1="482.89" x2="696.9" y2="427.41"/>
    <line class="webLines" x1="75.56" y1="346.5" x2="113.73" y2="158.28"/>
    <line class="webLines" x1="644.01" y1="399.77" x2="671.58" y2="372.06"/>
    <line class="webLines" x1="212.9" y1="77.91" x2="174.39" y2="112.66"/>
    <line class="webLines" x1="158.23" y1="88.37" x2="142.68" y2="124.22"/>
    <line class="webLines" x1="173.79" y1="156.23" x2="189.81" y2="135.85"/>
    <line class="webLines" x1="905.79" y1="274.93" x2="930.68" y2="367.08"/>
    <line class="webLines" x1="953.79" y1="232.63" x2="962.23" y2="266.65"/>
    <line class="webLines" x1="947.35" y1="385.92" x2="923.45" y2="385.07"/>
    <line class="webLines" x1="972.9" y1="318.15" x2="949.95" y2="319.08"/>
    <line class="webLines" x1="824.45" y1="318.15" x2="824.04" y2="339.99"/>
    <line class="webLines" x1="962.23" y1="180.44" x2="943.12" y2="198.59"/>
    <line class="webLines" x1="986.68" y1="188.86" x2="985.63" y2="221.85"/>
    <line class="webLines" x1="758.23" y1="518.91" x2="804.01" y2="517.28"/>
    <polyline class="webLines" points="210.38 73.25 256.68 68.58 377.34 77.91 488.68 32.33"/>
    <line class="webLines" x1="411.12" y1=".61" x2="377.34" y2="77.91"/>
    <line class="webLines" x1="490.53" y1="149.45" x2="500.67" y2="155.02"/>
    <polygon class="webLines" points="383.87 62.96 390.35 72.58 387.11 82.82 381.25 88.37 368.87 88.37 362.91 76.79 366.69 66.52 383.87 62.96"/>
    <polygon class="webLines" points="387.97 53.6 398.75 69.14 394.23 86.15 384.9 95.28 362.91 95.74 352.9 75.93 360.04 59.4 387.97 53.6"/>
    <polygon class="webLines" points="391.77 44.88 407.73 65.47 402.71 89.88 387.17 104.23 355.39 105.03 340.5 75.06 351.86 50.65 391.77 44.88"/>
    <polygon class="webLines" points="396.13 34.92 418.15 61.2 411.12 94.88 390.35 112.76 348.54 113.5 329.52 74.21 343.23 41.42 396.13 34.92"/>
    <polygon class="webLines" points="400.08 25.88 427.97 57.18 419.67 99.18 393.46 121.1 341.21 122.55 317.08 73.25 334.73 32.33 400.08 25.88"/>
    <polygon class="webLines" points="404.36 16.09 438.68 52.8 429.71 104.23 396.75 129.89 333.71 131.82 305.08 72.32 325.77 22.75 404.36 16.09"/>
    <polygon class="webLines" points="408.09 7.55 448.68 48.37 438.68 108.74 400.13 138.94 326.88 140.26 292.64 71.36 317.08 13.45 408.09 7.55"/>
    <polyline class="webLines" points="414.01 .61 459.74 44.18 448.68 113.5 403.67 148.42 320.27 148.42 278.38 70.26 308.68 2.95 356.9 .61"/>
    <polyline class="webLines" points="428.9 .61 470.45 39.26 459.74 119.33 407.73 158.28 312.97 157.45 264.67 69.2 294.45 .61"/>
    <polyline class="webLines" points="446.65 .61 482.35 34.92 470.45 124.71 410.68 167.2 377.34 77.91 476.68 127.84"/>
    <line class="webLines" x1="491.31" y1="39.26" x2="483.32" y2="113.5"/>
    <line class="webLines" x1="299.55" y1="162.34" x2="262.55" y2="91.39"/>
    <line class="webLines" x1="410.68" y1="167.2" x2="421.33" y2="208.11"/>
</svg>