<?xml version="1.0" encoding="UTF-8"?><svg id="web" xmlns="http://www.w3.org/2000/svg" viewBox="0 0 1000.94 1000.85"><defs><style>.webLines{fill:none;opacity:.3;stroke:#7c7c7c;stroke-miterlimit:10;}</style></defs><polyline class="webLines" points="367.66 .61 290.05 4.36 248.11 85.71 275.44 161.08 308.77 170.36 412.11 210.79 550.11 306.3 644.11 399.77 759.44 552.37 821.44 661.12 1000.44 1000.61"/><polyline class="webLines" points="736.11 .61 752.77 15.6 768.77 .61 789.44 12.12 796.77 37.91 828.11 41.4 871.44 23.97 888.11 .61"/><polyline class="webLines" points="928.77 .61 953.44 9.33 967.44 41.4 928.77 51.15 878.11 37.21 871.44 23.97"/><polyline class="webLines" points="488.77 52.33 504.11 41.4 515.44 48.37"/><line class="webLines" x1="500.44" y1="63.01" x2="515.44" y2="58.13"/><line class="webLines" x1="497.44" y1="83.22" x2="515.44" y2="75.55"/><line class="webLines" x1="504.92" y1=".61" x2="504.11" y2="41.4"/><polyline class="webLines" points="531.41 34.92 519.44 21 519.44 .61"/><line class="webLines" x1="488.77" y1="52.33" x2="504.92" y2="25.88"/><line class="webLines" x1="519.44" y1="21" x2="504.92" y2="25.88"/><polyline class="webLines" points="515.44 53.94 548.77 60.57 571.44 48.37 599.44 41.4 616.77 18.39 616.77 .61"/><polyline class="webLines" points="456.77 .61 488.77 52.33 500.44 63.01 497.44 83.22 476.77 147.84 433.44 179.9 414.07 195.08 305.18 187.2 377.44 97.91 286.55 .61"/><polyline class="webLines" points="433.44 179.9 469.44 186.39 476.11 194.76 497.44 181.51 515.44 186.39 525.44 152.93 537.11 129.23 558.77 100.65 542.77 93.68 515.44 75.55 515.44 48.37 542.77 25.36 538.77 .61"/><polyline class="webLines" points="527.22 198.59 494.4 202.43 476.11 194.76"/><polyline class="webLines" points="481.18 134.12 496.44 118.77 490.63 149.45 472.77 157.81 469.44 186.39"/><polyline class="webLines" points="476.77 147.84 482.45 153.28 500.77 155.02 512.18 173.15 512.18 185.51"/><line class="webLines" x1="531.41" y1="86.15" x2="496.44" y2="118.77"/><polyline class="webLines" points="498.01 79.39 531.41 102.46 558.77 110.46 594.11 102.46 616.77 63.01 599.44 41.4"/><polyline class="webLines" points="553.31 58.13 549.44 83.22 558.77 100.65"/><line class="webLines" x1="534.77" y1="58.13" x2="534.77" y2="88.37"/><line class="webLines" x1="550.26" y1="77.91" x2="534.77" y2="77.91"/><line class="webLines" x1="551.1" y1="88.37" x2="539.32" y2="91.39"/><polyline class="webLines" points="507.94 108.05 522.33 118.77 531.41 110.46 528.31 100.32"/><polyline class="webLines" points="525.44 152.93 512.18 139.22 519.68 129 522.33 118.77 537.11 129.23"/><line class="webLines" x1="545.21" y1="118.54" x2="531.41" y2="110.46"/><polyline class="webLines" points="500.77 155.02 496.44 167.2 493.24 184.12 480.99 175.01 470.36 152.58"/><line class="webLines" x1="521.08" y1="148.42" x2="506.44" y2="164.03"/><polyline class="webLines" points="558.77 110.46 561.44 127.14 551.1 152.93 500.77 155.02 512.18 139.22"/><line class="webLines" x1="527.22" y1="198.59" x2="531.1" y2="191.57"/><polyline class="webLines" points="406.8 208.71 504.92 211.72 536.77 224.04 551.1 202.43 540.77 194.76 515.44 186.39"/><polyline class="webLines" points="452.5 238.75 536.77 224.04 579.66 247.51 604.99 251.22 649.88 271.67 677.44 293.05 688.99 304.2 700.11 325.12 700.11 339.99 671.22 334.41 649.44 339.99 652.11 287.94 610.77 261.45 596.55 307.46 561.44 317.57"/><polyline class="webLines" points="561.44 127.14 581.88 121.1 602.77 116.45 637.88 128.53 653.24 130.86"/><polyline class="webLines" points="594.11 102.46 602.77 116.45 594.11 135.85 587.21 155.02 576.3 162.87"/><line class="webLines" x1="646.77" y1="158.28" x2="657.88" y2="191.57"/><line class="webLines" x1="557.39" y1="138.94" x2="594.77" y2="159.21"/><polyline class="webLines" points="579.3 121.86 567.11 158.28 551.1 202.43 589.54 202.43"/><line class="webLines" x1="602.77" y1="116.45" x2="569.14" y2="160.04"/><line class="webLines" x1="586.3" y1="104.23" x2="581.88" y2="121.1"/><line class="webLines" x1="571.3" y1="107.62" x2="571.3" y2="124.22"/><line class="webLines" x1="517.96" y1="177.97" x2="559.97" y2="177.97"/><polyline class="webLines" points="582.91 165.47 591.22 177.97 589.54 202.43 579.66 230.31 579.66 247.51"/><line class="webLines" x1="618.66" y1="179.13" x2="619.32" y2="202.94"/><polyline class="webLines" points="638.79 185.51 612.11 209.4 607.34 252.29"/><polyline class="webLines" points="589.54 202.43 604.34 191.57 619.32 202.94"/><polyline class="webLines" points="586.3 211.57 599.2 210.25 612.11 209.4"/><polyline class="webLines" points="591.22 177.97 604.34 191.57 612.99 177.33 646.77 158.28 655.22 122.49 680.99 105.76 732.11 86.15 758.33 86.15 769.88 91.39 788.11 114.5 788.11 138.29 764.11 173.61 732.11 186.39 677.44 198.59 657.88 191.57 612.99 177.33 551.1 152.93"/><line class="webLines" x1="558.69" y1="202.43" x2="557.27" y2="227.04"/><line class="webLines" x1="494.4" y1="202.43" x2="504.92" y2="211.72"/><line class="webLines" x1="438.77" y1="208.93" x2="446.75" y2="234.77"/><line class="webLines" x1="433.44" y1="225.56" x2="435.22" y2="208.93"/><polyline class="webLines" points="612.96 23.44 638.79 34.92 644.99 51.15 636.99 58.13 616.77 63.01 558.77 100.65 571.3 107.62"/><polyline class="webLines" points="655.22 122.49 638.79 112.66 614.87 110.46 637.88 128.53 594.77 159.21 595.07 170.27"/><polyline class="webLines" points="623.06 97.69 629.22 93.68 621.44 79.39 636.99 58.13 642.77 88.37 640.55 102.46 632.11 104.23"/><polyline class="webLines" points="604.34 84.65 613.88 97.69 614.87 110.46"/><polyline class="webLines" points="646.77 117.44 623.06 97.69 613.88 97.69"/><polyline class="webLines" points="649 118.77 665.21 100.32 640.55 102.46"/><polyline class="webLines" points="636.99 58.13 644.99 65.79 623.06 82.37"/><polyline class="webLines" points="680.99 105.76 676.11 97.69 669.6 93.36"/><line class="webLines" x1="670.36" y1="112.66" x2="666.21" y2="100.32"/><polyline class="webLines" points="634.99 107.62 676.11 97.69 718.33 77.91 738.77 34.92 749.44 30.59 754.77 .61"/><polyline class="webLines" points="529.16 36.82 640.55 18.39 697.44 17.77 748.55 .61"/><polyline class="webLines" points="735.68 41.42 712.55 48.37 694.88 48.37 682.77 .61"/><polyline class="webLines" points="644.99 51.15 676.55 41.4 692.47 38.86"/><polyline class="webLines" points="634.99 19.31 667.66 30.59 697.44 17.77"/><line class="webLines" x1="644.99" y1="51.15" x2="667.66" y2="30.59"/><polyline class="webLines" points="718.45 91.39 718.33 77.91 735.68 86.15"/><polyline class="webLines" points="749.86 28.23 749.86 44.88 783.66 59.4 788.11 79.39 788.11 114.5"/><polyline class="webLines" points="769.88 91.39 777.88 70.25 775.66 63.01 740.99 70.25 724.11 80.65"/><polyline class="webLines" points="760.03 49.25 741.44 54.12 736.11 63.01 725.91 61.97"/><line class="webLines" x1="730.49" y1="52.33" x2="740.23" y2="56.13"/><line class="webLines" x1="749.86" y1="68.4" x2="736.11" y2="63.01"/><line class="webLines" x1="780.69" y1="58.13" x2="775.66" y2="63.01"/><polyline class="webLines" points="777.88 70.25 819.66 60.57 824.99 70.25 796.11 117.44 772.09 94.18"/><polyline class="webLines" points="758.33 86.15 774.42 79.39 788.11 79.39 798.54 88.37 788.11 132.74"/><polyline class="webLines" points="828.11 41.4 817.44 65.7 822.77 77.91 838.77 75.55 848.11 77.91 852.99 89 824.99 132.66 812.11 142.37 804.11 138.94 796.11 117.44"/><polyline class="webLines" points="860.11 .61 854.97 30.59 857.54 54.12 845.44 62.96 824.99 70.25"/><polyline class="webLines" points="878.11 37.21 880.55 65.7 892.99 77.91 931.22 73.25 950.33 77.2 974.77 49.25 967.44 41.4"/><polyline class="webLines" points="928.77 51.15 950.33 77.2 953.88 107.56 923.22 114.5 899.66 104.23 890.98 75.93"/><line class="webLines" x1="857.54" y1="54.12" x2="857.54" y2="79.39"/><polyline class="webLines" points="850.72 83.84 869.93 70.25 883.56 68.65"/><polyline class="webLines" points="899.66 104.23 893.44 124.22 879.12 118.77"/><polyline class="webLines" points="824.99 132.66 835.22 148.42 852.99 144.5 867.14 135.85 866.15 124.22 849.88 135.48 829.88 150.38 812.11 167.2"/><polyline class="webLines" points="890.98 123.88 880.11 142.37 852.99 144.5"/><polyline class="webLines" points="894.41 121.1 923.22 114.5 919.44 125.98 908.81 138.94"/><polyline class="webLines" points="899.66 106.06 908.81 121.1 908.81 144.5 890.98 164.03 864.55 164.03 867.14 152.93 850.72 145"/><polyline class="webLines" points="868.98 143.24 860.11 177.97 822.33 213.28 822.33 232.17 840.11 297.23 905.88 274.93 953.88 232.63 943.22 198.59 926.44 174.92 908.81 164.03 890.98 164.03"/><polyline class="webLines" points="908.81 144.5 919.44 158.28 930.77 164.03 949.44 164.03 971.22 134.19 962.33 115.92 953.88 107.56"/><polyline class="webLines" points="788.11 138.29 789.19 151.87 805.84 158.28"/><polyline class="webLines" points="761.98 174.92 802.33 167.2 812.11 142.37 794.65 154.22"/><polyline class="webLines" points="683.5 197.24 700.11 202.94 720.99 200.1 764.11 173.61 804.11 138.94"/><polyline class="webLines" points="663.77 193.68 674.33 213.28 655.22 263.77 638.85 266.65"/><polyline class="webLines" points="669.6 286.97 700.11 254.48 694.88 217.24 677.44 198.59 674.33 213.28"/><polyline class="webLines" points="700.11 202.94 694.88 217.24 731.66 230.17 746.33 258.66 777.88 247.95 814.77 202.94 812.11 198.59 804.11 196.85 802.33 167.2"/><polyline class="webLines" points="802.48 169.79 812.11 167.2 817.44 193.68"/><polyline class="webLines" points="822.33 232.17 788.11 261.91 777.88 247.95 804.11 201.02 817.44 193.68 852.99 184.95"/><polyline class="webLines" points="746.33 258.66 727 294.91 728.69 321.86 773.88 302.35 796.11 282.01 788.11 261.91"/><line class="webLines" x1="716.11" y1="200.1" x2="728.69" y2="229.12"/><polyline class="webLines" points="804.4 161.93 785.68 164.03 779.81 160"/><line class="webLines" x1="785.68" y1="169.79" x2="785.68" y2="164.03"/><line class="webLines" x1="882.12" y1="138.94" x2="905.23" y2="148.42"/><line class="webLines" x1="919.44" y1="158.28" x2="913.47" y2="166.91"/><line class="webLines" x1="926.44" y1="174.92" x2="930.77" y2="164.03"/><polyline class="webLines" points="920.13 123.88 969.32 136.79 974.77 177.97 962.33 180.44 949.44 164.03"/><polyline class="webLines" points="973.11 51.15 994.77 62.96 1000.44 60.57"/><polyline class="webLines" points="962.33 115.92 991.66 77.2 994.77 62.96"/><polyline class="webLines" points="971.22 134.19 986.77 132.66 1000.44 138.29"/><line class="webLines" x1="978.55" y1="94.51" x2="986.77" y2="132.66"/><polyline class="webLines" points="1000.44 173.15 986.77 188.86 974.77 177.97"/><line class="webLines" x1="700.11" y1="254.48" x2="732.77" y2="284.09"/><line class="webLines" x1="822.33" y1="213.28" x2="814.77" y2="202.94"/><line class="webLines" x1="491.69" y1="231.91" x2="501.42" y2="272.6"/><polyline class="webLines" points="703.94 84.65 676.55 82.37 665.21 100.32"/><line class="webLines" x1="644.99" y1="65.79" x2="676.55" y2="82.37"/><polyline class="webLines" points="524.5 97.69 664.28 75.93 778.43 56.13 855.22 49.25 879.3 51.15 868.99 68.4 871.44 73.25 852.99 86.15 866.15 124.22 879.12 118.77 897.65 97.69"/><polyline class="webLines" points="897.65 42.59 961.69 28.23 955.43 13.89 1000.44 4.45"/><polyline class="webLines" points="1000.44 193.68 962.33 266.65 950.05 319.08 916.46 402.73 899.66 459.89 883.56 528.21 850.72 614.65 829.88 642.07 818.55 656.06"/><polyline class="webLines" points="796.11 282.01 824.55 318.15 840.11 297.23"/><polyline class="webLines" points="773.88 302.35 824.55 318.15 839.62 379.96 848.55 432.01 883.56 443.63 899.66 457.1"/><line class="webLines" x1="906.8" y1="435.59" x2="883.56" y2="443.63"/><line class="webLines" x1="835.65" y1="303.22" x2="817.44" y2="309.11"/><polyline class="webLines" points="579.66 247.51 649.44 339.99 694.88 405.52 722.4 418.53 718.33 443.63 758.33 518.91 754.77 546.2"/><polyline class="webLines" points="679.42 276.52 655.22 263.77 665.21 283.56"/><polyline class="webLines" points="652.11 287.94 646.77 270.26 691.07 264.1 694.88 217.24"/><polyline class="webLines" points="688.99 304.2 691.07 264.1 727 294.91 737.29 318.15"/><polyline class="webLines" points="728.69 321.86 700.11 325.12 726.01 294.06"/><polyline class="webLines" points="728.69 321.86 724.11 342.78 709.23 353.93 716.44 415.71 700.11 428.75"/><polyline class="webLines" points="718.96 416.9 724.11 342.78 700.11 339.99"/><polyline class="webLines" points="723.32 359.51 732.77 370.66 804.11 354.86 824.13 339.99 819.33 355.79"/><line class="webLines" x1="722.4" y1="418.53" x2="732.77" y2="370.66"/><polyline class="webLines" points="839.62 379.96 829.44 365.84 819.33 355.79 804.11 354.86"/><polyline class="webLines" points="848.55 432.01 814.77 498 788.11 546.2 756.81 548.9"/><line class="webLines" x1="780.69" y1="586.77" x2="788.11" y2="546.2"/><polyline class="webLines" points="850.72 614.65 895.18 555.16 927.66 484.06 944.99 389.72 972.99 318.15 1000.44 309.11"/><line class="webLines" x1="883.56" y1="528.21" x2="909.67" y2="523.44"/><line class="webLines" x1="871.62" y1="559.62" x2="895.18" y2="555.16"/><line class="webLines" x1="876.23" y1="578.75" x2="869.93" y2="564.08"/><polyline class="webLines" points="1000.44 327.91 989.88 357.18 972.55 359.51 962.28 345.54"/><polyline class="webLines" points="1000.44 370.66 974.33 382.75 974.33 429.22 993.88 465.93 1000.44 469.65"/><polyline class="webLines" points="972.55 359.51 965.44 373.45 974.33 382.75"/><line class="webLines" x1="952.77" y1="370.39" x2="965.44" y2="373.45"/><polyline class="webLines" points="975.81 432.01 976.11 469.65 969.88 498.46 987.38 505.9"/><polyline class="webLines" points="1000.44 509.62 987.38 505.9 987.38 594.2 1000.44 749.89"/><line class="webLines" x1="896.61" y1="552.02" x2="969.88" y2="498.46"/><polyline class="webLines" points="273.44 244.6 321.44 247.51 435.22 269.28 550.11 306.3 566.11 240.09 579.66 230.31 536.77 224.04 569.14 237.12"/><polyline class="webLines" points="320.43 174.92 352.99 205.22 341.88 217.24 336.71 234.77 336.71 249.54"/><line class="webLines" x1="371.95" y1="195.08" x2="352.99" y2="205.22"/><polyline class="webLines" points="350 186.49 340.6 193.68 341.88 217.24"/><line class="webLines" x1="316.54" y1="247.21" x2="336.71" y2="234.77"/><line class="webLines" x1="323.7" y1="177.97" x2="301.44" y2="193.96"/><line class="webLines" x1="301.44" y1="193.96" x2="275.44" y2="161.08"/><polyline class="webLines" points="278.48 234.77 253.44 202.94 232.55 191.57 213.88 174.92 195.66 144.5 158.33 88.37 111.22 .61"/><polyline class="webLines" points="275.44 161.08 239.66 103.47 212.99 77.91 171.22 .61"/><line class="webLines" x1="193.18" y1="140.78" x2="256.77" y2="88.58"/><polyline class="webLines" points=".44 416.9 75.66 346.5 194.85 331.16 239.66 293.52 270.77 249.54 305.18 187.2"/><polyline class="webLines" points="49.88 .61 104.55 138.94 193.18 331.37 .44 684.95"/><polyline class="webLines" points="232.55 191.57 204.11 225.56 205.88 234.77 222.33 244.2 229.44 272.6 239.66 293.52"/><line class="webLines" x1="219.25" y1="310.66" x2="229.44" y2="272.6"/><line class="webLines" x1="264.32" y1="258.66" x2="239.66" y2="220.66"/><polyline class="webLines" points="204.11 323.38 197.44 290.26 224.55 240.09 253.44 202.94 275.44 161.08"/><line class="webLines" x1="146.57" y1="230.17" x2="197.44" y2="290.26"/><polyline class="webLines" points="205.88 234.77 177.45 266.65 164.59 269.28"/><polyline class="webLines" points="219.25 179.13 176.99 193.68 123.06 179.13"/><line class="webLines" x1="204.11" y1="225.56" x2="176.99" y2="193.68"/><polyline class="webLines" points="145.54 227.94 160.11 208.93 176.99 193.68"/><line class="webLines" x1="156.27" y1="188.86" x2="140.62" y2="217.24"/><line class="webLines" x1="160.11" y1="208.93" x2="149.56" y2="201.02"/><polyline class="webLines" points="190.99 188.86 173.88 156.23 142.77 124.22 81.01 79.39"/><line class="webLines" x1="106.13" y1="142.37" x2="121.53" y2="108.8"/><line class="webLines" x1="165.42" y1="190.56" x2="109.91" y2="134.12"/><line class="webLines" x1="442.76" y1="271.71" x2="421.43" y2="217.24"/><line class="webLines" x1="438.59" y1="229.12" x2="428.29" y2="234.77"/><line class="webLines" x1="434.33" y1="249.54" x2="438.59" y2="229.12"/><polyline class="webLines" points="469.44 280.31 477.88 254.48 494.4 244.6"/><line class="webLines" x1="490.12" y1="286.97" x2="501.42" y2="272.6"/><line class="webLines" x1="518.02" y1="284.09" x2="510.43" y2="293.52"/><polyline class="webLines" points="574.42 313.83 601.71 321.86 649.44 339.99"/><line class="webLines" x1="596.55" y1="307.46" x2="622.32" y2="304.05"/><line class="webLines" x1="628.16" y1="311.79" x2="601.71" y2="321.86"/><polyline class="webLines" points="649.44 406.83 700.11 428.75 718.33 443.63"/><line class="webLines" x1="706.92" y1="482.89" x2="696.99" y2="427.41"/><line class="webLines" x1="75.66" y1="346.5" x2="113.83" y2="158.28"/><line class="webLines" x1="644.11" y1="399.77" x2="671.68" y2="372.06"/><line class="webLines" x1="212.99" y1="77.91" x2="174.48" y2="112.66"/><line class="webLines" x1="158.33" y1="88.37" x2="142.77" y2="124.22"/><line class="webLines" x1="173.88" y1="156.23" x2="189.91" y2="135.85"/><line class="webLines" x1="905.88" y1="274.93" x2="930.77" y2="367.08"/><line class="webLines" x1="953.88" y1="232.63" x2="962.33" y2="266.65"/><line class="webLines" x1="944.99" y1="389.72" x2="923.55" y2="385.07"/><line class="webLines" x1="972.99" y1="318.15" x2="950.05" y2="319.08"/><line class="webLines" x1="824.55" y1="318.15" x2="824.13" y2="339.99"/><line class="webLines" x1="962.33" y1="180.44" x2="943.22" y2="198.59"/><line class="webLines" x1="986.77" y1="188.86" x2="985.73" y2="221.85"/><line class="webLines" x1="758.33" y1="518.91" x2="804.11" y2="517.28"/><polyline class="webLines" points="210.48 73.25 256.77 88.58 377.44 97.91 488.77 52.33"/><line class="webLines" x1="419.96" y1=".61" x2="377.44" y2="97.91"/><line class="webLines" x1="490.63" y1="149.45" x2="500.77" y2="155.02"/><polygon class="webLines" points="383.97 82.96 390.45 92.58 387.21 102.82 381.35 108.37 368.97 108.37 363.01 96.79 366.79 86.52 383.97 82.96"/><polygon class="webLines" points="388.06 73.6 398.85 89.14 394.33 106.15 384.99 115.28 363.01 115.74 352.99 95.93 360.14 79.4 388.06 73.6"/><polygon class="webLines" points="391.87 64.88 407.82 85.47 402.81 109.88 387.26 124.23 355.49 125.03 340.6 95.06 351.95 70.65 391.87 64.88"/><polygon class="webLines" points="396.22 54.92 418.25 81.2 411.22 114.88 390.45 132.76 348.63 133.5 329.62 94.21 343.33 61.42 396.22 54.92"/><polygon class="webLines" points="400.17 45.88 428.07 77.18 419.76 119.18 393.56 141.1 341.31 142.55 317.17 93.25 334.83 52.33 400.17 45.88"/><polygon class="webLines" points="404.46 36.09 438.77 72.8 429.8 124.23 396.85 149.89 333.81 151.82 305.18 92.32 325.87 42.75 404.46 36.09"/><polygon class="webLines" points="408.18 27.55 448.77 68.37 438.77 128.74 400.22 158.94 326.97 160.26 292.74 91.36 317.17 33.45 408.18 27.55"/><polyline class="webLines" points="412.11 18.72 459.84 64.18 448.77 133.5 403.76 168.42 320.37 168.42 278.48 90.26 308.77 22.95 412.11 18.72"/><polyline class="webLines" points="416.1 8.62 470.55 59.26 459.84 139.33 407.82 178.28 313.07 177.45 264.77 89.2 301.44 14.28 416.1 8.62"/><polyline class="webLines" points="424.11 .61 482.45 54.92 470.55 144.71 410.77 187.2 377.44 97.91 476.77 147.84"/><line class="webLines" x1="493.6" y1="56.75" x2="487.38" y2="114.68"/><line class="webLines" x1="305.18" y1="187.2" x2="256.77" y2="88.58"/><line class="webLines" x1="410.77" y1="187.2" x2="419.96" y2="209.12"/></svg>