<?xml version="1.0" encoding="UTF-8"?>
<svg class="circle" xmlns="http://www.w3.org/2000/svg" viewBox="0 0 1920 1080">
    <defs>
        <style>
            .bg{
                animation: rt 2s;
                animation-timing-function: cubic-bezier(.4,0,.6,1);
                opacity: 0;
                transform:rotate(180deg);
                transform-origin: 50% 50%;
            }
            @keyframes rt {
                0%{transform:rotate(180deg);opacity:0;}
                25%{transform:rotate(415deg);opacity:1;}
                90%{transform:rotate(380deg);opacity:1;}
                100%{transform:rotate(510deg);opacity:0;}
            }
            .success-kid {
                animation: scaleInOut 2s;
                opacity: 0;
                transform: scale(0);
                transform-origin: center center;
            }
            @keyframes scaleInOut {
                0%{transform:scale(0);opacity:0;}
                25%{transform:scale(1);opacity:1;}
                90%{transform:scale(1);opacity:1;}
                100%{transform:scale(0);opacity:0;}
            }
            .shoulder {
                animation: shoulderMove 1.5s;
                transform-origin: center center;
                transform: rotate(0) translateX(0) translateY(0);
            }
            @keyframes shoulderMove {
                0%{transform:rotate(-25deg) translateX(-15px) translateY(-42px)}
                30%{transform:rotate(-25deg) translateX(-15px) translateY(-42px)}
                55%{transform:rotate(0deg) translateX(0) translateY(0)}
                100%{transform:rotate(0deg) translateX(0) translateY(0)}
            }
            .arm {
                animation: armMove 1.5s;
                transform-origin: center center;
                transform: rotate(0) translateX(0) translateY(0);
            }
            @keyframes armMove {
                0%{transform: rotate(5deg) translateX(80px) translateY(0)}
                30%{transform: rotate(5deg) translateX(80px) translateY(0)}
                55%{transform:rotate(0deg) translateX(0) translateY(0)}
                100%{transform:rotate(0deg) translateX(0) translateY(0)}
            }
            .head {
                animation: headMove 1.5s;
                transform-origin: center center;
                transform: rotate(0deg) translateX(0) translateY(0);
            }
            @keyframes headMove {
                0%{transform: rotate(5deg) translateX(-4px) translateY(4px)}
                30%{transform: rotate(5deg) translateX(-4px) translateY(4px)}
                55%{transform:rotate(0deg) translateX(0) translateY(0)}
                100%{transform:rotate(0deg) translateX(0) translateY(0)}
            }
        </style>
    </defs>
    <g class="bg">
        <path d="M960-1961c-1159.46,0-2134.6,789.02-2417.89,1859.4L960,540V-1961Z" style="fill:#bcb3f2;"/>
        <path d="M3377.89,1181.6c54.19-204.76,83.11-419.8,83.11-641.6,0-465.84-127.38-901.91-349.18-1275.34L960,540l2417.89,641.6Z" style="fill:#534c90;"/>
        <path d="M3111.82-735.34c-435.86-733.82-1236.39-1225.66-2151.82-1225.66V540L3111.82-735.34Z" style="fill:#537ca8;"/>
        <path d="M-1457.89-101.6c-54.19,204.76-83.11,419.8-83.11,641.6,0,465.84,127.38,901.91,349.18,1275.34L960,540-1457.89-101.6Z" style="fill:#557aa7;"/>
        <path d="M960,540V3041c1159.46,0,2134.6-789.02,2417.89-1859.4L960,540Z" style="fill:#2d266a;"/>
        <path d="M-1191.82,1815.34C-755.96,2549.16,44.57,3041,960,3041V540L-1191.82,1815.34Z" style="fill:#4d4c8e;"/>
    </g>
    <g class="success-kid">
        <g class="body">
            <path d="M1019.84,524.82c17.53,5.98,37.06,12.46,50.02,33.07,12.96,20.61,12.96,34.73,16.95,50.11s26.09,103.7,26.09,103.7h-224.61l9.22-89.7c1.62-8.68,3.61-18.61-.5-31.12-1.41-5.98,.5-7.91,3.49-6.98,19.19,5.98,42.38,13.46,82.18-1.83,29.21-11.22,37.56-34.24,37.14-57.25Z" style="fill: #daddd9;"/>
            <path d="M1026.97,534.37c21.21,7.4,27.07,22.8,31.89,30.86-.85-.24-2.06-1.82-2.72-2.24,.67,6.23,3.1,10.68,4.51,12.51,.08,.83,.91,2.26,.58,2.67s-7.53-.56-9.39-3.67c-2.49-4.15-9.72-8.81-15.79-20.44-3.98-7.63-3.07-12.21-9.08-19.69Z" style="fill: #d1d1d1;"/>
            <path d="M1051.77,546.3c2.56,5.23,4.61,3.74,5.42,5.11,.93,1.57,4.11,3.24,5.67,4.61s6.36,6.67,7.6,9.29,1.31,5.44,1.06,7.52c-1-1.29-2.49-1.66-1.87,.27s1.56,5.48,2.43,7.35c-4.8-6.17-8.33-13.09-11.22-18.01-5.67-9.66-9.85-11.84-9.1-16.14Z" style="fill: #d1d1d1;"/>
            <path d="M1033.01,572.82c.24,2.16-1.03,5.17-2.01,6.92-1.41,2.51,1.57,4.26-4.53,7.43-1.31,.68-2.18-.69-3.18-.93s-2.62-1.33-1.45-3.84c1.31-2.8,.57-5.88,1.55-8.97,.91-2.86,1.95-5.5,1.76-7.75,2.74,.31,7.42,3.22,7.85,7.14Z" style="fill: #d1d1d1;"/>
            <path d="M1023.29,607.68c1.25,2.24,2.21,.89,3.95,2.49,3.72,3.43,.6,5.17,2.91,7.29-2.03-.66-3.68-2.61-5.05-4.89-.95-1.58-2.24-2.21-1.81-4.89Z" style="fill: #d1d1d1;"/>
            <path d="M1030.99,691.36c-6.65-6.39-19.58-9.44-22.31-14.58-2.2-4.14-7.66-9.17-11.22-10.47-2.76-1.01-11.72-8.23-10.59-10.47s10.1,6.36,12.96,6.98c2.87,.62,15.95,6.98,24.68,12.21,8.73,5.23,19.32,4.24,33.28,11.47,6.83,3.54,18.57,4.74,30.41,9.35,9.7,3.78,16.39,12.49,18.49,15.52h2.95s-6.98-15.12-8.39-24.76c-1.41-9.64-5.48-22.52-6.56-26.09s-3.06-12.23-5.82-18.95c-2.78-6.79-3.32-16.37-4.49-20.36-1.16-3.99-2.33-4.4-4.07-5.4-1.74-1,.04-4.34-8-6.12-5.47-1.21-8.16-5.11-11.4-8.76-3.39-3.81-7.85-6.98-11.34-6.48-3.49,.5-2.06,7.7-.37,8.73,2.48,1.52,3.28,3.24,2.62,7.81-.29,2,.48,4.49,.59,6.94,.14,3.16-1.08,5.54,.12,8.53,1.96,4.86,.27,8.26,.77,12.92,.5,4.65,3.88,7.14,7.71,12.79,3.82,5.65,1.42,7.01,2.34,9.5,.91,2.49,1.77,6.66-.89,5.58-2.66-1.08-4.53-5.95-9.27-9.69s-11.82-4.87-16.95-10.31c-7.86-8.33-19.56-26.64-23.05-31.05-3.49-4.4-10.04-6.16-12.53-6.91s-5.52-2.56-5.27-3.8c.25-1.25,2.48,.56,7.39-2.21,1.45-.82,1.63-3.64,1.5-7.14-.42-10.91-3.05-5.75-3.1-15.75,0-1.63,.33-1.97,.58-1.81,.25,.17,.55,1.58,1.3,2,0-1-.5-2.08-.5-2.08l.06-.83c1.45-.36,1.85,1.43,3.43,1.68-.75-1.25-.51-1.24-.75-1.65-.24-.42,.55-1.17,.79-.67,.25,.5,1.01,.91,2.01,2.07,.32-.7,.41-1.36,.16-2.24,.69-.08,1.31-.16,2.84,.14-.5-1.58-.77-1.64-1.56-2.95-.48-.8,0-1.65,.22-1.93,.8,.72,1.28,1.46,2.7,2.04-.58-1-.91-1.9-1.83-3.15,0,0,.66-.9,1.2-1.59,.71,.87,1.37,2.59,2.7,3.58-.42-2.16-.9-3.46-1.98-4.46,.25-.27,.5-.63,.8-1.15,.14,1.17,.77,1.53,1.85,2.78-.75-2.36-.17-3.41-.33-6.32-8.56,13.63-26.34,22.19-47.28,27.17-20.94,4.99-35.32,5.98-60.91-2.41-2.34-1.56-4.66-2.92-5.81-3.38-.94-.38-2,.1-2.33,1.06-4.91,13.88-7.48,30.12-9.12,35.36-2.85,9.09-6.48,30-4.49,41.47,2.12,12.18-18.21,29.29-15.42,48.23h219.3c-2.15-1.83-7.19-5.66-14.53-8.41-9.97-3.74-36.44-5.04-43.25-11.59Z" style="fill: #caccca;"/>
            <path d="M1139.08,708.46c0-1.99-1.99-5.11-3.86-8.35-1.87-3.24-3.99-6.11-5.73-7.23-1.75-1.12-6.86-3.12-7.85-4.61-1-1.5-5.48-13.46-4.49-15.33,1-1.87,3.12-6.11,1-8.72-2.12-2.62-4.11-9.35-4.36-12.59-.25-3.24-1.5-8.48-.87-10.26,.62-1.79-.62-7.94-3.27-7.06-2.65,.87-4.83-4.61-5.83-4.61s-6.11-6.48-7.1-8.1c-1-1.62,.25-3.12,.75-5.48s-2.49-3.24-2.99-5.36c-.5-2.12-.5-2.49-1-4.24-.5-1.74-2.74-.5-3.61-.5s-.5-1.75,0-3.49c.5-1.75,1-6.11,.87-8.97-.75,1.26-1.5,2.37-3.99,4.61,.87-2.12,2.62-7.85,1.5-10.22-1.12-2.37-2.87-3.86-5.17-4.49,.45-.63,1.31-2.17,1.99-3.41-.74-1.01-1.55-2.02-2.43-3.01-.82,.54-1.74,1.06-2.48,1.25,.55-.8,.94-1.73,1.22-2.61-1.54-1.59-3.28-3.15-5.25-4.64,3.91,6.56,3.16,8.06,5.57,18.03,2.41,9.97,3.57,19.94,5.48,27.67,1.91,7.73,3.57,19.19,6.98,29.25,3.41,10.05,16.87,65.73,16.87,65.73h28.18c-.03-.11-.07-.22-.1-.33-1.5-5.69,0-.91,0-2.91Z" style="fill: #1f3f1a;"/>
            <path d="M1082.68,577.1c-.4-.46-.95-1.05-1.38-1.5-.28,.87-.75,1.99-1.3,2.78,.74-.19,1.87-.75,2.68-1.28Z" style="fill: #096d00;"/>
            <path d="M1136.76,677.13c-4.82-12.05-14.86-33.21-19.76-40.78-5.08-7.84-14.03-18.79-19.27-27.02-4.08-6.41-4.69-18.41-12.78-29.44-.67,1.24-1.61,2.95-2.06,3.58,2.31,.62,4.12,2.12,5.24,4.49,1.12,2.37-.64,8.22-1.51,10.34,2.49-2.24,3.31-3.3,4.06-4.56,.12,2.87-.43,7.03-.93,8.77-.5,1.74-.81,3.58,.06,3.58s3.11-1.22,3.61,.53c.5,1.75,.44,2.03,.93,4.14,.5,2.12,3.49,2.95,2.99,5.32s-1.74,3.93-.74,5.55c1,1.62,6.15,8.16,7.15,8.16s3.16,5.5,5.81,4.63c2.65-.87,3.88,5.09,3.26,6.88-.62,1.79,.6,7.04,.85,10.28,.25,3.24,2.25,10.04,4.37,12.66,2.12,2.62-.05,6.81-1.04,8.68-1,1.87,3.56,13.91,4.56,15.41,1,1.5,6.09,3.51,7.84,4.64,1.74,1.12,3.81,3.9,5.68,7.14,1.87,3.24,3.93,6.2,3.93,8.2,0,1.7-1.62-2.76-.05,2.9,.03,.11,.11,.38,.15,.49h9.12s-6.65-22.52-11.47-34.57Z" style="fill: #096d00;"/>
        </g>
        <g class="shoulder">
            <path d="M854.81,559.05c-3.12,4.29-.08,9.6,2.24,11.37s-1.8,4.75-4.18,6.08-.97,7.15,1.56,9.72,.79,3.32-5.28,4.32-16.37,7.89-21.44,8.23-15.95,5.9-15.54,10.47,2.06,25.79-1.66,34.24c-8.39,19.03-27.97,41.06-27.97,41.06,0,0-6.5-14.55-4.89-23.19,.84-4.5,6.11-23.27,9.85-32.66s11.47-28.83,19.94-40.38c8.48-11.55,17.45-17.87,19.36-20.11s.33-2.41,2.33-3.99,3.24-2.08,5.15-4.07,6.48-6.15,9.47-7.64,11.21-4.28,13.96-4.6c4.1,0,10.27-.92,13.76,3.15-7.81,.17-14.83,5.51-16.66,8.02Z" style="fill: #09a200;"/>
            <path d="M897.93,575.49l-10.52-.89c-.26,.13-.49,.24-.75,.37-3.35,7.46-2.07,3.87-2.26,6.11-.23,2.6-2,4.06-5.4,8.02-8.71,11.03-13.47,8.08-23.31,13.5-1.79,1.81-10.57,16.89-9.16,19.47,1.41,2.58,4.46,8.34,.71,11.46-3.74,3.12-7.77,11.72-8.54,15.91-.77,4.19-3.36,10.88-2.55,13.3,.81,2.42-1.87,10.03-6.07,8.52-4.21-1.5-8.35,5.37-9.97,5.23-1.62-.14-10.75,7.69-12.55,9.66-1.8,1.98,.03,4.18,.57,7.34,.54,3.16-4.42,3.83-5.47,6.53-2.13,4.7-9.03,7.78-8.42,10.13,.13,.5,1.15,1.83,1.41,3.75,.52,1.26,.86,2.87,1.58,4.04,1.85,3.03,6.13,9.61,8.93,11.8,5.76,4.51,19.16,6.65,29.44,4.52,18.21-3.78,24.99-9.52,37.43-23.22,4.51-4.97,11.93-18.87,13.38-24.58,1.47-5.79,5.48-19.75,2.2-35.49-2.2-10.58-1.5-16.39,2.31-33.05,4.23-18.49,7.93-27.93,7.02-42.25,0-.05,0-.12,0-.17Z" style="fill: #1f3f1a;"/>
            <path d="M796.08,710.31c-.6-2.33,6.18-5.39,8.27-10.06,1.03-2.68,5.9-3.35,5.37-6.48-.53-3.14-2.34-5.32-.56-7.29,1.77-1.96,10.74-9.73,12.33-9.59,1.59,.14,5.66-6.69,9.8-5.2,4.13,1.49,6.76-6.06,5.97-8.46-.8-2.4,1.74-9.04,2.5-13.21,.76-4.16,4.71-12.7,8.39-15.8,3.68-3.1,.68-8.83-.7-11.39-1.38-2.56,7.23-17.54,8.99-19.34,9.66-5.38,14.34-2.45,22.9-13.4,3.35-3.94,6.97-7.49,7.2-10.08,.19-2.22-2.95,3.45,.34-3.96,.25-.13,.48-.24,.74-.37l10.34,.89c-.11-4.03,4.24-15.07-3.4-17.57-3.7-1.21-8.97-5.28-12.71-6.35-3.74-1.06-7.97-.72-10.92-2.26-4.83-2.53-11.49,2.84-13.19,3.17-2,.39-3.26,2.38-4.46,2.6-2.37,.44-3.02-.7-3.96-.59-1.31,.16-1.17,1.69-1.96,2.74-1.3,1.73-3.91,.87-5.08,2.7,4.24,.2,3.77,3.18,7.1,4.03-3.33,.22-8.61-3.55-11.72-2.68,2.21,1.28,4.47,1.48,6.48,3.02,2.02,1.55,5.03,1.94,7.04,3.49,1.39,1.07,3.28,2.12,4.8,3.74-1.81,0-5.77-2.81-8.79-4.21-3.16-1.46-6.04-3.03-8.35-3.23,1.7,1.8,4.11,2.17,6.31,3.74-2.34,.3-4.75,.13-7.03-.51,1.21,1.62,3.93,1.92,3.72,3.27-.32,2.02,.92,2.46,2.67,3.12,1.25,.47,2.39,1.85,3.58,2.46-1.6-.41-1.86-.37-3.46-.78-.96-.24-3.44-.6-4.86,.06,1.02,1.1,3.48,1.08,4.39,1.22,1.96,.3,3.8,1.18,4.71,2.09-2.38,.91-4.55-1.03-5.73-.28,1.28,1.5,4.83,1.71,8.57,7.55-7.66-.32-9.37,1.08-12.71,1.47-3.71,.44-5.6,3.19-8.26,4.75-1.29,.76-2.14,1.99-3.39,1.17-.57-.38-.78-1.75-3.15-1.57-2.36,.18-4.92,.48-6.36-1.4-.31-.41,1.5-.72,2.8-1.28-.41-.22-2.15-.62-3.93,.37-2.15,1.2-4.33,3.02-5.49,5.18-1.16,2.17-1.73,4.02-2.42,6.38-2.71,9.19-.53,9.15-.53,15.11,0,3.02-.92,2.52-1.81,4.52-.72,1.62-1.44,3.74-.97,5.8,3.52-4.99,1.63,2.73,2.96,5.08,.38,.68,.67,3.81,.9,4.55,.45,1.42,.45,4.89-2.21,5.11-1.84,.16-.03-2.34-.78-4.14-.87,2.46-2.47,3.47-3.65,5.42-.78,1.29-1.32,2.44-1.36,3.95,.93-.83,2.33-.63,3.17-.77-2.74,2.46-5.66,3.82-7.6,6.17-1.22,1.48-1.97,2.62-2.03,4.24-.09,2.59-2.9,3.8-4.11,3.68-1.99-.2-2.95-2.3-2.59-4.27,.44-2.37,1.15-8.2,1.22-14.18,.08-8.01,1.75-12.44,1.71-22.66-5.21,13.23-1.62,9.57-5.2,20.82-2.05,6.43-2.71,15.83-5.27,17.67-.9,.65-2.27,2.68-2.68,3.71-.82,2.04-.66,8,.81,13.4,3.52,12.96,12.7,26.99,15.65,35.17,.45,1.26,.9,2.53,1.4,3.77,.31-2.02,.38-3.52,.25-4.02Z" style="fill: #096d00;"/>
        </g>
        <g class="collar">
            <path d="M976.13,562.46c21.77-6.14,25.5-17.69,30.58-27.21,2.66-4.99,2.72-9.97,4.55-15.16,1.46,1.25,7.96,4.28,9.7,5.12-1.29,20.65-5.23,38.96-22.23,49.39-12.3-4.74-18.04-7.62-22.6-12.13Z" style="fill: #1f3f1a;"/>
            <path d="M882.49,563.87c3.78,1.73,11.76-4.56,15.59-2.85s13.91,7.03,31.3,6.07c16.95-.93,24.63-2.81,33.9-3.72s23.5-.12,36.08-15.02c3.99-4.72,8.23-10.91,11.34-18.33,.59-1.41,1.81-6.2,2.39-6.12s-1.14,5.53-2.55,9.72c-1.91,5.65-11.8,24.6-30.5,29.75,3.99-.33,7.56,1.25,8.23,4.24,.4,1.79,3.82,.75,4.65,1.66,.33-1.74,1.08-4.07,1.5-4.07s1.33,4.07,2.33,4.4,3.94,3.43,1.99,4.99c-9.32,7.48-35.23,17.7-59.41,17.7-29.36,0-52.77-8.81-60.83-12.46-3.91-1.5-5.42-3.07-3.13-5.23-.2,2.08,3.98,3.32,3.93,2.24s-2.23-4.82-3.93-5.23-1.53-2.41-2.27-2.41,.26,3.16-2.2,2.58c.04-.58-.45-3.57,0-4.65s1.53-2.24,.58-3.24-3.03-.33-3.95,1.08-3.16,1.83-4.24,.66c.83-1.33,3.07-3.32,5.23-3.32s4.49-2.13,7.56-1.27,3.32,1.44,6.4,2.85Z" style="fill: #13210f;"/>
            <path d="M998.69,567.61c1.03-.34,2.66,.83,3.49,.33-.42-.71-2.04-3.28-2.83-3.86,1.45-.08,2.45-1.41,3.45-1.16s1.41,1.16,2.12,1.91c.5-.29,1.04-1,1.45-1.45-.96-.58-2.33-2.24-3.07-2.87,1.58,.04,3.49-1.79,4.94-3.28,.87,.62,1.41,1.04,1.41,1.04,0,0,2.04-2.99,2.04-4.07-1-.58-3.53-2.58-3.74-3.91s.91-1.12,1.37-1.83c1.2,1.5,2.37,2.99,2.37,4.36,.91-1.08,2.12-2.37,2.08-3.41-.71-.66-1.54-.87-1.74-1.79s0-1.79,.79-3.32c1.16,.96,1.58,2.24,1.79,2.83,.29-.71,.71-.91,.33-2.66s.75-4.86,.66-6.9-1.25-1.37-.66-2.33,.83-1.04,1.29-3.32c1.04,1.7,1.62,4.49,1.45,6.73s-.66,6.73-2.16,8.18c-.08,1.7-.5,3.57-1.54,4.49-.33,1.87-1.79,4.86-2.99,6.11-.71,2.08-1.16,3.86-2.49,5.19s-3.37,3.53-4.53,4.53-3.82,3.03-5.53,2.74-1.83-.79-1.37-1.29,.75-.71,1.62-1Z" style="fill: #13210f;"/>
        </g>
        <g class="arm">
            <path d="M948.44,664.78c-18.38,11.56-38.57,11.86-54.67,6.31-4.85,30.16-25.17,59.76-63.1,74.34,4.13,8.92,9.47,20.12,1.15,23.29,5.46,1.69,16.48,.47,24.95-.69,20.01-2.74,42.9-12.57,52.05-26.39,9.15-13.82,7.49-22.8,16.79-40.58,9.31-17.78,15.75-21.35,19.53-25.18,2.62-2.66,4.45-5.4,3.3-11.1Z" style="fill: #096d00;"/>
            <path d="M864.5,628.87c3.83,1.03,17.79-4.39,21.13-7.29,2.35-2.04,14.36-33.2,21.94-32.34,18.2,2.06,10,19.88,1.99,28.67-2,2.2,24.33-14.86,27.42-12.59,10.1,7.42,3.11,15.52-2.8,22.93,6.53-.85,11.11-4.88,14.33-6.61,5-2.68,13.53,8.91,11.07,14.36-.84,3.12-3.46,4.84-3.46,4.84l1.06-.06s7.05-2.69,9,4.34c3.22,11.64-5.01,14.39-17.28,19.67-10.88,5.72-21.15,10.77-35.52,10.58-15.27-.2-33.84-8.82-40.86-16.39s-14.98-17.11-9.56-33.22c.41,7.95-2.01,11.32,1.13,14.77,.6,.66,0-9.98,.43-11.65Z" style="fill: #c69275;"/>
            <path d="M861.75,629.35c1.78-4.53,5.61-17.36,8.92-21.77,2.99-3.99,7.2-18.21,18.5-21.02,7.04-1.75,7.4,.53,7.83,1.59,.38,.95,1.09,.31,2.46-.09,3.16-.93,6.75-.26,10.23,.87,14.08,4.61-4.68,20.69,2.92,25.02,4.52-8.41,10.5-13.64,16.08-12.56,3.78,.73,7.88,3.25,9.43,4.71,5.48,5.15-8.87,15.27-2.12,19.66,5.73-7.5,8.08-14.48,18.27-3.24,10.94,12.06-8.51,15.7-3.47,23.43,7.95-8.22,13.3-6.71,15.36-.82,1.56,4.47-5.63,4.23-11.02,10.21-5.26,5.83-12.62-6.79-17.63-14.73-2.89-4.57-6.12-6.29-9.37-8.54-2.58-1.79-8.62-2.65-12.3-4.61-3.33-1.78-3.85-5.9-6.11-7.12-6.81-3.66-15.38-2.44-21.44-3.43-7.43-1.22-4.54,19.42-15.73,18.47-7.22-.61-12.19-2.53-10.82-6.03Z" style="fill: #d6b096;"/>
            <path d="M831.46,745.73c37.93-14.58,57.71-44.38,62.56-74.54-9.78-3.37-18.15-8.93-23.88-15.52-12.42-14.28-8.78-23.96-6.69-30.8-6.73,3.65-13.46,13.5-7.48,28.98-12.63,10.66-17.92,16.77-28.4,27.18-10.48,10.4-18.17,9.34-27.29,35.13-3.13,8.18-2.52,5.39,0,5.54-1.97,7.96,1.82,13.57,3.97,10.22-1.89,9,3.55,30.9,28.29,37,9.02-2.17,3.04-14.26-1.08-23.18Z" style="fill: #09a200;"/>
            <path d="M860.51,635.38v-.91s-2.45-.37-3.61,.71c1.2-.12,3.61,.21,3.61,.21Z" style="fill: #1f3f1a;"/>
            <path d="M860.13,636.33s-2.99-.17-4.15,1.29c2.33-.37,4.15,0,4.15,0v-1.29Z" style="fill: #1f3f1a;"/>
            <path d="M860.34,642.94s-3,.06-4.04,1.6c2.29-.55,4.14-.32,4.14-.32l-.1-1.28Z" style="fill: #1f3f1a;"/>
            <path d="M860.94,645.13s-3,.06-4.04,1.6c2.29-.55,4.14-.32,4.14-.32l-.1-1.28Z" style="fill: #1f3f1a;"/>
            <path d="M861.42,646.97s-3,.06-4.04,1.6c2.29-.55,4.14-.32,4.14-.32l-.1-1.28Z" style="fill: #1f3f1a;"/>
            <path d="M862.83,649.02s-3,.06-4.04,1.6c2.29-.55,4.14-.32,4.14-.32l-.1-1.28Z" style="fill: #1f3f1a;"/>
            <path d="M860.13,639.95s-2.78,.83-3.91,2.49c1.54-.5,4.28-1.25,4.28-1.25l-.37-1.25Z" style="fill: #1f3f1a;"/>
            <path d="M864,650.29s-4.55,1.45-5.63,3.37c2.07-1.25,6.13-1.68,6.13-1.68l-.5-1.68Z" style="fill: #1f3f1a;"/>
            <path d="M865.14,652.96s-5.01,.33-6.77,3.82c3.29-2.91,7.2-2.36,7.2-2.36l-.43-1.46Z" style="fill: #1f3f1a;"/>
            <path d="M866.95,654.86s-4.98,.37-5.91,2.49c3.18-1.46,6.58-.96,6.58-.96l-.66-1.53Z" style="fill: #1f3f1a;"/>
            <path d="M869.02,659.48s-3.09,.4-3.68,2.17c2.05-1.16,4.12-.96,4.12-.96l-.45-1.21Z" style="fill: #1f3f1a;"/>
            <path d="M870.63,661.08s-3.02,.77-3.39,2.59c1.9-1.4,3.98-1.45,3.98-1.45l-.59-1.15Z" style="fill: #1f3f1a;"/>
            <path d="M871.78,662.59s-3.02,.77-3.39,2.59c1.9-1.4,3.98-1.45,3.98-1.45l-.59-1.15Z" style="fill: #1f3f1a;"/>
            <path d="M873.88,663.93s-3.02,.77-3.39,2.59c1.9-1.4,3.98-1.45,3.98-1.45l-.59-1.15Z" style="fill: #1f3f1a;"/>
            <path d="M867.97,657.16s-2.85,.43-3.9,2.13c1.51-.56,4.33-.91,4.33-.91l-.43-1.23Z" style="fill: #1f3f1a;"/>
            <path d="M875.45,664.65s-3.91,2.66-4.16,4.83c1.43-1.95,5.28-3.48,5.28-3.48l-1.11-1.36Z" style="fill: #1f3f1a;"/>
            <path d="M877.54,666.66s-4.77,1.79-5.04,5.69c1.9-3.96,6-4.52,6-4.52l-.96-1.18Z" style="fill: #1f3f1a;"/>
            <path d="M879.94,667.72s-4.72,1.82-4.76,4.14c2.36-2.58,5.97-2.98,5.97-2.98l-1.21-1.16Z" style="fill: #1f3f1a;"/>
            <path d="M869.69,606c1.68-1.5,2.95-3.83,3.32-5.07,.91-3.03,3.16-1,3.99-5.4,.3-1.58,.08-3.37,1.29-3.91,.76-.34,1.74-.73,1.99-1.83,.14-.63,.75-1.68,1.26-2.08,1.15-.89,2.78-.19,4.23-.37,1.2-.15,2.16-.79,3.28-1.26,1.51-.62,2.99-.62,4.57-.24,.71,.17,1.69,.71,2.28,1.15,.85,.63,1.25,1.69,1.61,2.69-.56-6.87-5.43-4.32-10.45-4.97-2.31-.3-4.82,.81-7.56,3.33-1.32,1.22-2.23,1.64-2.99,3.07-1.48,2.78-.59,5.17-1.58,5.82-.8,.52-1.95,.54-2.35,1.41-.28,.6-.94,1.86-1.07,2.5-.23,1.2-1.4,2.65-2.53,3.8-1.52,1.56-3.29,4.83-3.57,6.45-.92,5.35-.32,8.23-2.13,12.86-1.41,3.62-3.6,7.7-3.82,13.32-.19,4.82,1.09,19.56,21.24,33.45,9.35,6.44,23.37,8.46,34.32,7.89,10.76-.56,20.83-2.83,30.08-8.35,1.82-1.09,3.75-3.78,3.34-5.86-7.53,5.41-18.09,8.02-27.32,9.02s-18.95,.17-26.76-2.83c-10.81-4.15-17.46-9.25-22.65-14.21-4.18-3.99-10.46-12.56-10-21.65,.58-11.47,3-8.6,3.91-14.62,.75-4.99,.61-11.04,4.07-14.13Z" style="fill: #13210f;"/>
            <path d="M881.57,669.98s14.87,8.87,28.92,8.25c14.04-.62,34.4-5.92,37.27-12.03l.86-.41s.73,3.06-.26,5.21-1.73,2.17-4.28,3.48-21.38,8.04-35.83,5.92-20.43-4.92-23.58-6.23-6.16-3.49-6.16-3.49l3.07-.71Z" style="fill: #1f3f1a;"/>
            <path d="M945.86,675.12c-14.31,6.63-36.33,11.82-50.79,13.31,17.82,4.49,26.51,2.29,33.74,.17-19.61,13.09-27.17,12.84-55.3,11.47,11.8,4.9,31.33,7.35,44.79,3.74-13.59,4.61-25.09,6.52-38.56,5.78,13.46,3.53,25.01,2.99,35.98,.62-2.34,5.25-4.84,9.84-6.61,12.84-4.65,1.5-15.09,3.61-21.73,2.95,5.65,2.33,10.1,4.36,17.74,3.53-2.56,4.24-9.35,11.59-14.33,15.33-10.89-.42-26.82-15.06-32.22-27.68,5.11,18.76,13.57,30.05,24.29,33.29-5.22,4.92-35.7,23.23-62.99,13.09,8.2,6.42,18.99,7.29,30.35,6.01,10.16-1.15,25.41-4.55,34.71-9.12,12.33-6.07,22.02-12.95,27.66-24.37,6.84-13.84,9.7-29.29,17.21-41.32,4.86-7.79,8.35-11.65,16.06-19.63Z" style="fill: #1f3f1a;"/>
            <path d="M892.86,590.28c1.68-1.35,3.75-1.61,3.83-1.12-3.21,1.87-7.04,4.14-8.74,14.6-1.7,10.46-1.25,11.74-6.92,14.99-5.67,3.25-6.68,4.56-10.06,5.52-.73-2.03,3.2-3.15,5.23-5.61s2.12-5.73,4.99-7.54,3.93-7.08,5.48-10.97,2.54-6.93,6.18-9.87Z" style="fill: #9e6e5c;"/>
            <path d="M898.15,752.69c-12.5-.44-32.98-14.95-38.34-31.43,4.27,18.76,18.06,32.11,31.96,35.54,2.3-1.32,4.19-2.49,6.38-4.12Z" style="fill: #13210f;"/>
            <path d="M923.87,706.88c-11.84,3.49-14.58,4.33-23.52,5.09,10.89,.06,18.62-2,22.9-3.51,.22-.57,.62-1.59,.62-1.59Z" style="fill: #13210f;"/>
            <path d="M937.62,683.99c-5.86,3.54-17.58,6.7-26.89,6.98,8.98,.49,16.2-.71,24.45-4.01,.5-.61,2.44-2.97,2.44-2.97Z" style="fill: #13210f;"/>
            <path d="M875.37,622c4.64-3.53,7.23-5.28,8.82-8.27,1.31-2.46,2.42-4.65,2.49-7.42,.06-2.48,1.27-6.25,3.12-10.16s4.02-6.26,7.85-7.71,8.35-.77,12.05,.29,12.66,5.08,8.44,15.74c-.07,.19,.14,.29,.3,.16,5.14-4.18,6.95-6.08,14.82-2.12,7.26,3.65,11.63,8.39,8.64,15.16,2.16-2.12,5.44-2.95,10.89,2.7,9.82,10.2,8.31,16.79,4.24,20.1,4.1-1.45,9.35-.12,10.04,5.85,1.11,9.66-3.85,13.11-14.38,17.17-4.19,1.61-4.52,1.8-4.93,1.4,7.66-3.62,21.87-6.42,17.82-19.79-1.95-6.44-7.56-4.4-9.22-3.33s-3.97,3.63-5.8,4.46c3.83-4.61,6.33-5.73,8.21-9.26,2.73-5.14-1.82-11.25-6.32-15.76-3.71-3.73-7.69-6.48-11.86-.75-4.44,6.1-4.67,6.23-5.13,5.71,2.46-3.65,4.44-6.61,5.44-9.61s2.58-7.15-5.57-12.05c-8.14-4.9-11.89-2.9-15.47,.59s-6.36,9.35-7.43,9.07c-.22-.38,2.4-4.82,3.22-6.59,1.42-3.06,7.79-13.95-6.67-18.52-14.46-4.57-18.03,5.82-19.78,9.72s-.33,11.47-3.56,16.55c-1.87,2.94-7.26,5.14-10.28,6.68Z" style="fill: #6d6457;"/>
            <path d="M864.45,642.94c-.43,.73-1.58-3.54-1.99-5.96s-.37-9.9,1.37-13.15c1.91-3.57,1.65-7.19,2.62-13.38,.58-3.73,3.57-5.6,5.19-7.94,.96-1.37,.83-2.62,1.33-3.3,1.2-1.64,2.31-1.25,3.24-3.14s.68-4.64,1.58-5.61c1.04-1.12,4.99-5.03,7.15-4.61s6.86-1.08,9.31-.33,2.74,2.62,2.04,3.07-1.86-1.23-4.23-1.23-2.79,1.69-4.41,2.48-6.07,.75-7.23,4.57-3.24,8.85-4.65,11.26-3.99,1.58-4.99,5.48-2.91,12.66-2.04,13.71c2.12,2.53,10.89-3.87,12.84-5.61s5.33-5.48,5.82-9.47,3.21-13.98,6.64-17.45c2.34,0,6.78-1.41,9.4-2.62-3.7,5.19-8.56,5.98-10.35,10.14s-2.16,9.22-2.66,12.96-3.24,12.3-8.65,15.55-7.93,1.6-9.26,1.56-3.61,.83-5.4,.21c1.83-.87,3.86-3.14,4.73-4.03-2.27,1.91-4.98,.22-6.55,5.98-.72,2.63,.24,9.02-.84,10.85Z" style="fill: #f9dac5;"/>
            <path d="M855.98,653.84c7.02,16.22,15.75,26.5,27.71,34.01-18.95-8.07-27.35-21.35-32.19-30.16,1.01-.88,4.47-3.85,4.47-3.85Z" style="fill: #13210f;"/>
            <path d="M848.9,660.02s1.63,29.11,22.39,37.84c-16.01-5.48-23.31-20.11-24.96-35.48,1.28-1.18,2.57-2.36,2.57-2.36Z" style="fill: #096d00;"/>
            <path d="M843.37,665.19s-9.62,34.66,3.88,54.3c-12.79-16.14-14.63-31.05-13.15-45.03,3.67-3.73,9.27-9.27,9.27-9.27Z" style="fill: #096d00;"/>
            <path d="M917.63,612.9c.34-2.22,6.5-9.66,9.31-10.65,1.18-.42,2.1,1.3,.19,3.88s-6.43,8.78-9.5,6.77Z" style="fill: #f9dac5;"/>
            <path d="M941.15,625.59c.07-1.4,3.64-6.45,5.43-7.27,.75-.34,1.48,.65,.4,2.38s-3.65,5.89-5.82,4.89Z" style="fill: #f9dac5;"/>
            <path d="M955.33,645.22c.44-1.01,4.36-3.75,5.85-3.86,.63-.05,.87,.88-.38,1.86s-4.21,3.34-5.47,2Z" style="fill: #f9dac5;"/>
        </g>
        <g class="head">
            <path d="M855.44,540.77c8.31,3.93,18.88,10.81,23.25,12.53,5.05,1.98,11.53,3.48,10.68,6.24-.62,2.01-8.54,.64-11.47-.41-3.21-1.14-8.72-4.06-10.05-4.89-1.12-.7-4.14-2.95-6.12-5.45-2.91-2.38-4.75-5.61-6.28-8.02Z" style="fill: #9e6e5c;"/>
            <path d="M911.92,539.23c2.12-1.53,5.61-2.6,8.72-.95-3.24,.36-5.14,.27-8.72,.95Z" style="fill: #f9dac5;"/>
            <path d="M849.16,394.83c.24,7.13,.25,12.84-1.37,21.06s-.45,16.97-2.93,25.18c-1.22,4.03-2.98,11.74-2.93,15.95,.05,4.17,.95,5.07,.56,9.22-.25,2.69-.13,5.23-.62,7.88-.62,3.31,.19,13.73-.37,17.05-2.68,15.7,.81,14.46,.87,19.83,4.74-9.36,11.34-9.17,19.19-17.4,17.08-17.89-4.43-36.55,4.11-61.7,1.11-3.26,7.87-23.48,9.47-27.55,11.22-28.4-26.55-26.24-25.99-9.54Z" style="fill: #f9dac5;"/>
            <path d="M839.95,438.62c-.18-2.28-.02-4.46,.86-6.56,.3-.72,.63-.9,.96-.76,.26,.12,.39,.7,.44,1.62,.1,2.18,.69,5.44,.01,5.94-.44,.33-.79-1.52-1.31-1.51-.37,.01-.96,1.27-.96,1.27Z" style="fill: none; opacity: .5; stroke: red; stroke-miterlimit: 10; stroke-width: .5px;"/>
            <path d="M1046.03,430.05c.34,2.61,.38,4.32-1.24,6.54-.73-3.12,1.24-6.54,1.24-6.54Z" style="fill: none; opacity: .5; stroke: red; stroke-miterlimit: 10; stroke-width: .5px;"/>
            <path d="M900.52,491.03c.81,.31,.81,1,.81,1.37-1.06,1.09-2.93,2.24-3.3,2.43-.37-1.59,1.15-3.21,2.49-3.8Z" style="fill: none; opacity: .5; stroke: red; stroke-miterlimit: 10; stroke-width: .5px;"/>
            <path d="M881.07,388.91c0,36.56,17.76,20.97,23.93,31.53,13.46,23.06-34.9,18.44-42.38,34.9,18.07,4.36,28.92,22.44,43.5,9.35,20.67-18.55,39.89,16.58,25.3,31.16-3.56,2.37-15.95,11.34-42.88,3.61-18.17-5.21-18.27,42.83-35.52,39.76-5.61-5.23-14.88-26.46-8.64-34.35s8.66-4.94,17.24-13.86c1.52-1.58,1.46-3.18,2.62-4.68,1.42-1.85,2.71-3.71,1.58-4.8-2.74-2.64-10.59-.13-11.26-3.72-.42-2.24,1.83-2.48,3.18-5.63,.87-2.04,.35-3.19,1.52-4.88,1.23-1.79,1.89-2.23,1.93-3.34,.03-.92,.21-2.02-.91-2.64,2.35-.25,3.82-.43,3.22-1.58-.44-.83-2.93-.87-5.8-.37s-6.76,2.12-7.73-.1c-2.6-5.98,3.59-10.84,4.72-13.21s-2.02-2.5-1-5.36c.83-2.33,2.81-2.01,3.88-3.2,4.78-5.28,5.65-1.76,7.5-9.91,1.25-5.51-2.8-6-1.81-8.62s4.47-3.32,5.84-3.57c-1.12-.87-2.33-.89-3.57-.89,1.37-.62,2.95-1.79,4.32-4.41s4.61-7.35,5.36-12.59,5.86-8.6,5.86-8.6Z" style="fill: #d6b096;"/>
            <path d="M1029.69,361.92c1.7,1.38,2.47,4.06,2.8,6.34-1.68-2.25-2.43-4.09-2.8-6.34Z" style="fill: none; opacity: .5; stroke: red; stroke-miterlimit: 10; stroke-width: .5px;"/>
            <path d="M929.03,502.25c2.59-1.71,4.64-1.71,6.33-1.15-2.74,.25-3.43,.39-6.33,1.15Z" style="fill: #f9dac5;"/>
            <path d="M954.46,472.27c-2.56-.31-3.4,1-5.11,0,1.78-.1,3.55-1.46,5.11,0Z" style="fill: #d6b096;"/>
            <path d="M965.83,459.24c1.61-.43,2.08-.25,3.59,.03s3.64,.39,3.83,1.06c-1.15,0-2.25-.47-3.78-.76-1.24-.23-2.47-.12-3.65-.34Z" style="fill: #d6b096;"/>
            <path d="M962.56,478.22c6.73,1.81,13.8,1.59,15.95,1.46s3.71,.81-.03,.97c-5.95,1.12-11.16-.37-15.92-2.43Z" style="fill: #d6b096;"/>
            <path d="M887.43,367.23c-3.99,10.72-18.2,34.53-18.2,34.53h-2.62s11.72-20.44,5.86-14.08-7.91,11.97-8.32,13.31c-.22-.45-.41-.83-.44-1.31-.89,3.02-1,5.9-1.74,7.7-.51-2.66-.23-4.38-1.84-5.66-1.7,.97-3.07,2.54-3.46,4.05-.06-.89-.39-1.45-.58-1.73-.75,.65-.95,2.38-1,2.98-.37-.2-.83-.22-1.08,.56s.28,4.33-1.48,6.73c-.16-1.87,.69-3.8,.83-5.52s.33-2.06,0-2.76c-.48-.36-.72-.31-1-.34-.41,.22-.62,.23-.72,.97-.26,3.96-2.23,11.28-2.49,13.9s-2.07,11.85-3.51,17.34-1.87,9.68-3.21,13.78c-.8-6.7-3.67-10.05-2.38-20.61,1.29-10.56,2.49-27.06,5.32-32,.79-1.29,1.33-3.99,1.74-6.86s1.79-12.67,4.57-19.86,7.94-21.11,12.34-27.3,3.24-6.69,4.9-9.56,4.07-7.7,7.3-12.03c11.03-14.81,27.22-23.03,67.41-19.29-40.51,6.98-56.23,63.07-56.23,63.07Z" style="fill: #87554b;"/>
            <path d="M1011.32,434.33c12.26-10.84,22.73,18.41,18.16,41.09-2.47,12.27-5.23,23.02-5.23,23.02l5.69,6.94s-2.29,4.69-4.03,6.86,1.7,4.49-5.07,8.31c-3.93,2.22-6.32,1.25-8.56,0-7.56,18.2-9.64,30.83-22.6,37.73-18.33,9.75-28.84,10.62-41.26,12.27-30.18,4.01-65.93-4.83-83.13-18.25-4.05-2.99-6.69-7.05-5.15-7.79,5.84,3,8.45,9.45,12.21,11.03s11.05,4.07,14.04,3.07c.95-.32-1.87-1.74-3.57-2.74,3.32,.66,14.89,5.43,28.34,9.06,21.73,5.86,67.34-4.25,77.74-12.21,15.95-12.21,6.86-31.16-8.77-33.82-15.62-2.66-13.54,6.65-21.36-1.99s-18.41-27.01-8.27-33.03c10.57-6.28,28.63,6.81,36.81-1.91,7.52-8.02,15.75-2.04,18.16-7.69,2.41-5.65-22.1-23.31-15.54-28.63s13.77-4.55,21.4-11.3Z" style="fill: #d6b096;"/>
            <path d="M1034.52,479.18c2.7,8.6-2.86,16.27-4.97,20,4.07-7.81,3.63-14.66,4.97-20Z" style="fill: none; stroke: #007f00; stroke-miterlimit: 10; stroke-width: .5px;"/>
            <path d="M904,464.34c-.08-1.12-.81-1.43-.43-2.08,.41-.69,.8,.95,.43,2.08Z" style="fill: #d6b096;"/>
            <path d="M1026.97,468.5c-.83,7.48-1.38,13.15-2.43,18.32s-5.53,16.18-7.44,20.34c3.01-12.42,5.02-15.83,5.94-21.07s1.18-13.02,3.93-17.59Z" style="fill: #ead7ca;"/>
            <path d="M1043.48,463.14c2.08,1.06,1.93,1.85,2.99,3.07s2.53,3,1.72,5.85c-1.28,4.46-4.73,12.06-6.53,15.17s-7.61,12.26-11.08,18.55c-1.7,3.08-4.25,5.87-4.67,7.51s-.13,3.42-1.43,5.06-3.3,2.99-4.86,3.64c.33,.12-3.51,.5-3.51,.5,0,0-.81-.57-1.16-.67,2.45,.42,7.46-.83,9.24-3.56s.11-5.03,1.24-6.53c1.06-1.41,2.43-1.59,5.93-7.82,2.46-4.38,9.78-16.2,11.79-20.35,1.49-3.07,5.91-12.12,4.55-14.86-1.03-2.07-1.76-2.01-2.71-3.26s-.37-.92-1.5-2.29Z" style="fill: #ead7ca;"/>
            <path d="M841.02,440.02c1.2,1.04,3.18,1.37,2.81,3.37s-.88,4.42-1.29,6.05c-.66-3.37-1.66-6.65-1.52-9.41Z" style="fill: #6c4a40;"/>
            <path d="M1021.92,377.52c-8.52-13.76-14.6,.62-23.57-9.85-8.97-10.47-9.15-58.28-35.79-61.77,27.45-.5,57.54-4.04,66.08,27.86,16.3,5.29,32.75,35.2,26.88,57.41-2.19,8.27-1.65,18.96-4.59,25.41-5.99,13.18-3.05,30.77-3.79,35.08-1.04,6.05-3.38,11.76-3.38,11.76,1.32,.82,1.79,2.27,2.62,3.07,3.7,3.57,.66,8.72-.48,11.53-1.59,3.93-5.19,10.68-5.19,10.68,0,0,4.9-14.09,2.16-16.06s-7.98-4.71-8.23-9.95,7.73-33.4,6.48-43.87-14.21-33.25-19.19-41.31Z" style="fill: #87554b;"/>
            <path d="M842.74,431.25c.64,1.48,1.13,5.01,.6,6.49-.56-2.14-.91-4.92-.6-6.49Z" style="fill: #6c4a40;"/>
            <path d="M841.56,422.78c-.55-3.86,.64-7.53,.88-10.51s.95-6.56,2.11-9.1c-.98,6.94-.68,16.45-2.99,19.61Z" style="fill: #6c4a40;"/>
            <path d="M845.22,438.02c.96-7.35-1.2-8.43-1.12-11.76s1.22-5.4,1.04-9.31,.21-7.4,1.33-9.72c.33,.79,.12,4.57,.5,6.48,1.04-1.79,.42-12.88,.17-18.41s3.41-20.44,5.23-23.52c-1.41,6.44-5.19,16.37-3.78,20.4,1.45-2.49,.87-4.78,2.16-7.48-.98,7.29-2.24,10.93-1.74,17.66,.38,5.08,.63,12.64,.25,16.04-.5,4.45-1.64,4.9-1.89,7.89s.37,8.44-2.14,11.72Z" style="fill: #6c4a40;"/>
            <path d="M850.45,402.83c-.54-11.3,2.6-14.62,2.95-18.07,.37-3.66-1.41-5.48,1.16-11.18-.29,3.32-1.08,5.07-.91,6.44,.16,1.28,1.49,2.41,.66,5.48-1.12,4.2-1.2,10.05-3.86,17.33Z" style="fill: #6c4a40;"/>
            <path d="M861.09,373.87c-2.33,6.86-4.49,15.04-3.95,28.67-2.56-5.15-.25-23.23,3.95-28.67Z" style="fill: #6c4a40;"/>
            <path d="M854.03,366.89c1.87-6.69,4.21-11.46,5.83-14.38,.24,6.61-4,9.19-5.83,14.38Z" style="fill: #6c4a40;"/>
            <path d="M864.29,350.86c-1.96,4.93-3.64,9.6-5.19,14.29,1.25-7.15,2.6-9.56,5.19-14.29Z" style="fill: #6c4a40;"/>
            <path d="M863.21,349.17c-.73,1.74-1.04,2.35-1.91,3.34,.46-1.47,1.2-2.6,1.91-3.34Z" style="fill: #6c4a40;"/>
            <path d="M869.88,340.24c.02,1.33-.89,2.45-1.79,3.68,.58-2.02,1-2.8,1.79-3.68Z" style="fill: #6c4a40;"/>
            <path d="M876.65,331.64c1.13-1,2.49-.83,.35,1-1.76,1.5-2.99,4.11-5.76,5.64,.89-2.12,3.79-5.2,5.41-6.64Z" style="fill: #6c4a40;"/>
            <path d="M885.16,313.59c-6.13,3.66-6.13,6.11-7.5,8.02s-2.18,2.41-2.98,4.78c2.42-2.41,3.67-5.42,5.66-7.6s1.47-2.29,4.82-5.19Z" style="fill: #6c4a40;"/>
            <path d="M909.91,305.15c-6.56,2.49-17.2,7.64-22.35,12.21s-6.59,6.47-6.92,7.63c2.41-1.16,6.02-5.09,8.48-6.17,2.98-1.31,3.33-3.77,6.64-4.24-1.74,1.95-3.54,3.02-6.2,5.02s-7.36,5.12-9.19,7.2c1.25,.33,2.96,.8,3.71,.97-5.67-.44-4.71,4.14-6.98,6.46-1.61,1.64-7.1,10.22-9,14.38s-5.68,13.04-6.24,15.28c1.43-3.33,3.68-6.11,4.64-9.01s3.46-5.58,7.27-9.02c-2.85,3.91-2.15,5.16-2.69,7.49-.24,1.02-1.1,2.12-1.53,3.68-.55,2.01,.74,2.02-1.87,6.57,.93-.66,2.17-2.18,3.27-3.93-.06,3.61-1.46,3.68-1.71,5.17s-.21,1.7-.25,2.95c1.15-4.07,2.48-4,3.89-6.6s1.96-4.67,2.96-6.67c-.17,1.16-.25,1.46-.25,2.13,1.08-1.41,2.49-6.49,6.23-7.05-.66,1.08-1.69,2.24-1.87,3.49,1.4-1.25,2.2-2.63,4.45-3.94-1.58,2.43-3.57,5.59-5.23,7.33s-5.37,6.71-6.36,9.14c-2.89,7.13-3.95,3.64-7.35,13.54,2.53-2.24,3.34-5.64,4.78-7.39s4-6.64,6.39-9.82c1.78-2.38,3.08-3.01,4.14-4.14,2.47-2.63,5.59-8.52,10.53-11.72-4.49,4.83-5.26,7.01-7.82,9.94-2.79,3.2-6.14,6.59-8.3,9.91s-5.44,10.89-7.08,15.37c2.33-2,2.83-8.49,7-11.88,.17,2.08-.95,3.34-1.03,5.42,1-1,1.46-1.87,2.21-1.65,.65,3.8-1.08,5.1-1.99,7.76s-3.22,8.66-4.55,12.9c2.45-5.51,5.33-11.88,6.67-13.21,1.37,1.93-.19,4.05-.89,5.9-.38,1.01-1.66,4.67-3.38,8.18-2.39,4.89-4.36,5.27-4.77,13.34,3.16-3.82,8.06-11.9,11.72-12.9-1.66,2.74-2.97,6.67-4.39,8.75,1.28,.38,2.81-1.41,3.89-2.08-1,1.99-2.51,4.49-3.18,5.98,1-.66,3.68-1.74,5.17-2.41,.56,3.03-2.63,3.83-3.46,5.49,.81-.25,1.34-.06,2.06-.41-.75,.75-1.94,1.81-2.99,2.09s-1.67,.8-2.09,1.38c5.14-.45,7.62-2.89,10.83-3.2-.58,.31-2.83,1.44-3.42,1.77-1.35,.75-2.96,1.55-4.38,1.95,2.08,1.99,5.11,.38,10.19,2.56,5.83,2.49,5.02,6.33,8.01,5.76,2.69-.51,4.87-2.52,6.12-1.44s2.72,4.67,.89,6.59-4.02-1.75-6.95,1.71c-2.43,2.87,1.02,5.92-1.22,7.6-2.49,1.87-6.01-.5-10.28-.47-3.42,.02-4.99,.31-7.51-.78s-6.21-2.12-13.09,2.24c2.15-.12,4.33,.55,5.08,.84-4.21-.09-7.24-.07-10.81,1.59,2.99-.42,9.6-1.32,13.34,1.34,.06,2.68-3.77,2.93-4.77,4.67s-.04,3.86-1.78,3.86c-3.56,.01-3.99,2.4-5.36,4.36s-1.99,1.62-3.83,1.83c1.53,1.41,6.02,1.05,8.85,1.66s5.03-.02,8.16,2.71c1.91,1.66,3.43,3.05,5.67,3.95-4.49,0-7.14-3.79-11.38-3.92,1.1,1.37,3.21,2.44,5.49,3.55,3.92,1.92,9.47,3.96,18.57,3.12-4.99,2.74-15.92,1.1-18.08,.62,2.91,1.52,6.57,1.64,8.83,1.87-4.52,2.09-8.06,.48-12.96,.37,3.18,1.9,7.29,2.06,11.06,2.9,5.47,1.22,10.98,.65,16.2-.37s4.89-2.95,8.04-3.9c4.86-1.46,4.1-8.65,12.78-6.11,4.14,1.22,2.86,2.93,5.76,4.42s2.93-.31,7.14,6.7c2.23,3.72,.84,4.24,2.56,6.57-1,0-2.46-.03-2.46-.03l1.37,2.09-2.72-1.98,1.91,3.17c-1.22-.9-3.04-1.95-3.83-2.4,1.83,3.16,3.66,6,2.9,9.41s-7.63,1.12-10.88,3.58-5.66,1.4-9.82,1.03c.83,1.37,2.27,2.52,2.52,4.14-3.24-.2-6.7-4.14-10.22-3.96-2.93,.16-1.62,1.36-1.68,1.78-1.87-.03-2.37-1.46-1.93-3.46,.84-3.8,9.96-7.03,8.38-8.32s-2.97-1.92-6.48-.84-5.99-1.01-10.94,3.27c-7.39,6.39-10.21,10.89-14.18,15.27-3.23,3.57-6.14,5.91-8.66,7.04-7.26,3.24-.75,10.41-4.83,18.23-2.59,4.97-5.98,7.45-8.8,6.93-.33,3.74,15.54,14.13,19.19,15.46,.63-1.72,3.12-.99,6.52,.84s13.98,7.53,13.4,8.97-10.13-1.84-13.65-2.96c3.07,2.16,12.87,4.92,16.99,6.12s21.53,6.09,37.66,5.6c4.96-.15,11.7-1.67,19.54-3.15,11.54-2.18,24.33-5.67,31.53-8.51,10.84-4.27,15.99-13.37,16.17-17.29,.42-8.72-2.47-17.12-5.76-19.54-5.65-4.15-17.95-7.82-21.66-6.11-5.61,2.59-11,2.78-12.92-4.32-1.76-6.49-2.91-7.86-3.84-10.25-1.21-3.09-3.33-3.75-3.4-5.77-.12-3.65-2.46-2.03-1.56-4.55,.52-1.44-2.09-.96-1.09-2.03,1.68-1.81,3.78-2.07,6.39-1.74,1.9,.24,4.34-.71,8.91-.12-1.37-1-3.21-1.68-4.02-3.55,7.39,3.65,16.61,4.28,22.75,3.93,9.97-.57,4.31-3.34,10.59-7.29,4.92-3.09,8.98,4.02,13.46,.56,1.93-1.5,3.54-5.91,1.03-8.35-1.09-1.06-1.04-8.53-4.77-12.68-5.17-5.75-14.73-9.09-9.78-12.84,3.74-2.84,5.52-3.83,9.88-1.31,2.96,1.71,2.48-1.09,4.36-1.25,2.75-.23,5.3-5.1,5.93-8.04,.76-3.52,5.79-1.66,6.94,7.29,.42-1.5,1.76-2.93,1.4-5.23,1.55,3.1,.88,3.91,.72,6.56s-.88,6.43,.81,9.67c-.12-2.18,.72-3.08,1.65,.22,.69-2.46,3.21,1.03,4.24,4.71s-.97,10.23-1.46,13.19-2.33,15.43-3.91,20.25c-1.58,4.82-6.95,16.65-6.03,17.39,1.4,1.12,1.47,2.95,3.05,3.12,.19-1.34-.69-1.43-.19-3.18s2.03-4.92,1.45-5.36c-1.56-1.19-.61-4.67,.85-4.33,3.27,.75,1.12,2.46,1.5,5.2,.4,2.94,1.28,3.15,4.52,.34-1,1.33-1.94,2.46-1.93,3.52s2.5-1.97,3.9-5.05,9.93-15.87,11.5-18.96,6.32-13.18,4.66-14.45-1.76,.27-4.84-1.65c-3.74-2.34-1.07-4.08-2.12-5.27-1.41-1.59-1.62-1.62-3.01-1.58,1.98-.85,2.98-3.58,4.29-5.59,1.12-1.72,2.51-3.77,1.87-5.64-1.42-4.17-1.41-10.21,.16-15.45,1.53-5.12,2.87-8.61,3.41-9.47,.08,.99,.94,2.18,1.11-1.47s4.79-15.06,4.95-18.63,.58-4.82,.5-7.23-.91-6.4-2.08-8.72c0,4.49-.09,5.7-.92,5.95-.17-1.41-.21-2.06-.49-3.04-.75,.33-.31,3.47-.34,4.82-.1,4.73,1.74,1.59,1.67,8.89-.02,2.49-1.17,7.67-2.17,9.24-.97-1.93,.26-4.52-.56-6.51-.58,.66-.43,4.23-1.96,5.89-.96-2.74,.16-11.53-.47-15.27,2.04,1.74,1.36,6.29,2.77,8.29,.65-2.65,.45-6.53,.03-8.44s-1.71-9.82-2.59-11.81c-.41,2.09,.47,7.04,.16,9.21-1.59-3.35-2.16-12.02-2.03-15.6,.25,1.09,.67,1.42,1.09,2.09,.21-1.48-.42-4.88-.69-8.01-.3-3.51,.28-5.3-1.32-8.55,.6,3.31,.11,5.65,.26,8.52,.11,2.22,.72,2.74,.44,4.8-2.15-2.31-1.34-8.85-3.77-10.24,1.43,6.53,.64,6.39,1.09,10.09,.32,2.6,1.13,4.51,.69,7.04-2.56-4.3-2.71-8.02-4.67-11.28-1.19-1.96-1.5-4.86-2.75-5.76,.11,2.88,.38,4.48,1.59,6.44,2.1,3.39,.54,4.25,3.81,10.39-1.99-.5-2.12-3.97-2.87-4.55-.33,1.41,.41,2.9-.04,3.76-1.27-2.58-.66-3.82-1-5.73s-.83-3.32-1.33-3.76c.25,2.16,.06,2.84-.42,3.18-.42-.42-.83-1.5-1.33-3.32-.33,1.41-.08,5.07-.17,6.4-.92-4.57-1.44-5.51-1.88-9.68-.37-3.58-2.46-6.63-4.35-11.41,1.08,.4,1.02,.56,2.08,.73-.75-1.41-3.06-4.95-2.57-7.36,.5-.75,2.95,1.55,3.99,2.21-.38-1.74-.43-3.32-.09-3.82,1.08,1.25,1.95,1.58,2.35,2.66,.31-1.5-1.34-2.27-1.79-3.11,2.05,.58,4.25,2.05,5.75,2.22-2.33-2.16-7.55-4.85-8.47-6.42s.5-2.74,.83-3.57c-.91,.33-2.12,.97-3.28,1.05,.66-1.5,1.29-1.8,2.45-2.63s2.16-1.74,1.33-3.16c-.66-.08-1.16,.17-1.66,.75,.5-1.33,1.42-2.41,2.04-4.4-2.37,1.16-3.12,2.66-4.2,4.15-.25,0-.25-1.08-1-1.08s-.66,1.58-1.08,1.08,1.25-2.41,.75-4.15-1.08-1.5-1.5-.33-.75,2.16-1.25,2.33-.33-1.5-.33-2.08,0-1.74-.17-2.91c-.06,2.27-.9,3.77-1.91,4.57,.7-5.07,2.1-5.72,1.97-7.41-.06-.78-.92-1.97-1.09-4.33-.19-2.58,.93-2.15,.2-6.29-.31-1.73-1.5-3.24-2.41-4.4,.33,3.16,1.58,6.78,1.25,9.86-3.65-1.78-2.72-6.43-4.24-8.6-.33,.83-.35,2.51-.19,3.68-2.06-1.65-2.07-3.98-2.31-6.97s-2.16-2.95-3.24-3.61c1.5,1.91,2.09,3.17,2.03,5.44-.02,.64-.06,3.55-1,4.05-.72-1.4-2.58-4.11-4.49-5.61s-2.9-1.77-3.65-2.18c1.91-.33,6.76,2.27,7.57,3.83-.44-2.65-.72-3.38-4.29-6.53s-5.23-2.08-6.56-2.33c.66,1.58,4.15,1.91,5.57,3.24-3.74-.25-3.24-.08-5.98-.83,.5,.66,1.16,3.74,2.33,5.15s4.05,4.71,5.05,6.78c-2.58-1.5-5.63-6.87-6.96-8.53s-4.56-2.12-6.47-1.29c2.66,1.62,13.37,10.68,14.78,12.67s-.33,2.91-1.5,5.9-2.99,5.57-1.33,7.15,5.48,8.14,5.23,10.72-3.57,13.63-3.82,15.7,1.83,11.33,3.41,13.56-2.83,12.12-10.14,11.45-17.45-8.1-24.09-7.94-75.04,6.02-79.44,3.12-1-10.14-4.4-11.38-4.32-3.66-1.37-4.99,23.81-12.38,23.14-16.45-5.15-4.4-7.4-3.07-7.98-7.31-6.73-10.89,4.49-12.3,10.97-13.46,.5-18.7,.5-18.7Z" style="fill: #c69275;"/>
            <path d="M919.46,303.67c-7.91,1.8-15.44,5.25-21.96,10.06-.37,.27-.78,.67-.64,1.11,.22,.71,1.68,.84,1.38,1.52-.05,.1-.13,.18-.21,.26-1.47,1.36-2.94,2.73-4.42,4.09-1.2,1.11-2.4,2.23-3.75,3.16-1.9,1.32-4.03,2.25-6.15,3.17,2.36,.3,4.69-.68,6.81-1.77,4.65-2.41,8.97-5.46,12.8-9.04-.07,.94-.64,1.75-1.01,2.61s-.46,2.01,.25,2.62c.19,.17,.45,.33,.44,.58,0,.25-.28,.39-.52,.49-4.17,1.68-7.81,4.66-10.28,8.42,3.64-2.89,7.86-5.04,12.34-6.29-4.06,6.42-10.89,11.02-18.36,12.39l4.5,.78c-2.6,2.41-5.59,4.41-8.81,5.88,3.09,.32,6.22,.36,9.32,.11-1.63,2.42-3.64,4.58-5.92,6.4,1.82-.95,3.65-1.9,5.47-2.84-2.4,2-3.96,4.86-4.9,7.84s-1.31,6.1-1.67,9.2c2.19-3.62,5.88-6.31,10.01-7.27-2.09,2.02-4.06,4.16-5.9,6.42,2.04-1.36,4.43-2.19,6.87-2.41l-.29,.66c-2.51,1.09-5.1,2.25-6.92,4.28-.76,.84-1.36,1.81-1.96,2.77-2.47,3.98-4.97,8.02-6.4,12.48,2.53-3.22,5.12-6.5,8.53-8.76-2.1,2.35-3.9,4.96-5.35,7.75,3.15-2.7,4.99-4.07,8.94-5.34-1.92,1.48-2,2.26-3.92,3.74-1.64,1.27-3.29,2.54-4.72,4.03-2.87,2.99-4.82,6.85-5.53,10.93,1.52-1.41,3.19-2.65,4.98-3.7,.3-.17,.65-.34,.96-.21,.59,.25,.34,1.14,0,1.68-1.23,1.94-2.49,3.87-3.79,5.77,1.45-1.19,3.05-2.19,4.75-2.97-.28,.95-.57,1.9-.85,2.85l5.38-2.9c-.77,1.26-1.55,2.52-2.32,3.79,2.33-2.83,5.06-5.33,8.1-7.39-.86,1.82-1.78,3.61-2.78,5.36,4.67-2.81,9.33-5.61,14-8.42-1.29,3.32-3.77,6.02-6.2,8.63,2.04-1.37,4.15-2.65,6.31-3.84,.3-.16,.63-.33,.96-.27,.46,.09,.72,.57,1.04,.91,.87,.93,2.36,.95,3.58,.6s2.37-.99,3.64-1.16c.77-.1,1.69,.06,2.06,.74,.28,.53,.13,1.18-.04,1.75-1.92,6.34-6.11,11.96-11.63,15.62l3.08-1.22c6.9-2.99,11.19-6.31,17.39-10.56-.43,1.08-1.09,2.07-1.92,2.89,3.03-1.17,6.13-2.13,9.29-2.88-.26,.56-.52,1.13-.79,1.69,2.8-1.52,5.46-3.3,7.93-5.31-.52,2.44-1.76,4.73-3.51,6.5,2.84-3.58,6.51-6.48,10.65-8.42-1.93,2.84-4.19,5.45-6.73,7.75,2.28-.86,4.57-1.71,6.85-2.57-.87,2.18-1.95,4.28-3.2,6.27,10.1,.18,20.21-3.86,27.4-10.96-4.14,1.79-8.45,3.19-12.85,4.2,6.72-3.27,12.55-8.34,16.72-14.53l-5.58,9c4.14-2.4,7.89-5.47,11.04-9.07-.65,2.54-1.3,5.08-1.96,7.61,1.56-1.52,3.12-3.05,4.68-4.57,.12,2.45,.24,4.91,.36,7.36,1.18-1.57,2.36-3.13,3.53-4.7,.13,3.43-.89,6.79-1.42,10.18-1.15,7.38,.09,15.11,3.49,21.77,1.21-9.33-1.06-19.5,3.49-27.74,.83,1.91,1.21,4.01,1.09,6.09,.24-.66,.48-1.31,.71-1.97,.78,.99,1.41,2.1,1.86,3.28,.91-4.04,1.82-8.08,2.73-12.12l1,6.13,2.08-1.84c.34,.52,.55,1.14,.6,1.76,.46-.19,.92-.38,1.38-.57,.41,1.38,.49,2.86,.22,4.27,2-5.43,4-10.86,6-16.29,2.14-5.82,4.32-12.06,2.89-18.1,0,0-.66,10.14-3.97,13.91,.14-6.43,2.89-12.48,5.59-18.32-3.09,2.17-5.4,5.43-6.43,9.07-.53,1.89-.76,3.94-1.91,5.54-.79-2.91,.09-6.01,1.36-8.74s2.93-5.3,3.82-8.18c.54-1.73,.79-3.57,1.63-5.18,1.12-2.14,3.18-3.69,4.26-5.85-1.54,1.69-3.08,3.37-4.63,5.06,1.28-4.14,1.61-8.56,.97-12.85,1.39,10.47-2.05,21.47-9.15,29.29,1.49-6.75,3.25-13.45,5.27-20.06,1.16-3.82,2.42-7.88,1.35-11.73-.09,4.01-.68,8.02-1.75,11.88,.06-2.63,.09-5.26,.07-7.9,0-1.29-.07-2.7-.93-3.65-.06,5.83-1.64,11.53-3.21,17.14-1.18,4.22-2.35,8.44-3.53,12.66-.36-.78-.34-1.66-.3-2.52,.21-4.93,.77-9.85,1.68-14.7-2.03,4.25-1.67,9.47-4.26,13.41,1.38-8.45,4.7-16.73,4.01-25.27l1.59,6.11-.13-12.47,1.27,4.96,.28-4.94c.84,1.29,1.48,2.71,1.89,4.2,1.7-3.26,2-7.23,.8-10.71s-3.87-6.42-7.22-7.95c.65,2.13,1.51,4.2,2.55,6.18l-.31-.21c-2.07-5.47-6.25-10.11-11.48-12.73,4.75,5.07,8.86,10.74,12.21,16.82-2.54-1.85-5.07-3.7-7.61-5.55-1.38-1-2.76-2.01-3.99-3.19-1.32-1.27-2.45-2.72-3.68-4.08-2.82-3.11-6.17-5.74-9.86-7.75-.98-.53-2.01-1.03-3.12-1.09-1.15-.07-2.28,.33-3.43,.42-2.98,.24-5.95-1.56-8.86-.85-.97,.24-1.85,.74-2.78,1.12-3.62,1.46-7.73,.83-11.48-.27s-7.39-2.66-11.28-3.04c-3.36-.33-6.73,.24-10.1,.25-3.56,.01-7.39-.53-10.46,1.28l.5,.21Z" style="fill: #87554b;"/>
            <path d="M930.82,305.15c4.24-4.17,7.96-3.89,12.27-2.58s7.53,4.34,12.4,4.91,12.9-1.25,17.77-1.17,8.8,.65,12.57,2.86,2.9,5.71-2.21,6.06-6.26,.86-5.38,3.74,4.79-2.61,9.04-.04,6.59,4.17,6.52,8.7-2.14,10.77-6.26,8.81c1.87,3.19,7.29,12.42,4.21,22.46-4.17-3.48-8.93-2.89-11.7-8.01-2.93,4.95-3.27,10.58-4.5,16.89-1.23,6.31-9.78,11.4-15.94,14.34-1.11-2.78-4.69-3.27-4.14-7.76-2.75,4.14-16.72,6.3-23.96,7.97-2.92-2.65-3.58-4.98-6.74-4.81,7.31-3.82,24.78-11.3,27.76-17.45-9.4,3.16-16.58,2.88-24.08,7.59s-17.96,0-23.2,3.53c.02-4.74,.66-6.71,1.61-13.49s13.94-9.06,20.05-17.29,13.2-5.18,11.23-10.28-17.88-1.75-19.19,3.8-9.79,12.55-13.7,16.26-6.73,3.33-10.89,4.69c.99-5.13,7.34-22.57,14.16-27.3s19.02-19.25,22.29-22.45Z" style="fill: #6d413d;"/>
            <path d="M895.53,501.84c9.54,6.26,12.74,.33,14.46,6.61,1.06,3.86-5.64,6.05-9.69,4.55-4.45-1.64-6.67-4.39-5.42-7.2,.85-1.91,.65-3.96,.65-3.96Z" style="fill: #d6b096;"/>
            <path d="M1011.99,352.06c-4.64,1.69-5.73,5.62-6.66,10.82-.54,3,.7,10.59,.42,13.62-.29,3.14,4.18,6.28,3.68,9.4-.51,3.2,.34,6.35,.84,9.56,.3,1.92,1.48,3.69,2.25,5.53,2.01,4.85,1.13,10.08,.23,15.12,1.13-3.34,3.09-6.52,5.73-9.31,2.07,2.43,1.81,5.63,.91,8.45s-2.37,5.59-2.49,8.5c2.54-1.44,3.94-3.82,4.56-6.2s.59-4.83,.88-7.25c.75-6.17,1.88,27.87,3.72,26.12-2.4,4.41-3.05,9.37-1.85,14.07,.3,1.19,.85,2.49,2.23,3.07,1.11,.47,2.49,.33,3.66-.03,3.34-1.04,5.39-3.72,6.22-6.42s.68-5.51,1.02-8.27c.62-5.14,2.95-10.16,6.7-14.44-2.8,2.2-.34-6.96-2.37-4.3-.65-6.06-2.54-8.37-2.57-14.45-.06-9.96-3.13-12.3,1.31-21.66,2.74,4.71,4.08,9.9,3.87,15.06,3.46-10.96,3.19-22.6-.77-33.46l-1.52,3.19c-1.25-2.01-2.3-4.09-3.15-6.22-3.42,4.25-2.56,9.95-6.07,14.15-.99-4.02-.58-8.16-.87-12.25s-1.43-8.36-4.94-11.44c-1.03,9.42-1.96,18.84-2.79,28.27-1.42-.77-1.67-2.29-1.79-3.63-.58-6.37-1.15-12.73-1.73-19.1-1.71,3.36-2.71,6.93-2.93,10.53-2.16-6.36-4.33-12.72-6.49-19.08" style="fill: #87554b;"/>
            <path d="M1032.93,468.87c-1.79,2.64-6.23,11.32-6.41,12.85-.25,3.05,4.28,1.63,4.03,4.78-.37,4.52-1.82,9.01-4.8,12.43-.64,.73-1.7,1.46-2.48,.88-.48-.35-1.27,.4-1.37,.56-1.01,1.66-1.61,8.68-3.14,9.87-.47-.85,5.41-17.86,6.42-25.81,.29-2.29,1.75-11.67,2.76-13.76,2.79-5.82,8.52-8.35,10.16-8.14,0,0-3.34,3.65-5.16,6.34Z" style="fill: #9e6e5c;"/>
            <path d="M1042.22,473.35c-1.29-1.38-6.15-.46-7.21,2.09-1.79,4.26,.71,15.21-2.25,20.32-.83,1.43-5.56,6.23-6.32,7.74,3.58-1.54,6.28-4.73,7.8-8.32s1.93-7.56,1.83-11.46c-.06-2.27,1.56-8.5,6.15-10.36Z" style="fill: #9e6e5c;"/>
            <path d="M925.28,523.23c1.61,.24,3.69,2.29,6.22,2.85-2.15,1.56-4.24-1.15-6.29-1.11-1.43,.02-9.7,.83-11.53,1.63-2.06,.9-6.06,2.35-7.54,3.45-1.6,1.2-2.14,1.61-3.7,2.08-1.52,.46-3.05,.44-5.56,2.17-1.73,1.2-2.56,3.54-5.7,3.19-3.72-.42-5.27-4.22-2.43-7.31,2.1-2.29,3.38-.21,5.76-3.16,1.47-1.83-2.6-.79-1.87-3.16,.26-.84,2.15-2.03,4.63-2.22,2.81-.22,5.3,.73,10.02,.64,5.36-.09,16.79,.77,18,.95Z" style="fill: #d6b096;"/>
            <path d="M945.87,493.18c.85,1.03,3.07,3.28,2.91,7.37-.19,4.82-3.28,7.1-8.43,8.08-2.79,.53-5.71-.25-8.45-.5-2.48-.23-6.36-.17-10.68-.69-4.9-.58-10.17-5.68-16.49-8.2-2.79-1.11-3.26,2.57-4.58,.63-.56-.82,.7-2.33,1.64-2.66s1.98-.27,2.87,.17c2.94,1.45,5.53,2.88,8.91,4.85,1.85,1.08,4.24,2.63,6.38,2.63,3.05,0,4.98-1.38,7.77-1.97,1.98-.41,9.19-3.56,13.59,1.59-.6,.08-1.08,.35-1.27,.83,.33,.48,2.09,.11,2.62-.15,1.59-.76,3.19-2.03,3.2-5.11,0-2.24-1.02-5.13-2.8-6.65-1.51-1.28-4.31-1.83-6.36-1.66,5.44-1.99,7.3-.86,9.18,1.41Z" style="fill: #9e6e5c;"/>
            <path d="M902.1,486.8c-1.41,1.49-2.51,2.17-4.23,3.38-3.52,2.48-2.69,7.67-.66,10,1.76,2.01,3.95,3.18,6.75,3.18,1.31,0,3.08-.43,4.14-.74-.25-.44-.46-.57-1.54-.78-.96-.18-6.05-.81-7.02-.89-2.64-.23-3.14-4.3-3.1-5.13,.13-2.57,1.6-4.11,3.45-5.59,.64-.51,2.4-2.05,3.1-2.6,1.06-.83-.89-.83-.89-.83Z" style="fill: #9e6e5c;"/>
            <path d="M879.49,443.95c-1.91-1.44-4.18-2.39-6.55-2.75-.69-.1-1.38-.16-2.06-.3-2.12-.45-4.08-1.76-6.25-1.69,1.64-1.09,3.81-.8,5.73-.39,3.72,.78,7.58,1.95,10.2,4.7" style="fill: #775c54;"/>
            <path d="M882.81,441.27c-2.22-.97-4.77-1.82-7.03-.94,2.02,.4,4.04,.79,6.05,1.19" style="fill: #775c54;"/>
            <path d="M879.3,535.81c.62-3.68,3.74-8.68,7.48-12.62,2.9-3.05,9.29-4.62,15.02-4.64,8.63-.03,14.55-.25,21.16,.83,7.23,1.18,12.37,2.23,15.7,2.9,2.46,.49,9.07,2.93,13.27,5.89,3.34,2.35,3.5,6.91,3.83,7.79,.16,.62,.15,1.17,0,1.81-.88-1.15-3.26-4.15-4.39-5.05-3.02-2.4-5.14-4.46-9.36-5.62s-10.04-2.35-14.29-3.39c-2.39-.58-15-2.64-22.68-2.46-11.78,.28-17.51,4.08-23.62,13.68-.34,.44-1.4,1.4-2.12,.87Z" style="fill: #9e6e5c;"/>
            <path d="M870.17,551.01c-.02-.24,.44-.03,.32,.18s-.43,.17-.65,.09c-2.52-.9-3.48-4.58-1.73-6.61-.74-.44-1.47-.88-2.21-1.31,1.85-1.05,4.2,.78,6.25,.22,.47-.13,.91-.38,1.4-.44,.53-.06,1.06,.12,1.55,.33,2.16,.93,4.04,2.5,5.32,4.47,.48,.74,.93,1.57,1.73,1.95,.84,.39,1.83,.15,2.73-.09,2.48-.68,4.95-1.36,7.43-2.04-.87,.92-1.74,1.84-2.62,2.76,1.87-.45,3.86-.36,5.68,.26-1.03,.04-2.05,.34-2.93,.88-.37,.23-.77,.65-.58,1.05,.11,.23,.39,.33,.64,.39,3.96,.91,8.03-3.71,11.69-1.96-1.13,.82-2.25,1.65-3.38,2.47,3.6-.06,7.22,.67,10.52,2.1,.88,.38,1.79,.82,2.74,.74,2.2-.19,3.2-2.87,5.06-4.07,.78-.5,1.7-.73,2.6-.97,3.74-1.01,7.37-2.42,10.81-4.2,.23-.12,.47-.25,.62-.46,.38-.56-.06-1.31,.02-1.98,.15-1.26,2.06-1.49,3.05-.7s1.41,2.09,2.12,3.15c2.6,3.91,8.8,4.27,11.07,8.38,.25,.46,.45,.99,.36,1.51-.13,.69-.73,1.18-1.33,1.55-2.11,1.3-4.61,1.79-6.95,2.59s-4.73,2.08-5.83,4.3c-.23,.46-.4,.95-.72,1.34-1.07,1.32-3.12,.97-4.78,.65-8.27-1.56-17.03,.93-25.13-1.36-5.9-1.67-10.87-5.73-16.69-7.66-2.49-.82-5.11-1.25-7.49-2.34-4.28-1.95-7.58-5.91-12.15-7" style="fill: #9e6e5c;"/>
            <path d="M907.03,537.52c6.17-4.64,14.49-3.78,24.46,2.99-9.35-3.37-12.12-4.39-23.78-2.34-.31,.05-.93-.46-.69-.65Z" style="fill: #9e6e5c;"/>
            <path d="M909.18,537.24c-.16-.45,4.95-1.88,7.63-1.75s7.95,1.73,7.95,2.04-4.67-1-8.35-1c-2.9,0-7.1,1.06-7.23,.71Z"/>
            <path d="M884.19,529.56c-.66-.31,3.9-7.72,10.34-9.36s17.89-1.44,26.38-.29c8.6,1.16,20.86,4.24,25.8,6.69,4.38,2.17,8.43,7.77,7.89,8.02s-2.74-4.61-10.76-7.39c-6.47-2.25-19.32-5.32-26.55-6.07s-19.26-1.26-23.35,.79c-8.14,4.07-8.85,8.04-9.76,7.61Z"/>
            <path d="M1014.94,512.48c-1.5,6.9-4.15,15.79-6.56,21.85s-9.06,18.86-21.85,23.77c21.36-10.47,21.69-38.08,28.42-45.62Z" style="fill: #ead7ca;"/>
            <path d="M900.39,502c1.46,.19,3.4,.35,5.55,.18-1.25,.94-4.02,.75-5.55-.18Z"/>
            <path d="M901.48,497.85c-.05-.47,1.39-.88,3.12-.25s12.27,7.67,15.58,7.67c3.02,0,11.59-3.82,14.33-3.69,3.71,.18,5.64,1.85,5.11,2.29s-2.06-1.07-4.92-1.07c-4.8,0-11.09,3.96-14.86,3.37-4.8-.75-10.94-5.95-16.11-7.7-1.68-.57-2.15,.25-2.24-.62Z"/>
            <path d="M944.86,494.05c.72,0,4.21,5.75,1.4,10.16-3.02,4.75-8.39,2.49-9.72,2.02s-4.12-.83-3.74-1.06c2.4-1.43,5.45,1.3,8.38,1.06s5.78-2.97,5.11-7.01c-.6-3.63-2.05-5.17-1.43-5.17Z"/>
            <path d="M845.7,410.7c-2.46,5.35-1.15,11.31-.85,16.94,.1,1.77,.09,3.54-.16,5.3-.05,.33,1.07,.37,1.12-.02,1-7.3-2.26-15.1,.96-22.1,.17-.36-.93-.45-1.08-.12h0Z" style="fill: #663931;"/>
            <path d="M843.9,404.36c.15,.51,.04,.98-.08,1.49s-.23,1.01-.35,1.51c-.25,1.07-.51,2.13-.78,3.19-.53,2.09-1.08,4.18-1.67,6.25-.07,.25,.23,.23,.37,.18,.22-.07,.5-.28,.57-.52,.6-2.14,1.18-4.28,1.72-6.43,.27-1.06,.52-2.12,.77-3.19,.21-.91,.68-2.05,.41-2.99-.12-.4-1.06,.18-.96,.52h0Z" style="fill: #663931;"/>
            <path d="M854.61,362.78c-3.4,6.45-5.84,13.39-7.23,20.55-.36,1.87-.66,3.77-.41,5.67,.12,.93,.34,1.85,.48,2.78s.13,1.87,.06,2.81c-.16,1.92-.37,3.83-.4,5.76s.03,3.88,.21,5.81c.2,2.17,.59,4.29,.97,6.43s.66,4.3,.1,6.41c-.1,.39,.9,.86,.98,.55,.98-3.68-.37-7.51-.83-11.17-.49-3.84-.55-7.74-.18-11.6,.09-.94,.21-1.88,.23-2.82s-.12-1.87-.29-2.8-.35-1.85-.38-2.8,.06-1.91,.19-2.85c.53-3.67,1.51-7.3,2.66-10.82,1.29-3.91,2.91-7.71,4.83-11.35,.17-.33-.81-.88-.98-.55h0Z" style="fill: #663931;"/>
            <path d="M854.39,374.15c-.82,1.02-1.19,2.25-1.23,3.54-.05,1.47,.32,2.92,.41,4.38,.2,3.02-.64,5.97-1.63,8.8-.57,1.62-1.19,3.22-1.75,4.85-.06,.18-.04,.4,.19,.37s.43-.4,.5-.59c.93-2.7,2.05-5.34,2.76-8.11,.35-1.37,.62-2.77,.68-4.18s-.12-2.8-.3-4.2-.33-3.13,.62-4.32c.11-.14,.35-.49,.22-.68s-.39,.03-.49,.15h0Z" style="fill: #663931;"/>
            <path d="M870.01,346.58c-.91,1.04-1.74,2.16-2.49,3.33-.12,.19,.11,.45,.25,.57,.09,.08,.48,.36,.6,.17,.74-1.17,1.58-2.28,2.49-3.33,.15-.17-.13-.47-.25-.57s-.45-.34-.6-.17h0Z" style="fill: #663931;"/>
            <path d="M878.11,336.51c-.84,1.41-2.28,2.23-3.52,3.23-1.37,1.11-2.33,2.54-2.58,4.32-.04,.26,.06,.54,.23,.74,.09,.1,.37,.3,.41,.03,.25-1.8,1.26-3.18,2.66-4.28,1.21-.94,2.57-1.77,3.37-3.12,.19-.31-.39-1.24-.58-.93h0Z" style="fill: #663931;"/>
            <path d="M880.99,333.2c-1.87,1-3.65,2.17-5.33,3.47-.17,.13-.17,.29,.05,.37s.6,.04,.79-.1c1.67-1.31,3.46-2.47,5.33-3.47,.21-.11,.14-.3-.05-.37-.25-.09-.56-.02-.79,.1h0Z" style="fill: #663931;"/>
            <path d="M873.37,335.22l-1,1.16c-.06,.07-.05,.16-.03,.25,.04,.12,.12,.25,.21,.35s.2,.2,.32,.24c.07,.03,.19,.07,.25,0l1-1.16c.06-.07,.05-.16,.03-.25-.04-.12-.12-.25-.21-.35s-.2-.2-.32-.24c-.07-.03-.19-.07-.25,0h0Z" style="fill: #663931;"/>
            <path d="M871.46,331.32l-2.66,3.99c-.13,.2-.23,.53-.13,.76s.31,.05,.4-.09l2.66-3.99c.13-.2,.23-.53,.13-.76s-.31-.05-.4,.09h0Z" style="fill: #6c4a40;"/>
            <path d="M895.17,312.69c-4.68,3.07-9.46,6.23-12.95,10.69-.11,.14-.37,.47-.24,.67s.4-.02,.49-.14c3.39-4.33,8.01-7.38,12.56-10.36,.21-.14,.42-.39,.45-.65,.02-.21-.11-.34-.31-.21h0Z" style="fill: #663931;"/>
            <path d="M895.73,317.69c-3.81,2.35-7.36,5.1-10.58,8.22-.29,.28,.35,1.19,.58,.96,3.22-3.11,6.76-5.87,10.58-8.22,.31-.19-.26-1.16-.58-.96h0Z" style="fill: #663931;"/>
            <path d="M901.58,321.61c-3.08,.71-6,1.99-8.62,3.76-.29,.2,0,1.27,.33,1.04,2.58-1.75,5.45-3,8.49-3.7,.37-.08,.16-1.19-.2-1.1h0Z" style="fill: #663931;"/>
            <path d="M902.38,324.12c-1.56,.09-3.08,.6-4.36,1.52-.2,.15,.02,.32,.17,.38,.22,.08,.57,.11,.77-.03,1.07-.78,2.34-1.26,3.67-1.33,.14,0,.5-.07,.42-.29s-.49-.25-.67-.24h0Z" style="fill: #663931;"/>
            <path d="M906.77,320.08c.33,0,.18-1.1-.22-1.1-.33,0-.18,1.1,.22,1.1h0Z" style="fill: #663931;"/>
            <path d="M906.51,318.43c-.56,.11-1.01,.44-1.52,.67-.55,.24-1.13,.23-1.68,0-1.13-.49-1.67-1.65-2.15-2.71-.07-.16-.24-.35-.38-.15s-.08,.58,.01,.77c.54,1.19,1.15,2.48,2.37,3.1,.54,.27,1.19,.38,1.77,.19s1.11-.64,1.74-.76c.37-.07,.2-1.18-.15-1.11h0Z" style="fill: #663931;"/>
            <path d="M908.37,318.73l-2.51-4.14c-.08-.14-.32-.45-.52-.34s0,.5,.07,.62l2.51,4.14c.08,.14,.32,.45,.52,.34s0-.5-.07-.62h0Z" style="fill: #663931;"/>
            <path d="M910.48,312.84c-2.07,.63-4.19,1.05-6.34,1.27-.15,.02-.55,.11-.52,.33s.45,.21,.59,.19c2.25-.23,4.47-.67,6.64-1.32,.15-.04,.47-.16,.35-.37-.11-.19-.55-.14-.71-.1h0Z" style="fill: #663931;"/>
            <path d="M920.79,303.06c-6.02,.21-11.61,2.72-16.71,5.74-1.46,.87-2.9,1.78-4.33,2.72-.52,.34,.53,.51,.81,.33,4.79-3.12,9.83-6.23,15.44-7.59,1.58-.38,3.19-.61,4.82-.67,.15,0,.56-.07,.54-.3s-.43-.24-.58-.23h0Z" style="fill: #663931;"/>
            <path d="M931.66,302.27c-6.77-.69-12.9,2.79-18.53,6.09-.36,.21,.44,.97,.74,.8,5.58-3.26,11.65-6.74,18.37-6.06,.26,.03,.15-.29,.08-.41-.14-.21-.4-.39-.65-.42h0Z" style="fill: #663931;"/>
            <path d="M926.09,306.33c-5.56,2.21-10.65,5.5-14.95,9.66-.23,.23,.64,.91,.93,.63,4.27-4.12,9.33-7.38,14.84-9.57,.34-.13-.47-.86-.81-.73h0Z" style="fill: #663931;"/>
            <path d="M929.63,311.42c-6.29,.63-12.33,3.19-17.15,7.29-1.35,1.14-2.58,2.4-3.71,3.76-.17,.2,.17,.28,.3,.28,.26,0,.54-.13,.7-.33,3.76-4.54,8.91-7.86,14.58-9.47,1.59-.45,3.23-.76,4.88-.93,.22-.02,.6-.1,.7-.33,.09-.21-.1-.3-.3-.28h0Z" style="fill: #663931;"/>
            <path d="M922.4,317.1c-2.66,2.17-5.62,3.97-8.77,5.33-1.53,.66-3.12,1.24-4.73,1.67-1.38,.37-3.15,.64-4.31-.41-.17-.15-.32-.08-.35,.13-.03,.24,.11,.58,.29,.74,1.92,1.73,4.84,.63,6.96-.1,2.66-.92,5.21-2.14,7.6-3.64,1.34-.84,2.62-1.77,3.84-2.76,.26-.21-.19-1.22-.52-.96h0Z" style="fill: #663931;"/>
            <path d="M915.86,325.78c-5.18,2.48-10.93,3.61-16.66,3.28-.35-.02-.74,1.02-.33,1.04,5.78,.33,11.6-.83,16.83-3.33,.23-.11,.38-.42,.41-.66,.02-.16,0-.45-.24-.34h0Z" style="fill: #663931;"/>
            <path d="M910.24,328.58c-4.04,2.25-8.79,3.09-13.35,2.36-.39-.06-.71,1-.39,1.05,4.68,.75,9.52-.1,13.65-2.41,.29-.16,.5-1.23,.09-1h0Z" style="fill: #663931;"/>
            <path d="M909.36,332.35c-3.36,1.54-6.87,2.77-10.46,3.65-3.07,.75-6.96,1.82-9.82-.07-.21-.14-.28,.14-.28,.3,0,.23,.11,.57,.32,.7,2.19,1.43,4.91,1.21,7.36,.74,2.88-.55,5.73-1.34,8.49-2.32,1.61-.57,3.19-1.22,4.74-1.93,.35-.16-.02-1.21-.33-1.07h0Z" style="fill: #663931;"/>
            <path d="M909.89,332.63c-2.87,2.97-6.94,4.28-10.41,6.37s-6.42,4.72-8.87,7.84c-1.39,1.76-2.59,3.66-3.61,5.66-.07,.14-.21,.52,0,.62s.42-.27,.48-.39c1.77-3.51,4.22-6.67,7.16-9.29,1.46-1.3,3.05-2.48,4.73-3.49s3.56-1.88,5.34-2.82c1.95-1.03,3.82-2.2,5.35-3.79,.15-.15,.34-.52,.25-.73-.1-.23-.28-.11-.41,.03h0Z" style="fill: #663931;"/>
            <path d="M886.42,347.92c-4.9,3.16-8.8,7.54-12.37,12.09-1.02,1.3-2.01,2.61-3.01,3.93-.13,.17-.29,.54-.18,.75s.29,.09,.41-.06c3.41-4.51,6.86-9.07,11.16-12.78,1.23-1.06,2.53-2.04,3.9-2.93,.21-.14,.34-.44,.35-.69,0-.15-.05-.46-.27-.31h0Z" style="fill: #663931;"/>
            <path d="M896.22,341.65c-3.71,1.26-7.64,1.7-11.54,1.3-.36-.04-.93,.9-.56,.93,3.95,.4,7.95-.04,11.71-1.31,.25-.08,.45-.3,.55-.54,.05-.13,.1-.47-.16-.38h0Z" style="fill: #663931;"/>
            <path d="M889.61,345.28c-4.45,4.19-8.86,8.43-13.22,12.71-.18,.18-.31,.49-.28,.74,.03,.22,.18,.3,.35,.13,4.36-4.29,8.76-8.53,13.22-12.71,.18-.17,.31-.49,.28-.74-.03-.22-.18-.29-.35-.13h0Z" style="fill: #663931;"/>
            <path d="M902.51,340.39c-2.94,6.04-6.55,11.74-10.75,16.98-.13,.17-.33,.51-.23,.74s.29,.12,.41-.03c4.32-5.39,8.03-11.26,11.05-17.47,.07-.14,.2-.53,0-.62s-.41,.27-.47,.4h0Z" style="fill: #663931;"/>
            <path d="M884.31,356.56c-1.52,2.53-3.04,5.07-4.56,7.6-.08,.13-.24,.43-.01,.51,.21,.07,.51-.25,.59-.4l4.56-7.6c.08-.13,.24-.43,.01-.51-.21-.07-.51,.25-.59,.4h0Z" style="fill: #663931;"/>
            <path d="M884.66,374.23c-6.07,4.19-9.91,10.7-12.87,17.3-.93,2.07-1.78,4.16-2.64,6.26-.09,.23,.03,.51,.17,.69,.06,.08,.38,.42,.47,.19,2.82-6.91,5.75-14.02,10.91-19.56,1.36-1.46,2.86-2.77,4.5-3.9,.32-.22-.25-1.18-.54-.99h0Z" style="fill: #663931;"/>
            <path d="M874.54,383.75c-3.56,5.49-6.91,11.13-10.02,16.89-.88,1.62-1.73,3.26-2.57,4.9-.08,.16-.25,.54-.09,.71s.38-.11,.45-.24c2.98-5.83,6.19-11.55,9.63-17.12,.97-1.57,1.96-3.13,2.96-4.68,.1-.15,.24-.55,.09-.71-.17-.17-.37,.12-.45,.24h0Z" style="fill: #663931;"/>
            <path d="M888.35,380.35c-7.06,5.16-11.52,12.85-16.49,19.85-1.41,1.98-2.87,3.93-4.45,5.78-.24,.28,.22,1.27,.46,.99,5.64-6.61,9.68-14.44,15.59-20.83,1.63-1.76,3.41-3.39,5.35-4.81,.27-.2-.12-1.24-.46-.99h0Z" style="fill: #663931;"/>
            <path d="M868.67,393.31c-.95,2.86-1.81,5.75-2.59,8.67-.39,1.46-.75,2.92-1.1,4.39s-.73,2.92-.87,4.41c-.02,.19,.02,.4,.25,.33,.22-.07,.37-.47,.39-.67,.14-1.49,.53-2.95,.87-4.41s.7-2.87,1.08-4.3c.76-2.86,1.61-5.69,2.54-8.49,.05-.15,.09-.49-.14-.49s-.39,.4-.44,.56h0Z" style="fill: #663931;"/>
            <path d="M870.77,403.07c-1.05,1.38-2.15,2.74-3.13,4.17s-1.39,2.99-2.17,4.47c-1.45,2.72-3.81,4.78-6.14,6.73-.37,.31,.7,.52,.96,.3,2.33-1.95,4.71-4.02,6.19-6.72,.8-1.46,1.23-3.07,2.15-4.47,.99-1.49,2.14-2.88,3.22-4.31,.22-.28-.85-.48-1.08-.18h0Z" style="fill: #663931;"/>
            <path d="M880.4,399.43c-2.59,5.23-5.47,10.91-10.92,13.67-1.4,.7-2.91,1.13-4.47,1.22-.18,.01-.59,.13-.62,.35-.04,.24,.31,.23,.46,.22,2.97-.17,5.78-1.45,8.09-3.28,2.5-1.98,4.39-4.6,5.97-7.35,.92-1.61,1.75-3.28,2.58-4.94,.11-.22-.36-.23-.46-.22-.23,.02-.51,.12-.62,.35h0Z" style="fill: #663931;"/>
            <path d="M897.95,382.45c-6.06,5.89-9.24,14.2-15.9,19.54-1.75,1.4-3.69,2.52-5.82,3.21-.36,.11-.05,1.19,.3,1.08,8.11-2.61,12.4-10.59,17.04-17.07,1.46-2.03,3.01-4,4.81-5.74,.26-.25-.15-1.27-.42-1h0Z" style="fill: #663931;"/>
            <path d="M904.24,362.06c-5.28,2.18-9.79,5.78-14,9.59-1.2,1.09-2.38,2.19-3.55,3.3-.31,.29,.61,.9,.86,.67,4.14-3.9,8.33-7.84,13.25-10.74,1.38-.81,2.81-1.54,4.3-2.15,.32-.13-.51-.82-.86-.67h0Z" style="fill: #663931;"/>
            <path d="M910.05,357.74c-6.69,2.25-13.18,5.08-19.38,8.46-1.76,.96-3.5,1.97-5.21,3.02-.33,.2,.56,.85,.87,.66,6.02-3.68,12.36-6.84,18.93-9.42,1.87-.73,3.76-1.42,5.66-2.06,.23-.08-.1-.42-.18-.48-.19-.15-.45-.27-.69-.19h0Z" style="fill: #663931;"/>
            <path d="M909.26,355.56c-5.84,1.92-11.68,3.84-17.52,5.76-.4,.13,.21,1.06,.54,.95l17.52-5.76c.4-.13-.21-1.06-.54-.95h0Z" style="fill: #663931;"/>
            <path d="M913.1,353.19c-5.13,2.24-10.34,4.29-15.63,6.13-.32,.11-.81,1.05-.23,.85,5.29-1.84,10.5-3.89,15.63-6.13,.23-.1,.46-.36,.51-.61,.05-.22-.07-.33-.28-.24h0Z" style="fill: #663931;"/>
            <path d="M922.96,340.82c-6.58,4.22-13.61,7.7-20.96,10.36-2.08,.75-4.19,1.44-6.31,2.06-.15,.04-.47,.17-.35,.37,.11,.19,.55,.14,.71,.1,7.62-2.22,14.99-5.29,21.93-9.14,1.98-1.1,3.91-2.26,5.82-3.48,.19-.12,.15-.29-.05-.37-.23-.09-.58-.03-.79,.1h0Z" style="fill: #663931;"/>
            <path d="M920.38,334.27c.12,2.88-2.38,5.02-4.42,6.68-2.4,1.97-4.98,3.71-7.7,5.21-1.52,.84-3.08,1.6-4.67,2.28-.31,.13-.6,1.18-.16,.99,3.09-1.32,6.05-2.94,8.82-4.83,1.39-.95,2.74-1.96,4.04-3.04,1.16-.96,2.28-1.99,3.16-3.21,.98-1.36,1.66-2.95,1.59-4.65,0-.23-.16-.28-.34-.15-.19,.15-.34,.48-.33,.72h0Z" style="fill: #663931;"/>
            <path d="M920.11,345.7c-6.02,3.64-12.07,7.21-18.17,10.72-.53,.31,.51,.52,.8,.36,6.09-3.51,12.15-7.08,18.17-10.72,.53-.32-.51-.53-.8-.36h0Z" style="fill: #663931;"/>
            <path d="M909.26,361.18c-4.91,2.12-9.06,5.51-12.94,9.13-1.12,1.04-2.21,2.1-3.31,3.16-.18,.17-.29,.51-.25,.75,.04,.22,.19,.28,.35,.12,4.79-4.64,9.73-9.41,15.94-12.09,.23-.1,.35-.36,.39-.6,.02-.09,.04-.57-.19-.47h0Z" style="fill: #663931;"/>
            <path d="M906.89,363.72c-4.67,3.88-9.37,7.81-13.05,12.68-.21,.27,.74,.86,.98,.55,3.65-4.83,8.32-8.73,12.95-12.58,.32-.26-.61-.88-.87-.65h0Z" style="fill: #663931;"/>
            <path d="M904.88,367.53c-2.4,2.27-4.56,4.79-6.45,7.51-.22,.31,.67,.99,.88,.7,1.88-2.72,4.04-5.23,6.45-7.51,.25-.23-.59-.97-.88-.7h0Z" style="fill: #663931;"/>
            <path d="M912.22,367.42c-3.45,4.41-8.49,7.07-12.73,10.6-1.2,1-2.34,2.07-3.37,3.25-.16,.19-.27,.52-.21,.76,.05,.21,.21,.28,.36,.1,3.66-4.22,8.72-6.82,12.88-10.48,1.17-1.03,2.27-2.14,3.23-3.37,.16-.2,.27-.51,.21-.76-.04-.2-.21-.29-.36-.1h0Z" style="fill: #663931;"/>
            <path d="M913.78,372.47l-4.82,1.99c-.2,.08-.25,.24-.05,.37s.56,.2,.79,.11l4.82-1.99c.2-.08,.25-.24,.05-.37s-.56-.2-.79-.11h0Z" style="fill: #663931;"/>
            <path d="M905.36,378.09c-4.58,2.63-9.16,5.27-13.74,7.9-.41,.24,.6,.63,.89,.47,4.58-2.63,9.16-5.27,13.74-7.9,.41-.24-.6-.63-.89-.47h0Z" style="fill: #663931;"/>
            <path d="M912.68,379.86c-5.1,4-8.43,9.65-12.35,14.71-2.12,2.74-4.47,5.28-6.98,7.66s-5.05,4.59-7.79,6.6c-3.01,2.21-6.32,4.11-9.96,5.04-.6,.15,.34,.65,.67,.57,6.53-1.68,11.96-6.17,16.84-10.63,2.6-2.38,5.07-4.91,7.3-7.65,2.06-2.54,3.9-5.25,5.86-7.87,2.18-2.93,4.54-5.75,7.42-8.02,.27-.22-.72-.65-1.01-.42h0Z" style="fill: #663931;"/>
            <path d="M916.68,381.55c-5.5,3.9-8.89,9.98-14.17,14.12-1.46,1.14-3.05,2.1-4.79,2.75-.14,.05-.44,.23-.3,.41s.55,.07,.71,0c6.48-2.42,10.4-8.37,14.97-13.19,1.36-1.44,2.82-2.78,4.44-3.93,.19-.14,.1-.31-.09-.36-.26-.07-.56,.05-.77,.2h0Z" style="fill: #663931;"/>
            <path d="M922.48,393.76c-3.75,2.77-7.51,5.54-11.26,8.31-.28,.2,.1,1.25,.44,1l11.26-8.31c.28-.2-.1-1.25-.44-1h0Z" style="fill: #663931;"/>
            <path d="M924.81,396.54c-3.67,3.47-7.67,6.59-11.95,9.29-2.15,1.36-4.37,2.61-6.64,3.75s-4.56,2.22-6.96,3.02c-2.77,.93-5.81,1.47-8.61,.34-.23-.09-.57-.1-.79,.03-.19,.11-.2,.28,.02,.37,5.13,2.07,10.75-.38,15.4-2.57s9.33-4.99,13.56-8.15c2.43-1.81,4.75-3.77,6.95-5.85,.34-.33-.73-.46-.98-.23h0Z" style="fill: #663931;"/>
            <path d="M927.64,391.73c-3.7,3.45-7.65,6.63-11.8,9.51-.4,.28,.64,.61,.91,.42,4.2-2.92,8.19-6.13,11.93-9.62,.25-.23-.77-.56-1.05-.31h0Z" style="fill: #663931;"/>
            <path d="M942.95,379.03c-4.48,3.79-9.08,7.44-13.79,10.93-.29,.21,.42,1.09,.72,.86,4.71-3.5,9.31-7.14,13.79-10.93,.28-.24-.44-1.1-.72-.86h0Z" style="fill: #663931;"/>
            <path d="M935.46,377.59c-3.86,4.66-7.86,9.19-11.99,13.61-.24,.25,.32,1.21,.61,.91,4.13-4.41,8.13-8.95,11.99-13.61,.22-.27-.35-1.22-.61-.91h0Z" style="fill: #663931;"/>
            <path d="M953.57,377.43l-8.63,11.15c-.09,.12-.29,.4-.08,.5,.2,.09,.53-.19,.64-.32l8.63-11.15c.09-.12,.29-.4,.08-.5-.2-.09-.53,.19-.64,.32h0Z" style="fill: #663931;"/>
            <path d="M956.42,375.38c-2.1,6.27-5.24,12.18-9.28,17.42-1.15,1.49-2.37,2.93-3.66,4.31-.22,.23,.7,.86,.97,.57,4.51-4.83,8.21-10.41,10.89-16.46,.76-1.72,1.44-3.48,2.04-5.27,.13-.38-.87-.88-.97-.57h0Z" style="fill: #663931;"/>
            <path d="M944.41,392.3c-1.97,5.53-6.18,9.83-10.69,13.41-1.37,1.09-2.78,2.12-4.2,3.15-.27,.2,.47,1.02,.79,.79,4.84-3.49,9.7-7.23,12.88-12.38,.84-1.36,1.55-2.8,2.09-4.3,.12-.33-.73-1.04-.87-.66h0Z" style="fill: #663931;"/>
            <path d="M954.06,390.83c-2.47,2.64-5.32,4.91-8.45,6.71-.42,.24,.58,.66,.88,.49,3.18-1.83,6.08-4.12,8.59-6.81,.26-.28-.77-.66-1.02-.4h0Z" style="fill: #663931;"/>
            <path d="M966.68,375.97c-3.99,3.46-5.17,8.89-8.59,12.78-.93,1.06-2.02,1.96-3.29,2.6-.3,.15-.51,1.22-.07,1,4.77-2.37,6.46-7.8,9.12-12.01,.82-1.29,1.76-2.49,2.91-3.5,.26-.22,.38-1.28-.09-.87h0Z" style="fill: #663931;"/>
            <path d="M968.48,380.68l-9.34,9.03c-2.96,2.86-5.86,5.84-9,8.5-1.51,1.28-3.12,2.47-4.84,3.46-1.63,.94-3.34,1.72-5.07,2.45-3.5,1.47-7.1,2.69-10.47,4.45-3.81,1.99-7.8,5.48-12.41,4.25-.34-.09-.97,.82-.57,.93,4.05,1.08,7.77-1.44,11.09-3.39s7.08-3.33,10.71-4.79,7.11-3.13,10.21-5.54c3.27-2.54,6.17-5.54,9.15-8.41l10.74-10.38c.13-.13,.4-.45,.29-.65s-.39,0-.5,.1h0Z" style="fill: #663931;"/>
            <path d="M975.85,380.89c-2.94,2.25-6,4.35-9.15,6.3-.31,.19,.6,.79,.91,.6,3.15-1.95,6.2-4.05,9.15-6.3,.31-.24-.62-.82-.91-.6h0Z" style="fill: #663931;"/>
            <path d="M973.83,384.45c-2.53,2.49-5.31,4.72-8.06,6.95-2.56,2.08-5.18,4.11-8.02,5.82-1.63,.98-3.33,1.84-5.1,2.54-.45,.18,.49,.72,.81,.59,6.3-2.48,11.53-6.96,16.68-11.24,1.6-1.33,3.17-2.69,4.65-4.15,.28-.28-.71-.77-.96-.52h0Z" style="fill: #663931;"/>
            <path d="M989.98,358.73c-.95,1.1-1.56,2.41-2.16,3.72-.63,1.39-1.31,2.76-2.06,4.1-1.49,2.64-3.23,5.13-5.2,7.44-1.11,1.3-2.28,2.54-3.52,3.71-.24,.23-.17,1.32,.18,.99,4.35-4.14,7.92-9.08,10.49-14.52,.72-1.53,1.32-3.16,2.44-4.46,.17-.19,.21-.51,.16-.76-.03-.14-.17-.43-.34-.23h0Z" style="fill: #663931;"/>
            <path d="M984.34,354.38c-1.92,7.75-4.66,15.31-8.18,22.48-.99,2.03-2.05,4.02-3.16,5.99-.08,.13-.24,.51-.04,.62s.43-.24,.5-.36c4-7.07,7.24-14.56,9.67-22.32,.69-2.21,1.31-4.44,1.87-6.68,.05-.19,.01-.4-.22-.35s-.41,.43-.45,.63h0Z" style="fill: #663931;"/>
            <path d="M990.79,357.37c-1.02,3.48-1.79,7.03-2.28,10.62-.02,.15,.01,.49,.24,.45s.3-.47,.32-.64c.47-3.39,1.19-6.75,2.16-10.04,.05-.18,.16-.58-.04-.71s-.36,.17-.4,.32h0Z" style="fill: #663931;"/>
            <path d="M987.44,363.93c-1.64,3.93-3.44,8.14-7.01,10.69-.21,.15-.34,.42-.36,.68-.01,.14,.05,.47,.26,.32,3.87-2.77,5.82-7.25,7.6-11.5,.06-.14,.16-.54-.04-.62s-.39,.3-.45,.43h0Z" style="fill: #663931;"/>
            <path d="M988.28,368.53c-1.82,5.03-5.46,9.08-8.99,12.99-.17,.18-.26,.52-.2,.77,.05,.22,.21,.27,.36,.1,3.65-4.04,7.36-8.23,9.24-13.43,.06-.17,.18-.57,0-.71s-.36,.16-.41,.3h0Z" style="fill: #663931;"/>
            <path d="M992.75,354.14c.28,3.74,.55,7.58-.59,11.21-.11,.35,.69,1.09,.8,.74,1.16-3.69,.9-7.58,.62-11.38-.02-.26-.21-.51-.42-.65-.12-.08-.43-.19-.41,.08h0Z" style="fill: #663931;"/>
            <path d="M995.21,342.69c-.58,5.36-.33,10.78,.75,16.05,.05,.22,.2,.26,.36,.1,.17-.17,.27-.53,.22-.76-1.05-5.11-1.32-10.35-.76-15.54,.02-.15,.03-.49-.2-.47-.22,.03-.35,.45-.37,.61h0Z" style="fill: #663931;"/>
            <path d="M997.79,350.16c-2.3,7.09-2.28,14.57-3.26,21.89-.28,2.08-.65,4.15-1.18,6.18-.04,.15-.08,.49,.16,.48s.38-.41,.42-.57c1.86-7.11,1.73-14.52,2.92-21.74,.34-2.04,.79-4.07,1.43-6.04,.05-.15,.18-.53-.04-.62-.2-.08-.41,.29-.45,.43h0Z" style="fill: #663931;"/>
            <path d="M991.01,376.68c1.33,2.22,1.2,4.9,.77,7.36-.49,2.76-1.28,5.49-.94,8.32,.03,.26,.31,.08,.41-.02,.18-.18,.29-.47,.26-.73-.63-5.23,3.09-10.87,.11-15.84-.19-.32-.81,.58-.62,.9h0Z" style="fill: #663931;"/>
            <path d="M993.16,380.07c-.44,7.44-.88,14.94-2.64,22.22-.86,3.53-2.26,6.98-2.57,10.63-.28,3.27,.42,6.54,2.58,9.08,1.13,1.33,2.53,2.4,3.99,3.35,1.67,1.09,3.42,2.07,5.21,2.96,.23,.12,.25-.21,.22-.35-.05-.25-.23-.51-.46-.62-1.57-.78-3.1-1.64-4.58-2.58-1.26-.79-2.49-1.66-3.55-2.71s-1.91-2.37-2.34-3.85c-.44-1.56-.5-3.2-.34-4.8,.35-3.5,1.67-6.82,2.51-10.21s1.39-6.9,1.77-10.4c.44-3.98,.68-7.99,.91-11.99,.02-.26-.1-.53-.29-.72-.1-.09-.4-.27-.41,0h0Z" style="fill: #663931;"/>
            <path d="M1000.35,369.75c.07,2.81,.15,5.61,.2,8.42s0,5.5-.53,8.2c-.05,.24,.41,.12,.5,.09,.22-.09,.46-.26,.51-.5,.53-2.7,.58-5.46,.53-8.2s-.13-5.61-.2-8.42c0-.39-1.02,.05-1.01,.41h0Z" style="fill: #663931;"/>
            <path d="M1018.34,346.2c-1.43,2.23-3.01,4.36-4.72,6.38-.15,.17-.32,.5-.25,.73s.3,.11,.41-.03c1.77-2.09,3.41-4.3,4.89-6.6,.1-.16,.28-.52,.13-.7s-.39,.1-.46,.21h0Z" style="fill: #663931;"/>
            <path d="M1013.87,335.29c1.69,6.1,1.59,12.62-.31,18.66-1.73,5.51-4.75,10.48-7.22,15.66-1.39,2.92-2.61,5.94-3.32,9.11-.09,.39,1.01,.28,1.09-.07,1.28-5.69,4.17-10.8,6.77-15.95,1.3-2.58,2.54-5.19,3.48-7.93,1-2.91,1.6-5.94,1.77-9.01,.2-3.6-.19-7.22-1.15-10.69-.1-.37-1.2-.13-1.1,.22h0Z" style="fill: #663931;"/>
            <path d="M1002.93,379.7c-.6,3.89-1.2,7.78-1.8,11.67l-.89,5.79c-.29,1.88-.57,3.78-1.01,5.63s-1.12,3.54-1.69,5.31-.87,3.52-.89,5.37,.17,3.79,.4,5.66,.54,3.7,.92,5.53c.42,1.99,.91,3.98,1.55,5.91,.46,1.37,1.17,2.85,2.65,3.31,.31,.1,.48-1,.1-1.12-1.32-.41-1.93-1.8-2.32-3.01-.56-1.7-.99-3.44-1.38-5.18-.77-3.51-1.33-7.13-1.39-10.73-.03-1.83,.25-3.57,.82-5.31s1.2-3.33,1.62-5.06c.88-3.55,1.28-7.24,1.84-10.85l1.94-12.59c.03-.18,.09-.59-.12-.7s-.33,.21-.36,.36h0Z" style="fill: #663931;"/>
            <path d="M1005.88,392.85c-.77,3.39-1.53,6.78-2.31,10.17s-1.69,6.77-2.47,10.17c-.43,1.86-.75,3.75-.79,5.67,0,.23,.16,.29,.33,.16,.2-.14,.34-.47,.35-.71,.07-3.4,1.08-6.69,1.89-9.97s1.59-6.73,2.36-10.1c.43-1.9,.86-3.8,1.29-5.69,.04-.19-.01-.4-.24-.34s-.38,.45-.42,.65h0Z" style="fill: #663931;"/>
            <path d="M1005.28,389.48c-.96,3.1-1.91,6.19-2.87,9.29-.1,.32,.35,1.29,.53,.7,.96-3.1,1.91-6.19,2.87-9.29,.1-.32-.35-1.29-.53-.7h0Z" style="fill: #663931;"/>
            <path d="M969.29,460.71c11.03-.5,18.7,4.66,20.91,6.33,2.37,1.79,4.11,2.68,6.05,6.79,.85,1.8,2.67,2.15,3.77,2.56-1.57,.14-3.34-.28-4.42,.31-.71,.39-2.24-.33-3.05-.31-3.92,.09-3.96-1.29-7.85-1.74-1.82-.21-5.08,.01-6.86,.5-2.48,.68-5.52,1.4-7.98,1.59-1.12,.09-2.9,0-4.64-.65,13.49-.88,11.9-10.1,4.08-15.37Z" style="fill: #775c54;"/>
            <path d="M1008.78,395.92c-.54,5.65-2.72,10.93-4.44,16.29-1.54,4.77-2.68,9.79-2.12,14.83,.3,2.73,1.16,5.38,2.7,7.66,.21,.31,.79-.61,.59-.92-2.78-4.12-3.15-9.27-2.45-14.07,.77-5.24,2.83-10.16,4.41-15.19,.91-2.91,1.67-5.88,1.97-8.92,.07-.73-.62-.08-.65,.32h0Z" style="fill: #663931;"/>
            <path d="M948.44,469.43c1.74-3.55,2.68-12.65,20.13-9.1,19.51,3.97,22.44,11.34,23.56,12.78,1.68,1.12,4.21,2.32,6.22,2.97-6.22-.54-10.95-3.26-13.26-3.96-10.66,3.96-37.66-.62-36.64-2.69Z"/>
            <path d="M1016.31,386.62c.21,3.33-.82,6.52-2.03,9.57s-2.55,6.12-3.4,9.35c-1.73,6.52-2.05,13.33-1.63,20.03,.23,3.8,.7,7.57,1.29,11.33,.04,.24,.43-.02,.5-.09,.18-.16,.34-.4,.31-.65-1.04-6.68-1.7-13.46-1.32-20.22,.19-3.35,.64-6.69,1.45-9.95s2.08-6.35,3.34-9.48c1.34-3.33,2.56-6.82,2.34-10.47-.03-.48-.85,.23-.83,.57h0Z" style="fill: #663931;"/>
            <path d="M958.01,470.62c-2.46-2.03-3.9-3.12-1.53-5.64,.87,1.56,.72,3.37,1.53,5.64Z" style="fill: #fcf5f0;"/>
            <path d="M1022.63,365.88c.44,3.18,.32,6.41-.38,9.55-.03,.15-.07,.49,.17,.48,.22,0,.38-.42,.41-.58,.73-3.3,.88-6.71,.42-10.06-.03-.22-.18-.28-.35-.13-.18,.16-.31,.51-.28,.74h0Z" style="fill: #663931;"/>
            <path d="M1024.89,370.43c0,2.98,.8,5.87,1.5,8.75,.36,1.48,.7,2.97,.89,4.49s.27,3.09,.29,4.64c.02,1.8-.04,3.59-.11,5.39-.01,.33,.8,1.06,.82,.58,.11-3.13,.22-6.27-.11-9.39s-1.17-5.82-1.82-8.72c-.37-1.69-.65-3.41-.65-5.14,0-.25-.22-.52-.41-.65-.13-.09-.41-.18-.41,.07h0Z" style="fill: #663931;"/>
            <path d="M1025.18,364.25c.36,2.98,1.09,5.9,2.16,8.7,.13,.33,.84-.49,.71-.83-1.05-2.75-1.76-5.61-2.12-8.53-.03-.25-.29-.13-.41-.03-.18,.15-.37,.45-.34,.7h0Z" style="fill: #663931;"/>
            <path d="M1028.3,377.52c.61,5.06,1.88,10.27,.66,15.34-.05,.21-.08,.61,.11,.77s.31-.01,.36-.21c1.29-5.37,.03-10.83-.62-16.2-.02-.15-.12-.48-.33-.39s-.19,.52-.17,.69h0Z" style="fill: #663931;"/>
            <path d="M1032.63,392.54c.58,7.64,.45,15.4-1.24,22.9-.84,3.72-2.11,7.31-3.33,10.91s-2.34,7.27-3.05,11.04c-.81,4.3-1.23,8.65-1.65,13-.03,.36,.91,.92,.95,.54,.37-3.84,.74-7.68,1.38-11.49s1.64-7.52,2.87-11.19,2.52-7.18,3.45-10.87,1.48-7.49,1.73-11.3c.28-4.33,.18-8.67-.15-12.99-.02-.25-.23-.45-.44-.56-.08-.04-.53-.22-.51,.02h0Z" style="fill: #663931;"/>
            <path d="M1036.03,393.02c-.07,3.55-.07,7.11-.26,10.65-.17,3.17-.63,6.41-2.34,9.15-.19,.31,.33,1.26,.51,.96,1.72-2.76,2.25-5.99,2.44-9.19,.21-3.65,.2-7.32,.28-10.97,0-.26-.08-.57-.28-.74-.16-.14-.34-.11-.35,.13h0Z" style="fill: #663931;"/>
            <path d="M1033.87,412.52c-1.17,10.99-4.92,21.47-7.13,32.26-.63,3.05-1.13,6.13-1.43,9.23-.01,.15-.02,.56,.2,.59s.31-.39,.32-.53c1.05-11.01,4.77-21.5,7.05-32.27,.65-3.05,1.17-6.12,1.5-9.22,.02-.15,.02-.56-.2-.59s-.31,.39-.32,.53h0Z" style="fill: #663931;"/>
            <path d="M1025.83,365.17c2.63,5.38,4.3,11.19,4.92,17.15,.18,1.71,.26,3.42,.27,5.14,0,.21,.08,.61,.3,.71s.29-.09,.29-.29c-.01-6.23-1.14-12.43-3.29-18.28-.61-1.65-1.3-3.27-2.08-4.85-.07-.14-.23-.44-.42-.29-.17,.13-.07,.56,0,.71h0Z" style="fill: #663931;"/>
            <path d="M1025.86,359.15c3.02,6.38,6.03,12.75,9.05,19.13l2.59,5.48c.14,.3,1.09-.28,.92-.64-3.02-6.38-6.03-12.75-9.05-19.13l-2.59-5.48c-.14-.3-1.09,.28-.92,.64h0Z" style="fill: #663931;"/>
            <path d="M1028.81,357.05c1.96,3.11,3.24,6.62,3.72,10.27,.05,.4,1.15,.46,1.11,.16-.49-3.7-1.75-7.25-3.74-10.41-.13-.21-.42-.28-.66-.28-.09,0-.56,.06-.43,.27h0Z" style="fill: #663931;"/>
            <path d="M1034.17,370.25c1.34,4.55,4.15,8.68,4.63,13.48,.02,.15,.13,.55,.35,.51s.19-.45,.18-.59c-.49-4.92-3.32-9.11-4.69-13.77-.04-.15-.18-.46-.38-.34-.19,.12-.13,.55-.08,.71h0Z" style="fill: #663931;"/>
            <path d="M1035.86,362.45c.02,3.21,.11,6.39,1.18,9.46,.99,2.83,2.55,5.59,2.58,8.66,0,.25,.22,.46,.42,.58,.08,.05,.51,.24,.51,0-.03-2.99-1.41-5.67-2.44-8.42-1.17-3.14-1.31-6.38-1.32-9.7,0-.25-.22-.46-.42-.58-.08-.05-.51-.24-.51,0h0Z" style="fill: #663931;"/>
            <path d="M1041.16,376.48c.53,5.2,.95,10.41,1.26,15.63,.01,.23,.16,.29,.34,.16,.19-.14,.35-.48,.33-.72-.31-5.22-.73-10.43-1.26-15.63-.06-.62-.71,.22-.67,.56h0Z" style="fill: #663931;"/>
            <path d="M1043.56,370.2c.67,3.47,.84,7.02,.48,10.53-.06,.62,.73-.09,.76-.43,.36-3.59,.21-7.2-.47-10.74-.09-.48-.84,.3-.78,.64h0Z" style="fill: #663931;"/>
            <path d="M1041.38,394.94c.29,3.38,.57,6.76,.86,10.14,.03,.33,1.12,.51,1.09,.09-.29-3.38-.57-6.76-.86-10.14-.03-.33-1.12-.51-1.09-.09h0Z" style="fill: #663931;"/>
            <path d="M1045.12,401.27c1.37,6.54-.19,13.25-2.23,19.47-.59,1.8-1.23,3.57-1.87,5.35-.08,.23,.05,.51,.19,.69,.06,.08,.4,.4,.48,.17,2.3-6.36,4.64-12.94,4.68-19.79,.01-1.9-.18-3.78-.57-5.64-.08-.39-.83-.97-.68-.25h0Z" style="fill: #663931;"/>
            <path d="M1040.94,402.33c.38,2.32,.77,4.64,.88,6.99s-.09,4.73-.39,7.07c-.6,4.7-1.41,9.38-2.12,14.06-.41,2.67-.82,5.34-1.23,8.01-.04,.26,.28,.17,.4,.1,.22-.12,.42-.37,.46-.62,.73-4.79,1.47-9.58,2.2-14.36s1.67-9.39,1.56-14.14c-.06-2.62-.48-5.22-.91-7.8-.06-.34-.9,.33-.84,.69h0Z" style="fill: #663931;"/>
            <path d="M1041.49,452.44c-.42,2.73-1.78,5.24-3.87,7.05-.19,.17-.37,.44-.37,.7,0,.21,.15,.33,.33,.17,2.43-2.1,4.09-5.04,4.57-8.21,.03-.18,.01-.42-.23-.35-.22,.07-.41,.43-.44,.64h0Z" style="fill: #663931;"/>
            <path d="M1046.66,447.83c-.18,3.19-.96,6.27-2.3,9.06-.14,.29,.25,1.28,.46,.85,1.36-2.84,2.16-6.01,2.34-9.26,.01-.26-.03-.57-.19-.76-.12-.14-.29-.14-.31,.11h0Z" style="fill: #663931;"/>
            <path d="M1049.03,383.03c.87,5.8,1.73,11.6,2.6,17.41,.43,2.86,.79,5.68,.25,8.55s-1.47,5.42-2.44,8.02c-1.08,2.93-2.34,5.8-3.73,8.6-.07,.14-.2,.52,0,.62s.42-.27,.48-.39c1.28-2.57,2.44-5.2,3.47-7.89s1.99-5.43,2.65-8.23c.32-1.38,.53-2.78,.55-4.19s-.14-2.83-.33-4.24c-.41-2.99-.89-5.96-1.33-8.94-.5-3.36-1-6.72-1.51-10.08-.04-.26-.32-.08-.41,.03-.17,.19-.28,.48-.24,.73h0Z" style="fill: #663931;"/>
            <path d="M1048.28,411.14c-.16,1.35-.1,2.7-.11,4.05s-.06,2.71-.15,4.06c-.19,2.77-.57,5.53-1.13,8.25-.08,.41,1.02,.36,1.09,.03,.56-2.71,.94-5.45,1.15-8.21,.1-1.38,.16-2.77,.16-4.15s-.06-2.77,.11-4.14c.04-.32-1.07-.28-1.12,.11h0Z" style="fill: #663931;"/>
            <path d="M1048.85,374.95c.46,2.51,1.04,5.01,1.72,7.47,.09,.32,1.12-.09,1.02-.47-.69-2.46-1.26-4.95-1.72-7.47-.06-.31-1.09,.07-1.02,.47h0Z" style="fill: #663931;"/>
            <path d="M1051.96,377.35c3.16,4.74,4.22,10.69,2.92,16.23-.06,.25,.06,.55,.22,.74,.1,.11,.35,.3,.41,.04,1.39-5.96,.19-12.41-3.2-17.49-.08-.13-.29-.41-.45-.23-.15,.16,0,.57,.1,.71h0Z" style="fill: #663931;"/>
            <path d="M1043.85,359.94c3.78,7.16,10.12,13.15,11.79,21.31,.45,2.22,.51,4.49-.03,6.7-.04,.15-.04,.49,.18,.47s.35-.43,.39-.6c2.03-8.44-3.39-15.98-7.91-22.53-1.38-2.01-2.74-4.04-3.88-6.2-.23-.43-.72,.54-.56,.84h0Z" style="fill: #663931;"/>
            <path d="M1030.14,350.4c3.8,3.58,9.24,5.39,12.17,9.88,.22,.34,.94-.5,.75-.79-2.97-4.56-8.42-6.37-12.26-10-.25-.23-.94,.64-.66,.91h0Z" style="fill: #663931;"/>
            <path d="M1026.31,343.06c-.71,1.47-1.94,2.55-3.19,3.57s-2.55,2.07-3.75,3.19c-2.44,2.27-4.68,4.77-6.61,7.49-1.1,1.54-2.09,3.15-2.98,4.82-.19,.35,.69,1.02,.84,.74,3.15-5.91,7.65-10.95,12.87-15.12,1.41-1.13,2.86-2.29,3.67-3.95,.18-.36-.71-1.02-.84-.74h0Z" style="fill: #663931;"/>
            <path d="M1012.14,348.24c-1.41,5.05-3.11,10.01-5.1,14.86-.13,.32,.71,1.05,.86,.67,1.99-4.85,3.69-9.81,5.1-14.86,.1-.35-.76-1.04-.86-.67h0Z" style="fill: #663931;"/>
            <path d="M1009.44,336.66c-.33,6.3-1.47,12.54-3.4,18.55-.55,1.73-1.18,3.43-1.86,5.11-.06,.14-.18,.53,.03,.62s.41-.29,.46-.42c2.44-6,4.1-12.31,4.92-18.73,.23-1.82,.39-3.65,.49-5.48,.04-.73-.62-.05-.64,.35h0Z" style="fill: #663931;"/>
            <path d="M1011.87,334.97c.16,4.2-.13,8.41-.85,12.56-.07,.39,1.02,.21,1.08-.14,.72-4.19,1.01-8.45,.85-12.7-.01-.32-1.1-.11-1.08,.29h0Z" style="fill: #663931;"/>
            <path d="M1005.34,336.58c.99,2.81,1.26,5.82,.82,8.77-.04,.24,.42,.1,.5,.06,.22-.1,.44-.28,.48-.53,.45-3,.14-6.05-.87-8.91-.11-.3-1.08,.23-.94,.61h0Z" style="fill: #663931;"/>
            <path d="M1003.4,341.63c-1.17,7.86-4.06,15.36-5.03,23.25-.27,2.19-.37,4.38-.26,6.58,0,.18,.11,.59,.33,.63,.24,.04,.24-.31,.23-.45-.38-7.81,2.18-15.34,3.98-22.84,.51-2.14,.97-4.3,1.29-6.48,.04-.25,0-.57-.17-.77-.13-.16-.33-.16-.36,.08h0Z" style="fill: #663931;"/>
            <path d="M1024.55,342.09c1.29-5.69,1.72-11.55,1.26-17.37-.02-.26-.17-.52-.38-.67-.11-.08-.43-.22-.41,.05,.46,5.76,.05,11.57-1.23,17.21-.05,.24,.1,.49,.26,.66,.06,.07,.44,.36,.49,.12h0Z" style="fill: #663931;"/>
            <path d="M1022.65,335.92c.48-5.98-.04-12.02-1.51-17.84-.09-.34-1.19-.45-1.09-.06,1.46,5.77,1.97,11.76,1.5,17.7-.03,.38,1.08,.55,1.1,.2h0Z" style="fill: #663931;"/>
            <path d="M1019.77,332.61l-.16-3.66c-.02-.36-1.13-.29-1.12,.09l.16,3.66c.02,.36,1.13,.29,1.12-.09h0Z" style="fill: #663931;"/>
            <path d="M1012.94,320.41c.04-2.36-.61-4.68-1.83-6.7-.18-.29-1.08,.37-.88,.7,1.2,1.97,1.81,4.25,1.78,6.56,0,.24,.42,.06,.51,0,.2-.12,.42-.33,.42-.57h0Z" style="fill: #663931;"/>
            <path d="M1011.21,331.86c.93-6.26-.76-12.78-4.46-17.9-1.06-1.46-2.27-2.8-3.62-3.99-.12-.1-.41-.28-.5-.07s.2,.52,.33,.63c4.45,3.93,7.15,9.66,7.6,15.55,.13,1.69,.07,3.39-.18,5.07-.04,.24,.15,.49,.33,.63,.08,.06,.47,.31,.5,.07h0Z" style="fill: #663931;"/>
            <path d="M1008.64,329.11c-.25-3.17-1.29-6.24-3.02-8.9-1.9-2.92-4.63-5.21-7.14-7.58-.11-.1-.37-.32-.49-.12-.11,.19,.15,.55,.27,.66,2.32,2.19,4.89,4.3,6.69,6.97,1.67,2.47,2.66,5.39,2.9,8.36,.02,.26,.18,.51,.39,.67,.11,.08,.43,.21,.41-.06h0Z" style="fill: #663931;"/>
            <path d="M1003.86,330.63c-1.54-5.99-4.98-11.42-9.7-15.42-1.35-1.14-2.8-2.16-4.33-3.05-.22-.13-.54-.12-.77-.02-.14,.05-.39,.25-.17,.38,5.29,3.05,9.55,7.76,12.11,13.29,.73,1.58,1.31,3.23,1.75,4.92,.1,.38,1.2,.22,1.12-.11h0Z" style="fill: #663931;"/>
            <path d="M947.14,468.32c-.06,.62-.52,1.19-1.11,1.39-2.1-2.39-4.34-5.13-4.18-8.31,.06-1.26,.51-2.47,.95-3.66,.64-1.72,1.3-3.48,2.49-4.88,2.43-2.87,6.5-3.64,10.26-3.84s7.68-.03,11.06-1.66c-2.18-.29-4.38-.38-6.58-.26,1.5-1.22,3.7-.76,5.56-.24,5.86,1.63,11.73,3.27,17.49,5.22,1.04,.35,2.09,.72,3.01,1.32,2.05,1.34,3.2,3.66,4.26,5.87,.16,.34,.33,.72,.26,1.09-1.36-1.13-2.73-2.27-4.09-3.4-.89-.74-2.03-1.52-3.1-1.09,.69,.82,1.38,1.63,2.07,2.45-1.2-.11-1.98-1.27-3-1.92-.83-.53-1.83-.71-2.8-.88-2.24-.39-4.49-.78-6.73-1.17-3.22-.56-6.64-1.1-9.68,.1,1.33,.28,2.66,.57,4,.85-1.44,.98-3.25,1.18-4.95,1.55-3.57,.78-6.94,2.42-9.75,4.75-.5,.41-1.02,.91-1.08,1.56-.03,.36,.08,.71,.14,1.07,.4,2.35-1.56,4.38-3.35,5.95-.43-.33-.71-.85-.74-1.38" style="fill: #775c54;"/>
            <path d="M887.49,464.66c5.86,0,16.07,.9,15.67-1.43s1.37-10.18-9.25-12.11c-22.93-4.18-26.49,4.18-36.89,5.86,6.73,.5,12.96-.62,14.58-1,1.68,3.18,5.04,8.69,15.89,8.69Z"/>
            <path d="M960.22,464.32c-.97,.79,.12,1.81,1.12,1.62,.9-.17,3.42-.93,2.2-2.1-.61-.58-2.45-.23-3.32,.48Z" style="fill: #d6b096;"/>
            <path d="M984.65,314.41c5.2,3.35,10.81,7.05,13.09,13.1,.14,.36,.95-.37,.83-.71-2.3-6.1-7.92-9.84-13.17-13.22-.33-.21-1.03,.65-.75,.84h0Z" style="fill: #663931;"/>
            <path d="M986.66,319.3c4.84,2.51,9.08,6.1,12.4,10.43,.2,.27,1.29,.27,1-.12-3.42-4.45-7.8-8.09-12.77-10.67-.35-.18-1.27,.03-.63,.37h0Z" style="fill: #663931;"/>
            <path d="M985.87,322.86c2.71,0,4.51,2.62,6.04,4.51,2.03,2.5,4.06,5.01,6.09,7.51,.39,.48,.46-.58,.24-.84-2.15-2.65-4.29-5.3-6.44-7.95-1.56-1.92-3.38-4.34-6.1-4.34-.34,0-.22,1.11,.18,1.11h0Z" style="fill: #663931;"/>
            <path d="M990.59,330.65c1.52,3.2,2.62,6.58,3.3,10.06,.07,.35,1.15,.56,1.08,.18-.69-3.53-1.83-6.96-3.37-10.21-.14-.3-1.22-.48-1-.03h0Z" style="fill: #663931;"/>
            <path d="M987.64,332.64c3.3,2.81,2.72,7.7,3.79,11.49,.13,.47,.82-.37,.73-.69-1.11-3.92-.52-8.86-3.94-11.76-.25-.22-.88,.71-.58,.96h0Z" style="fill: #663931;"/>
            <path d="M880.23,462.7c-4.61-3.21-6.35-6.44-5.11-7.46,1.03-.85,2.59-1.19,2.88,.14,.34,1.56,.93,4.86,2.23,7.32Z" style="fill: #d6b096;"/>
            <path d="M877.41,459.43c-1.64-1.87-.21-1.63-.61-2.59-.2-.48-1.67-.94-.68-1.61,1.49-1,.94,1.05,1.59,1.71,.61,.62,.53,1.48,.83,2.06,.39,.76,.36,1.46,.25,1.59-.25,.27-.71-.39-1.39-1.15Z" style="fill: #fcf5f0;"/>
            <path d="M995.23,333.89c.83,4.9-.25,10.05,1.44,14.82,.12,.35,1.19,.51,1.08,.18-1.69-4.77-.61-9.91-1.44-14.82-.06-.35-1.14-.57-1.08-.18h0Z" style="fill: #663931;"/>
            <path d="M982.09,350.51c-.94,6.22-2.83,12.3-5.59,17.96-.78,1.61-1.64,3.18-2.56,4.71-.13,.22-.1,.55,0,.77,.06,.14,.25,.38,.38,.16,3.29-5.5,5.74-11.49,7.23-17.72,.43-1.78,.78-3.57,1.05-5.38,.03-.21,.01-.61-.19-.75s-.3,.05-.33,.24h0Z" style="fill: #663931;"/>
            <path d="M978.24,351.44c-1.3,5.84-3.2,11.54-5.69,16.98-.06,.14-.23,.51-.02,.62s.43-.25,.49-.38c2.57-5.62,4.55-11.49,5.89-17.51,.04-.19,0-.4-.23-.34s-.39,.44-.43,.64h0Z" style="fill: #663931;"/>
            <path d="M885.72,465.54c0-.96,4.71,.03,6.87,.16-3.43,.81-6.87,.61-6.87-.16Z" style="fill: #d6b096;"/>
            <path d="M898.76,465.53c.03-.63,1.14-.42,1.64-.41s1.62-.27,1.59,.37-.87,.41-1.65,.44-1.61,.34-1.57-.41Z" style="fill: #d6b096;"/>
            <path d="M947.79,362.92c-3.65,2.05-7.29,4.11-10.95,6.15-1.74,.97-3.49,1.91-5.3,2.73s-3.7,1.51-5.59,2.14c-2.14,.71-4.32,1.34-6.49,1.97-.25,.07-.47,.29-.57,.52-.06,.13-.11,.46,.14,.39,3.81-1.11,7.64-2.21,11.31-3.76s7.36-3.76,10.95-5.77l6.27-3.52c.22-.13,.46-.34,.52-.6,.04-.2-.07-.36-.28-.24h0Z" style="fill: #663931;"/>
            <path d="M947.56,360.76c-2.29,1.4-4.66,2.66-7.1,3.78s-4.95,1.96-7.38,3.05c-1.19,.53-2.32,1.16-3.43,1.85s-2.17,1.4-3.36,1.9-2.52,.79-3.81,1.08c-1.38,.3-2.76,.61-4.15,.91-3.12,.69-6.25,1.37-9.37,2.06-.22,.05-.25,.21-.09,.36,.18,.17,.53,.25,.77,.2,2.82-.62,5.65-1.24,8.47-1.86,1.38-.3,2.76-.61,4.15-.91,1.27-.28,2.55-.54,3.79-.93,2.55-.81,4.59-2.56,6.97-3.72s4.87-1.97,7.28-3.02c2.8-1.22,5.52-2.64,8.13-4.24,.42-.25-.58-.68-.87-.5h0Z" style="fill: #663931;"/>
            <path d="M925.38,371.72c-5.4,1.35-10.63,3.35-15.57,5.92-.3,.15-.46,1.23-.02,1,4.89-2.54,10.07-4.5,15.42-5.84,.35-.09,.54-1.17,.17-1.08h0Z" style="fill: #663931;"/>
            <path d="M928.15,370.72c-4.85,2.5-9.6,5.19-14.25,8.06-.22,.13-.43,.38-.46,.64-.03,.21,.1,.34,.3,.22,4.65-2.87,9.4-5.55,14.25-8.06,.22-.11,.43-.4,.46-.64,.03-.22-.1-.32-.3-.22h0Z" style="fill: #663931;"/>
            <path d="M949.91,358.58l-19.63,2.48c-.15,.02-.49,.08-.41,.31,.08,.21,.51,.24,.68,.21,6.54-.83,13.09-1.65,19.63-2.48,.15-.02,.49-.08,.41-.31-.08-.21-.51-.24-.68-.21h0Z" style="fill: #663931;"/>
            <path d="M945.29,353.99c-6.54,1.75-13.09,3.49-19.63,5.24-.25,.07-.52,.24-.63,.48-.09,.19,0,.36,.23,.3l19.63-5.24c.25-.07,.52-.24,.63-.48,.09-.19,0-.36-.23-.3h0Z" style="fill: #663931;"/>
            <path d="M949.17,350.9c-5.97,.73-11.8,2.4-17.25,4.93-1.57,.73-3.1,1.54-4.6,2.41-.22,.13-.34,.44-.36,.68-.01,.16,.04,.45,.26,.32,5.17-3.01,10.8-5.19,16.65-6.44,1.67-.36,3.35-.63,5.04-.84,.36-.04,.64-1.11,.26-1.06h0Z" style="fill: #663931;"/>
            <path d="M953.15,348.82c-5.89,.2-11.71,1.73-16.93,4.46-1.49,.78-2.92,1.66-4.29,2.62-.17,.12-.44,.43-.4,.66s.25,.17,.41,.06c4.7-3.28,10.12-5.47,15.77-6.39,1.61-.26,3.24-.42,4.88-.48,.25,0,.45-.23,.57-.43,.05-.08,.23-.52-.01-.51h0Z" style="fill: #663931;"/>
            <path d="M925.6,325.48c1.99,8.13,7.26,15.29,14.35,19.73,2,1.25,4.13,2.28,6.35,3.05,.34,.12,.67-.95,.31-1.08-7.79-2.69-14.35-8.56-18.05-15.91-1.03-2.05-1.84-4.21-2.39-6.45-.15-.6-.66,.33-.58,.66h0Z" style="fill: #663931;"/>
            <path d="M929.79,331.59c1.67,2.86,3.95,5.29,6.28,7.62,1.15,1.15,2.27,2.36,3.62,3.29s2.84,1.37,4.4,1.67c1.76,.35,3.55,.56,5.21,1.27,.31,.13,1.26-.4,.81-.59-2.88-1.23-6.26-.93-8.98-2.56-1.35-.81-2.46-1.96-3.57-3.07s-2.3-2.3-3.38-3.52c-1.24-1.4-2.39-2.89-3.33-4.51-.2-.34-1.22,.11-1.05,.4h0Z" style="fill: #663931;"/>
            <path d="M957.91,342.53c-4.15-1.25-8.25-2.69-12.27-4.3-3.35-1.34-6.7-2.81-9.63-4.94-1.64-1.19-3.11-2.59-4.3-4.23-.23-.31-.81,.62-.6,.91,2.11,2.91,5.08,5.02,8.23,6.66,3.53,1.84,7.3,3.25,11.04,4.59,2.33,.83,4.67,1.6,7.04,2.32,.37,.11,.81-.91,.49-1.01h0Z" style="fill: #663931;"/>
            <path d="M932.18,328.55c2.81,2.21,4.88,5.14,7.33,7.7s5.49,4.5,8.8,5.9c1.91,.81,3.88,1.46,5.87,2.06,.35,.1,1.07-.72,.7-.83-3.46-1.04-6.93-2.26-10.02-4.17s-5.32-4.54-7.65-7.23c-1.3-1.49-2.65-2.95-4.21-4.18-.31-.24-1.09,.55-.83,.76h0Z" style="fill: #663931;"/>
            <path d="M940.38,345.02c-6.57-5.62-11.93-12.61-15.66-20.4-1.05-2.19-1.96-4.44-2.75-6.74-.12-.34-.89,.42-.77,.77,2.8,8.2,7.33,15.78,13.2,22.16,1.66,1.8,3.43,3.51,5.3,5.1,.27,.23,.97-.64,.68-.89h0Z" style="fill: #663931;"/>
            <path d="M922.43,326.69c1.88,4.16,3.95,8.23,6.22,12.19,2.05,3.58,4.41,7.11,7.75,9.6,1.75,1.31,3.71,2.28,5.84,2.77,.33,.08,1.24-.46,.64-.6-3.83-.89-7.02-3.5-9.44-6.5-2.7-3.34-4.72-7.25-6.68-11.05-1.15-2.22-2.23-4.48-3.27-6.76-.16-.35-1.21,.03-1.07,.35h0Z" style="fill: #663931;"/>
            <polygon points="978.42 467.19 978.85 469.81 976.32 471.31 978.42 467.19" style="fill: #d6b096;"/>
            <path d="M936.37,347.53c-3.41-3.49-5.85-7.75-8.3-11.92-1.23-2.09-2.46-4.18-3.85-6.16-1.29-1.85-2.86-3.66-5.02-4.49-1.99-.76-4.63-.65-6.07,1.12-.26,.32,.76,.74,.98,.47,1.19-1.47,3.33-1.79,5.02-1.05,2.04,.89,3.42,2.87,4.61,4.66,2.51,3.75,4.58,7.78,7.07,11.54,1.39,2.11,2.92,4.12,4.69,5.93,.17,.18,.51,.29,.75,.25,.22-.04,.28-.19,.12-.35h0Z" style="fill: #663931;"/>
            <path d="M926.92,340.43c-2.04-3.22-4.1-6.46-6.57-9.38-1.22-1.43-2.53-2.79-3.98-3.99-.67-.56-1.45-1.29-2.35-1.4s-1.73,.38-2.44,.84c-1.74,1.12-3.05,2.8-4.3,4.42-.16,.2-.27,.51-.21,.77,.05,.2,.21,.29,.36,.1,1.07-1.39,2.17-2.82,3.59-3.88,.68-.51,1.52-1.09,2.4-1.16,.97-.08,1.79,.71,2.48,1.28,2.77,2.29,5.05,5.11,7.1,8.05,1.19,1.71,2.31,3.47,3.43,5.23,.26,.42,.69-.58,.51-.87h0Z" style="fill: #663931;"/>
            <path d="M969.92,310.78c5.76-.14,10.82,3.09,15.23,6.45,.27,.21,1.33,.1,.83-.27-4.73-3.61-10.14-6.88-16.29-6.72-.15,0-.49,.05-.43,.27,.06,.21,.49,.27,.66,.27h0Z" style="fill: #663931;"/>
            <path d="M962.38,311.39c7.57,.31,14.98,2.88,21.18,7.22,1.76,1.23,3.42,2.62,4.96,4.13,.24,.24,1.31,.29,.86-.14-5.69-5.56-12.99-9.36-20.77-10.98-2.19-.46-4.42-.72-6.66-.82-.19,0-.39,.08-.29,.29s.51,.29,.71,.3h0Z" style="fill: #663931;"/>
            <path d="M943.61,314.59c-2.78,5.47-9.19,7.34-14.92,7.21-.42-.01-.19,1.07,.15,1.08,3.21,.08,6.49-.35,9.4-1.79,2.49-1.23,4.62-3.15,5.88-5.64,.15-.3-.29-1.29-.51-.87h0Z" style="fill: #663931;"/>
            <path d="M950.19,314.39c-3.54,5.15-9.07,8.8-15.16,10.17-1.73,.39-3.5,.58-5.27,.58-.39,0-.01,1.03,.35,1.03,6.33,0,12.53-2.52,17.16-6.81,1.32-1.22,2.5-2.58,3.52-4.07,.2-.3-.38-1.23-.6-.91h0Z" style="fill: #663931;"/>
            <path d="M955.01,324.43c-6.25-.44-12.67-.87-18.82,.62-1.71,.41-3.37,.98-4.97,1.71-.23,.11-.47,.33-.54,.58-.05,.2,.06,.35,.27,.25,5.68-2.61,12.04-2.86,18.18-2.59,1.75,.08,3.49,.2,5.24,.32,.37,.03,.97-.87,.63-.89h0Z" style="fill: #663931;"/>
            <path d="M954.85,321.16c-9.29-2.58-19.26-5.26-28.77-2.14-2.38,.78-4.63,1.93-6.61,3.46-.31,.24,.26,1.2,.52,.99,7.57-5.86,17.74-5.48,26.62-3.52,2.84,.63,5.65,1.41,8.45,2.19,.47,.13,.11-.89-.22-.98h0Z" style="fill: #663931;"/>
            <path d="M955.44,317.61c-1.65-3.28-4.79-5.77-8.35-6.67-.17-.04-.42-.06-.37,.19,.04,.22,.38,.46,.58,.51,3.16,.79,5.8,2.93,7.27,5.84,.11,.22,.42,.42,.66,.44s.31-.11,.21-.31h0Z" style="fill: #663931;"/>
            <path d="M883.98,351.8c-3.6,5.07-7.32,10.05-11.18,14.93-1.1,1.39-2.21,2.77-3.33,4.14-.15,.18-.04,.33,.17,.33,.25,0,.55-.17,.71-.36,3.93-4.82,7.73-9.74,11.4-14.76,1.05-1.43,2.08-2.87,3.11-4.31,.13-.19,.05-.33-.17-.33-.24,0-.57,.16-.71,.36h0Z" style="fill: #663931;"/>
            <path d="M881.58,364.64c-.99,1.64-1.83,3.36-2.51,5.14-.09,.23,.04,.51,.19,.69,.06,.08,.39,.4,.48,.18,.68-1.79,1.52-3.51,2.51-5.14,.19-.31-.46-1.2-.66-.87h0Z" style="fill: #663931;"/>
            <path d="M873.29,368.62c-2.89,3.38-5.3,7.17-7.13,11.23-.06,.14-.18,.46,.05,.51,.22,.04,.47-.32,.53-.47,1.75-3.88,4.04-7.49,6.8-10.73,.12-.14,.35-.49,.23-.68s-.39,.04-.49,.15h0Z" style="fill: #663931;"/>
            <path d="M883.11,375.32c-4.36,4.23-7.79,9.37-10.05,15.01-.64,1.6-1.18,3.24-1.62,4.9-.09,.32,1.01,.5,1.12,.12,1.56-5.84,4.36-11.33,8.18-16.02,1.07-1.32,2.22-2.57,3.44-3.75,.18-.17-.26-.34-.36-.36-.23-.06-.53-.06-.71,.11h0Z" style="fill: #663931;"/>
            <path d="M860.88,373.25c-2.64,5.28-4.34,11-4.98,16.87-.18,1.66-.27,3.32-.29,4.99,0,.15,.07,.49,.29,.42s.25-.5,.25-.67c.07-7.2,1.81-14.35,5.03-20.79,.11-.23,.18-.54,.07-.79-.08-.19-.26-.25-.37-.04h0Z" style="fill: #663931;"/>
            <path d="M890.71,329.67l-3.49,3.65c-.11,.12-.36,.42-.21,.58s.49-.12,.58-.21l3.49-3.65c.11-.12,.36-.42,.21-.58s-.49,.12-.58,.21h0Z" style="fill: #663931;"/>
            <path d="M903.21,451.19c.82,.69,1.66,1.4,2.15,2.35s.54,2.21-.16,3.01c-1.28-2.18-2.67-4.46-4.89-5.67-.97-.53-2.05-.82-3.11-1.11-1.69-.46-3.37-.91-5.06-1.37-1.13-.31-2.27-.61-3.44-.73-2.04-.21-4.1,.16-6.15,.17s-4.26-.4-5.7-1.86c1.48,.45,2.99,.9,4.53,.94s3.17-.41,4.25-1.52c-1.67,.04-3.35-.55-4.62-1.63,.43-.35,1.04-.36,1.6-.33,5.39,.29,10.56,2.73,15.95,2.47,.94-.05,1.89-.17,2.83-.05s1.89,.55,2.38,1.36c.75,1.24,.15,2.88-.74,4.03" style="fill: #775c54;"/>
            <path d="M885.06,329.84l-3.82,.5c-.23,.03-.56,.17-.66,.4s.17,.27,.33,.25l3.82-.5c.23-.03,.56-.17,.66-.4s-.17-.27-.33-.25h0Z" style="fill: #663931;"/>
            <path d="M908.79,314.47c-1.73,1.07-3.57,1.97-5.48,2.67-.36,.13,.4,.93,.74,.8,1.91-.7,3.75-1.6,5.48-2.67,.36-.22-.45-.98-.74-.8h0Z" style="fill: #663931;"/>
            <path d="M930.48,308.49c-5.29,2.41-10.77,4.4-16.38,5.95-.38,.11-.25,1.21,.07,1.12,5.66-1.56,11.18-3.56,16.52-5.99,.31-.14,.17-1.24-.2-1.07h0Z" style="fill: #663931;"/>
            <path d="M924.93,311.93c-2.05,2.97-4.34,5.78-6.85,8.38-.15,.16-.4,.46-.34,.7,.06,.22,.27,.17,.41,.03,2.64-2.74,5.06-5.68,7.22-8.82,.09-.13,.27-.49,.08-.61s-.44,.21-.53,.33h0Z" style="fill: #663931;"/>
            <path d="M920.22,316.96c-1.32,5.13-.55,10.63,2.06,15.23,.1,.17,.29,.28,.4,.08,.12-.21-.04-.58-.14-.76-2.34-4.12-2.96-9.13-1.78-13.71,.07-.25,0-.54-.14-.76-.07-.11-.34-.34-.4-.08h0Z" style="fill: #663931;"/>
            <path d="M1021.5,364.8l.51-.75c.24-.35-.76-.73-.99-.47-3.98,4.7-7.95,9.39-11.93,14.09-.26,.31,.76,.74,.99,.47,3.98-4.7,7.95-9.39,11.93-14.09l-.99-.47-.51,.75c-.24,.35,.8,.75,.99,.47h0Z" style="fill: #663931;"/>
            <path d="M997.86,376.93c-.42,1.07-.7,2.18-.83,3.32-.03,.23,.3,.24,.46,.22s.6-.13,.62-.35c.13-1.14,.41-2.26,.83-3.32,.09-.22-.35-.23-.46-.22-.22,.03-.53,.12-.62,.35h0Z" style="fill: #663931;"/>
            <path d="M1026.65,400.73l.32,4.65c.01,.21,.14,.31,.33,.17s.38-.47,.36-.71l-.32-4.65c-.01-.21-.14-.31-.33-.17s-.38,.47-.36,.71h0Z" style="fill: #663931;"/>
            <path d="M1016.43,510.16l-1.43,4.81-.73,2.45-.34,1.14c-.11,.38-.31,.82-.35,1.22-.06,.59,.5,.58,.88,.56,.72-.05,1.37,.15,1.95,.62,.53,.44,.96,.77,1.65,.74,.63-.03,1.25-.27,1.83-.51,1.36-.57,2.6-1.43,3.67-2.54,.1-.1,.31-.35,.13-.49-.16-.12-.5,.11-.61,.22-1.07,1.1-2.33,1.92-3.72,2.38-.4,.13-.83,.25-1.24,.15-.39-.1-.67-.41-.98-.66-.56-.45-1.22-.69-1.91-.69-.25,0-.85,.2-.77-.26,.06-.4,.25-.83,.36-1.22l.83-2.8,1.61-5.42c.07-.24-.19-.23-.33-.19-.2,.06-.46,.26-.53,.5h0Z" style="fill: #663931;"/>
            <path d="M1042.09,483.84c-1.93,3.27-3.87,6.54-5.8,9.81-.09,.15-.22,.56-.06,.71,.18,.16,.36-.14,.44-.26,1.93-3.27,3.87-6.54,5.8-9.81,.09-.15,.22-.56,.06-.71-.18-.16-.36,.14-.44,.26h0Z" style="fill: #663931;"/>
            <path d="M1028.43,469.46c-.93,4.25-1.86,8.49-2.79,12.74s-1.58,8.18-3.05,12.05c-.64,1.68-2,3.78-.79,5.51,.12,.18,.38,.47,.63,.45,.23-.02,.21-.24,.1-.4-.51-.73-.31-1.66-.05-2.45,.29-.87,.71-1.7,1.03-2.56,.69-1.83,1.18-3.73,1.62-5.64,.93-4.04,1.78-8.1,2.67-12.15l1.52-6.91c.08-.35-.81-1-.89-.63h0Z" style="fill: #663931;"/>
            <path d="M1040.72,472.95c-2.01,.77-3.7,2.24-4.76,4.11-.12,.2-.23,.54-.12,.76s.32,.06,.4-.1c.96-1.69,2.5-3.01,4.32-3.7,.23-.09,.33-.39,.37-.61,.02-.11,.02-.55-.21-.47h0Z" style="fill: #663931;"/>
            <path d="M1030.26,445.44c-.18,1.18-.51,2.33-.98,3.42-.09,.21,.19,.33,.35,.36,.14,.03,.29,.04,.43,.02,.08-.01,.24-.04,.27-.13,.49-1.14,.84-2.33,1.04-3.55,.06-.35-1.06-.5-1.12-.12h0Z" style="fill: #663931;"/>
            <path d="M1043.35,428.78c-.89,2.58-1.57,5.22-2.02,7.91-.04,.25,.04,.58,.21,.76,.15,.16,.32,.13,.36-.1,.44-2.62,1.1-5.2,1.97-7.71,.08-.24,.02-.55-.11-.76-.08-.12-.31-.35-.4-.1h0Z" style="fill: #663931;"/>
            <path d="M923.19,343.67c-3.33,.93-6.58,2.1-9.74,3.51-.66,.29-.09,1.26,.57,.97,3.07-1.36,6.24-2.49,9.48-3.39,.69-.19,.4-1.28-.3-1.08h0Z" style="fill: #663931;"/>
            <path d="M909.96,349.66c-3.45,1.5-7.18,2.19-10.85,2.87-.71,.13-.41,1.21,.3,1.08,3.78-.7,7.58-1.43,11.12-2.98,.66-.29,.09-1.25-.57-.97h0Z" style="fill: #663931;"/>
            <path d="M903.73,354.08l-9.09,2.76c-.69,.21-.4,1.29,.3,1.08l9.09-2.76c.69-.21,.4-1.29-.3-1.08h0Z" style="fill: #663931;"/>
            <path d="M898.76,458.6c.58,.03,1.26,2.05,.52,3.11s-1.99,.8-2.68,.4,1.15-3.56,2.16-3.51Z" style="fill: #fcf5f0;"/>
            <path d="M922.77,327.62c.98,5.08,3.51,9.83,7.14,13.51,1.04,1.06,2.17,2.01,3.37,2.88,.59,.42,1.15-.55,.57-.97-4.01-2.9-7.13-7.02-8.86-11.66-.49-1.32-.87-2.68-1.14-4.06-.14-.71-1.22-.41-1.08,.3h0Z" style="fill: #87554b;"/>
            <path d="M926.71,326.5c1.62,3.21,3.96,5.99,6.82,8.17,.24,.19,.63,.04,.77-.2,.17-.29,.04-.58-.2-.77-2.7-2.06-4.88-4.74-6.41-7.77-.33-.64-1.29-.08-.97,.57h0Z" style="fill: #87554b;"/>
            <path d="M938.37,315.86c2.48,3.81,6.13,6.74,10.38,8.34,.68,.26,.97-.83,.3-1.08-3.96-1.5-7.4-4.28-9.71-7.83-.39-.6-1.36-.04-.97,.57h0Z" style="fill: #87554b;"/>
            <path d="M937.81,317.14c2.84,4.11,6.67,7.48,11.13,9.73,.64,.32,1.21-.64,.57-.97-4.29-2.16-8-5.37-10.73-9.32-.41-.59-1.38-.03-.97,.57h0Z" style="fill: #87554b;"/>
            <path d="M926.29,323.26c1.5,3.84,4.41,6.76,7.67,9.18,1.68,1.25,3.45,2.36,5.22,3.46,2.07,1.27,4.14,2.53,6.27,3.71,2.43,1.34,4.92,2.55,7.52,3.51,.68,.25,.97-.83,.3-1.08-4.47-1.66-8.6-4.1-12.66-6.58-3.41-2.08-6.89-4.2-9.68-7.1-1.5-1.56-2.77-3.36-3.56-5.39-.26-.67-1.34-.38-1.08,.3h0Z" style="fill: #87554b;"/>
            <path d="M930.8,332.33c2.06,2.01,4.27,3.86,6.61,5.54s4.83,3.31,7.46,4.51c1.46,.66,3.01,1.14,4.63,1.1,.72-.02,.72-1.14,0-1.12-1.79,.04-3.47-.61-5.03-1.42s-3.1-1.74-4.57-2.71c-2.97-1.96-5.75-4.21-8.3-6.69-.52-.5-1.31,.29-.79,.79h0Z" style="fill: #87554b;"/>
            <path d="M947.13,347.19c-5.52,.63-10.91,2.2-15.89,4.67-1.43,.71-2.83,1.49-4.18,2.34-.61,.38-.05,1.35,.57,.97,5.9-3.69,12.59-6.06,19.51-6.85,.71-.08,.72-1.2,0-1.12h0Z" style="fill: #87554b;"/>
            <path d="M943.22,351.49c-6.41,1.21-12.61,3.49-18.28,6.7-.63,.36-.06,1.33,.57,.97,5.6-3.17,11.69-5.4,18.02-6.59,.71-.13,.41-1.22-.3-1.08h0Z" style="fill: #87554b;"/>
            <path d="M947.38,360.29c-6.05,.11-12.08-.64-17.92-2.22-.7-.19-1,.89-.3,1.08,5.93,1.61,12.07,2.38,18.22,2.27,.72-.01,.72-1.13,0-1.12h0Z" style="fill: #87554b;"/>
            <path d="M927.83,331.48c3.26,5.2,8.2,8.95,13.03,12.59,1.44,1.09,2.92,2.13,4.66,2.67,.69,.21,.99-.87,.3-1.08-1.45-.45-2.72-1.31-3.93-2.21s-2.4-1.8-3.58-2.73c-2.29-1.8-4.52-3.69-6.48-5.85-1.12-1.23-2.14-2.55-3.02-3.96-.38-.61-1.35-.05-.97,.57h0Z" style="fill: #87554b;"/>
            <path d="M950.56,315.6c-.68,3.24,.62,6.64,3.24,8.64,.24,.19,.63,.04,.77-.2,.17-.29,.04-.58-.2-.77-2.2-1.68-3.29-4.68-2.73-7.38,.15-.7-.93-1.01-1.08-.3h0Z" style="fill: #87554b;"/>
            <path d="M968.11,326.01c1.9-1.51,4.21-2.38,5.51-4.55,.68-1.14,1.12-2.43,1.48-3.7,.39-1.35,.65-2.73,.81-4.12,.08-.72-1.04-.71-1.12,0-.15,1.32-.42,2.63-.79,3.91-.35,1.2-.76,2.42-1.43,3.49-1.22,1.95-3.51,2.8-5.25,4.19-.56,.45,.23,1.24,.79,.79h0Z" style="fill: #87554b;"/>
            <path d="M964.65,329.67c-.41,.47-1.09,.4-1.66,.33-.84-.1-1.68-.26-2.5-.42-1.64-.33-3.27-.75-4.86-1.26-.69-.22-.98,.86-.3,1.08,1.82,.58,3.68,1.05,5.56,1.4,.85,.15,1.72,.34,2.58,.37,.73,.03,1.48-.13,1.98-.7s-.32-1.34-.79-.79h0Z" style="fill: #87554b;"/>
            <path d="M983.74,317.54c3.5,2.88,6.89,5.89,10.17,9.01,.52,.5,1.32-.29,.79-.79-3.28-3.13-6.67-6.13-10.17-9.01-.55-.46-1.35,.33-.79,.79h0Z" style="fill: #c69275;"/>
            <path d="M987.52,314.48c4.29,3.52,8.88,7.27,10.9,12.62,.54,1.44,.88,2.95,.93,4.49,.02,.72,1.15,.72,1.12,0-.2-5.91-4.01-10.78-8.23-14.58-1.28-1.15-2.6-2.24-3.93-3.33-.55-.45-1.35,.34-.79,.79h0Z" style="fill: #c69275;"/>
            <path d="M1001.69,319.72c2.74,4,4.25,8.75,4.29,13.6,0,.72,1.13,.72,1.12,0-.05-5.04-1.6-10.01-4.45-14.17-.41-.59-1.38-.03-.97,.57h0Z" style="fill: #c69275;"/>
            <path d="M992.5,343.71c1.83,4.13,2.57,8.68,2.19,13.17-.06,.72,1.06,.72,1.12,0,.39-4.7-.44-9.43-2.35-13.74-.29-.66-1.26-.09-.97,.57h0Z" style="fill: #c69275;"/>
            <path d="M989.73,341.82c2.28,6.01,3.54,12.37,3.7,18.8,.02,.72,1.14,.72,1.12,0-.17-6.52-1.43-13-3.74-19.1-.25-.67-1.34-.38-1.08,.3h0Z" style="fill: #c69275;"/>
            <path d="M953.49,472.65c3.52,.43,7.15,4.45,14.64,5.38s14.8-1.31,18.88,.34c-7.01,.72-14.31,1.68-20.79,.25s-9.22-3.58-12.74-5.98Z"/>
            <path d="M946.68,471.89c4.92,2.45,5.74,4.84,12.95,8.83,4.87,2.69,7.7,3.93,13.06,4.49-3.93,1.4-12.81-2.5-17.08-5.45s-6.41-4.6-8.93-7.86Z"/>
            <path d="M880.1,466.48c5.17,.87,10.95,.58,14.48-.27-6.15,2.18-12.44,1.47-15.7,.79s-7.56-2.66-10.01-4.89c3.03,1.72,6.75,3.62,11.24,4.38Z"/>
            <path d="M899.04,467.88c.75-.3,1.2-.28,1.98-.28-.4,.37-1.06,.66-1.68,.84s-.97,.31-2.04,.48c.56-.46,.99-.75,1.75-1.04Z"/>
        </g>
    </g>
</svg>