<?xml version="1.0" encoding="UTF-8"?>
<svg class="vault-boy" xmlns="http://www.w3.org/2000/svg" viewBox="0 0 270.5 344.75">
  <defs>
    <style>
      .arm {
        animation: vaultBoyArm 2s;
        animation-fill-mode: forwards;
        transform-origin: center center;
        transform: rotate(-100deg) translateX(100px) translateY(90px);
      }
      @keyframes vaultBoyArm {
        0%{transform: rotate(-100deg) translateX(100px) translateY(90px)}
        30%{transform: rotate(-100deg) translateX(100px) translateY(90px)}
        50%{transform: rotate(0deg) translateX(0) translateY(0)}
        100%{transform: rotate(0deg) translateX(0) translateY(0)}
      }
    </style>
  </defs>
  <g class="arm">
    <path d="M44.6,93.64c1.08.66,2.72,1.31,6.67,3.32.87.88.59,2.24.74,3.36.02,1.74-.2,3.9-1.81,4.91-1.79.78-3.59-.48-5.36-.74-2.73-.65-7.59.68-9.85,2.52l3.83.08c6.24-.03,12.23,2.36,17.35,5.66,1.71,1.29,3.95,4.73,3.91,6.93-.04.69-.93,1.51-2.39.66-2.69-1.08-5.46-2.1-8.36-2.49-5.39-.84-11.61.79-16.55,3.1l4.38-.04c6.13,0,12.41.16,17.89,3.1.63.43,2.59,1.71,2.17,2.63-.55.83-1.01,1.08-2.91,1.97-5.15,2.73-11.39,2.77-16.94,1.27-2.11-.55-4.29-1.15-6.15-2.27l-.64,1.24c.75,2.18,3.3,4.43,6.74,6.82,4.57,2.46,9.89,3.81,15.07,3.25,1.65-.08,6.7,1.47,9.88,2.09,15.34-14.25,15.22-28.55,6.99-39.23-2.17-2.81-5.85-8.07-9.72-11.18-2.3-1.87-4.67-4.31-4.8-7.46l-.65-3.25c-1.07,3.21-3.23,4.73-5.07,5.69s-4.8,1.89-7.19.91c-1.08-.54,1.14,5.18.82,4.19l1.95,2.96Z" fill="#d7d1a0"/>
    <path d="M31.21,121.31c.08.14.11.27.11.4.07-.06.13-.13.2-.18-.1-.07-.21-.14-.31-.22Z" fill="#45738b"/>
    <path d="M132.84,107.49l-3.84-2.69c-3.25.66-6.56.86-9.85,1.24-12.07,1.12-24.32,1.46-36.34-.33-4.53-.73-9.83-1.38-11.97-2.05,6.21,10.31,5.4,25.3-9.13,36.92,6.39,1.51,20.45,1.71,32.77-1.05,5.88-1.32,11.63-3.21,17.32-5.15l21.04-26.9Z" fill="#45738b"/>
    <path d="M41.82,92.19c-3.62.19-7.09.17-10.46,1.78-3.13,1.29-5.48,3.83-5.46,7.39-.13,2.88,1.7,5.37,3.41,7.55.58.83-1.09,2.28-1.59,2.87-1.24,1.24-1.36,2.31-.85,4.03.8,2.51,3.01,3.99,5.04,5.46-1.71,1.43-2.63,3.48-1.82,5.69l1.28,1.55c1.86,1.13,4.24,1.52,6.39,1.93,5.49,1.05,12.2,1.18,17.35-1.55,1.9-.89,2.21-1.32,2.48-2.25.42-.92-1.54-2.21-2.17-2.63-5.48-2.94-11.76-3.09-17.89-3.1l-4.38.04c4.94-2.31,10.57-3.7,15.96-2.87,2.9.39,5.8,1.48,8.49,2.56,1.46.85,2.82-.28,2.86-.97.04-2.21-2.2-5.65-3.91-6.93-5.13-3.3-11.11-5.68-17.35-5.66l-3.83-.08c2.27-1.84,6.88-2.85,9.61-2.21,1.76.26,4.22,1.44,6,.66,1.6-1.01,1.42-3.4,1.4-5.14-.15-1.12.13-2.48-.74-3.36-3.95-2-5.59-2.66-6.67-3.32l-3.13-1.46Z" fill="#e3ddbb"/>
    <path d="M40.97,86.63c2.4.99,6.56-.08,8.4-1.05,1.84-.96,4-2.49,5.07-5.69l2.76-9.5c-.15-3.09-2.68-6.02-5.93-6.3-3.83-.42-6.89,2.05-9.26,4.84-2.74,3.29-3.37,7.65-3.13,11.89l2.09,5.81Z" fill="#e3ddbb"/>
    <path d="M131,106.66c-.07-.07-1.35.06-2.87.27-4.91.69-10.15,1.22-16.57,1.68-3.36.24-14.91.33-18.33.14-7.25-.4-13.26-1.27-18.11-2.64-1.95-.55-2.61-.69-2.61-.58,0,.04.35.79.77,1.67,2.12,4.41,2.73,8.61,1.98,13.45-.91,5.84-4.11,12.03-9,17.41-.74.81-1.3,1.52-1.25,1.58.43.43,10.22.62,14.12.28,8.95-.78,17.01-2.5,26.79-5.74,1.75-.58,4.05-1.38,5.13-1.79l1.95-.74.39-.93c.58-1.38,1.52-2.8,1.84-2.8s.33.08,0,1.71l-3.1,5.15c-.1-.1-1.51.31-4.63,1.35-11.92,3.99-21.66,5.93-31.6,6.28-8.24.29-15.47-.57-21.75-2.6-1.46-.47-1.52-.48-2.61-.33-1.69.24-5.12.07-7.21-.37-4.31-.89-8.39-2.8-11.42-5.34-1.35-1.14-2.33-2.36-3.14-3.95-1.55-3.03-1.43-5.49.35-7.39.35-.38.64-.75.64-.83s-.55-.55-1.22-1.04c-1.52-1.12-2.72-2.44-3.32-3.64-.42-.84-.46-1.04-.46-2.19s.05-1.37.39-2.07c.22-.44.84-1.28,1.38-1.85.54-.58.98-1.16.98-1.29s-.27-.55-.61-.93c-.85-.97-1.88-2.73-2.28-3.88-.98-2.83-.72-5.33.79-7.59,1.46-2.18,3.84-3.67,7.25-4.55,1.26-.32,1.75-.37,4.58-.42,1.74-.03,3.22-.11,3.29-.17.06-.06-.21-.68-.6-1.37-2.97-5.17-3.75-11.82-2-16.99,1.46-4.32,4.85-7.99,8.73-9.45,1.15-.43,1.34-.46,3.06-.47,1.78,0,1.86,0,2.79.45,1.24.59,2.34,1.64,2.97,2.83.8,1.53,1,2.41,1,4.33,0,1.97-.21,2.89-1.39,6.11-1.05,2.88-1.26,3.79-1.25,5.38.01,2.75,1.16,4.62,4.61,7.51,4.62,3.86,6.92,6.39,8.91,9.77.42.71.91,1.39,1.08,1.5.97.64,4.66,1.89,7.93,2.69,11.68,2.87,30.42,3.06,49.13.51,2.47-.34,2.68-.38,2.68-.57l1.81,2.44ZM61.73,139.34c.53-.2,3.29-2.93,4.59-4.54,5.05-6.26,7.64-13.43,7.07-19.54-.09-.99-.3-2.32-.45-2.97-.3-1.24-1.28-3.88-1.6-4.32-.31-.42-.51-.12-.51.76,0,1.95-.74,4.42-1.9,6.28-.61.98-.61,1-.78,2.96-.65,7.63-2.89,13.32-6.72,16.99-1.13,1.09-2.91,2.37-4.04,2.9-.8.38-.69.68.33.97,2.04.57,3.37.74,4,.5ZM53.55,137.17c5.32-1.4,9.14-5.33,11.15-11.45.55-1.68,1.14-4.4,1.28-5.95.12-1.25.03-1.28-1.19-.44-.86.59-1.29.65-1.29.16,0-.14.39-.63.86-1.1,1.9-1.87,3.34-4.19,4-6.46,1.77-6.1-1.56-12.78-9.58-19.29-4.24-3.44-5.94-5.96-6.21-9.21-.13-1.65.21-3.32,1.42-6.9,1.5-4.42,1.61-5.62.76-7.89-.41-1.09-1.47-2.18-2.45-2.52-2.61-.89-6.34.82-9,4.13-3.89,4.84-4.2,12.15-.81,18.91.75,1.49,1.93,3.34,2.23,3.5.13.07.86.29,1.64.5.78.21,2.17.67,3.1,1.02,5.65,2.14,8.86,4.81,9.86,8.21.29.98.29,2.88,0,4.01-.3,1.18-1.18,2.92-2.07,4.1-.41.54-.8,1.07-.88,1.18-.11.16-.02.29.35.58.9.68,2.32,2.22,2.8,3.03,1.11,1.87,1.48,3.97.94,5.44-.34.95-1.24,2.03-2.18,2.64-.46.3-.85.63-.85.73,0,.1.24.47.54.82.91,1.04,1.2,1.78,1.21,3.09,0,1.04-.04,1.23-.54,2.24-1.3,2.64-3.7,4.06-7.86,4.67-1.27.19-2.22.22-4.56.16-3.06-.08-4.76-.28-7.54-.9-2.04-.45-1.9-.44-1.9-.2,0,.5,4.11,2.3,6.81,2.98,2.37.6,3.09.67,5.95.63,2.28-.04,2.79-.09,4.01-.41ZM50.66,132.93c1.62-.25,2.63-.54,3.68-1.07,1.03-.52,1.53-.95,2.15-1.86,1.09-1.6,1.03-2.73-.23-3.98-2.49-2.47-10.02-4.37-17.36-4.37-2.57,0-2.91.03-3.88.33-2.29.72-3.83,1.82-4.23,3.05-.41,1.25.14,3.33,1.12,4.21,1.84,1.67,6.94,3.28,11.99,3.8,1.4.14,5.55.08,6.77-.11ZM55.83,122.48c.98-.41,2.06-1.22,2.46-1.85.52-.82.61-1.47.34-2.49-.53-2.01-1.97-3.64-4.66-5.24-9.31-5.57-17.46-6.47-22.95-2.54-1.13.81-2.54,2.22-2.99,2.99-.76,1.3-.38,2.71,1.17,4.32.95.99,3.14,2.58,3.77,2.74.18.05.76-.05,1.3-.22,2.25-.7,6.44-.7,11.26,0,3.2.47,6.87,1.42,8.71,2.25.73.33.91.34,1.6.05ZM55.13,109.95c1.51-1.7,2.33-3.51,2.41-5.37.07-1.54-.22-2.44-1.18-3.72-2.87-3.81-12.25-7.24-18.81-6.88-3.77.21-6.54,1.21-8.54,3.08-2.93,2.74-2.65,6.88.73,10.67l.55.61,1.48-.71c3.74-1.8,7.47-2.12,12.27-1.05,2.75.61,6.28,1.99,8.95,3.48.62.35,1.2.64,1.29.65.09,0,.47-.33.85-.75Z" fill="#231f20"/>
  </g>
  <g class="everything-else">
    <path d="M159.39,80.95c-.11,0-.22.03-.33.03-4.16.61-8.15,2.09-12.23,3.09-3.08,1-6.37.71-9.52.32-3.21-.33-6.33-1.11-9.44-1.94-1.05.08-.58,1.42-.02,1.85,2.76,2.83,6.63,4.26,10.39,5.22,6.25,1.03,12.65-.64,18.21-3.46,1.53-.91,3.45-1.63,4.31-3.29.53-.91-.42-1.93-1.37-1.81Z" fill="#fff"/>
    <path d="M198.76,187.65c-10.28,7.79-5.87,21.21-1.05,28.36,1.48,1.36,3.98,1.5,4.82,1.49,5.2-.24,9.34.45,14.5-.26,1.01-.1,1.97-.66,2.3-1.65,1.37-2.54,2.91-5.05,3.54-7.88.48-3.45-3.23-8.45-7.44-10.64-5.89-.46-11.33-1.57-16.67-9.41ZM163.19,10.21c-3.13.11-4.45,1.89-6.35,4.07-1.22,1.42-2.52,3.63-4.26,4.49-1.22.18-2.58-1.29-3.68-1.63-2.54-1.01-4.34.22-6.35,1.74-3.67,2.59-6.79,6.78-11.12,8.29-1.4.47-3.59.3-4.3-1.12-1.04-1.68-1.55-3.61-1.63-5.54-2.7,1.08-3.54,3.14-4.33,5.8-1,3.13-1.23,6.53-.71,9.78.14.74.7,2.98,1.94,4.22l2.98,2.09c2.05.84,5.54-.7,6.66-1.39,3.72-1.72,6.13-4.69,8.64-7.82.71-.87,2.24-2.19,3.45-2.25,2.51.02,4.57,2.4,6.97,2.83,2.71.69,5.04-.31,7.36-1.7.59-.29,1.24,1.06,1.37,1.63,1.43,2.83,2.65,5.81,3.49,8.87l1.18,4.42c.89,2.22.97,4.67,1.43,7,.25,1.53.37,3.1.1,4.64l.32,5.36c.07,4.98-.8,9.92-1.87,14.76l-2.76,9.04c-2.74,7.58-6.63,14.74-11.4,21.23-1.96,2.27-5.44,3.59-6.72,3.47,14.94,8.83,27,1.86,30.41-9.33.74-2.42,1.18-4,3.07-5.11,1.14-1.59,2.48-3.19,3.64-4.76.92-1.01,2.54-2.11,3.41-3.1,4.97-1.08,8.94-3.84,10.65-8.79.88-2.89-.09-5.15-1.86-7.48-.35-.49-.44-2.22,0-2.64,1.98-2.62,3.44-5.66,4.38-8.78,1.13-3.65,2.52-6.78,2.83-10.61.19-2.75.38-5.73.08-8.48-.47-3.6-1.92-6.65-4.53-9.26-1.99-1.98-4.2-3.72-6.12-5.77-3.02-2.95-5.31-5.8-7.71-9.26-.87-1.19-2.38-2.48-3.91-2.48-2.06-.14-4.36.05-6-1.43-2.5-1.9-3.83-4.48-7.05-5.11l-1.7.15Z" fill="#d7d1a0"/>
    <path d="M156.42,30.2c1.58-.89,3.04-2.6,5.03-2.31.65.14,1.63.75,2.07-.08.91-4.25.07-8.72-1.47-12.73-.5-.85-.53-2.13-1.53-2.58" fill="none"/>
    <path d="M160.97,17.49c-.45,3.1-.62,8.06-.61,11,2.19.7,4.87,2.43,6.26,4.13,1.25,1.4,2.29,3.12,4,4,1.49.59,3.12-.08,4.61-.32,3.26-.89,6.73-1.39,10.09-.85,2.25.25,4.38,2.08,4.43,4.43-.1,3.38-2.56,6.04-4.62,8.5-.44.39-1,1.09-.48,1.65,4.07,3.25,7.85,7.39,9.28,12.53.35.77.21,1.82.89,2.41.73.5,1.02-.6,1.35-1.05,2.55-5.38,3.87-11.37,3.57-17.33-.28-4.38-1.33-9.09-4.66-12.19-4.07-3.27-7.82-6.92-10.91-11.14-1.43-1.76-2.44-3.89-4.15-5.41-1.31-.65-2.9-.34-4.34-.52-2.24.06-4.07-1.4-5.61-2.87-1.85-1.52-3.57-3.73-6.15-3.83-.52,0-1.04.12-1.53.29l-1.43,6.58ZM156.42,30.2" fill="#cac872"/>
    <path d="M122.31,50.39c1.24-1.7,2.04-3.75,3.26-5.48.35-.54,1.16-1.39.45-1.98-1.12-.4-2.31-.89-3.15-1.8-.64-.43-.8-1.37-1.57-1.6-.54-.04-.9.46-1.08.9-1.53,2.76-.93,6.2.58,8.83.29.53.75,1.56,1.51,1.12Z" fill="#cac872"/>
    <path d="M143.76,312.87c-2.87.6-5.7,1.42-8.61,1.83-5.93.78-12.29.79-17.8-1.72-1.28-.39-2.2-1.57-3.55-1.71h-.09c-3.08.8-5.94,2.29-8.73,3.79-2.45,1.47-5.24,2.75-6.84,5.22-.57.61-.19,1.54.52,1.82,4.61,1.72,9.69,1.35,14.54,1.17,6.98-.48,13.79-2.35,20.34-4.73.45-.41.65.15.8.47.57.77.66,1.96,1.63,2.38,1.81.15,3.66-.33,5.29-1.13,2.06-.94,3.58-3.09,3.35-5.42-.07-.67.12-1.87-.84-1.96Z" fill="#a5a5a3"/>
    <path d="M120.37,206.79c4.02,1.82,8.24,3.23,12.49,4.43,8.36,2.26,16.97,3.65,25.65,3.53,10.5.17,20.99-1.54,30.96-4.78.81-.45,2.07-.31,2.51-1.26-.05-1.59-.56-3.19-.79-4.78-.86-5.66-.76-11.43-.53-17.14.03-.65.27-1.87-.67-1.98-3.07.75-6.13,1.64-9.23,2.31-5.67,1.18-11.37,2.46-17.17,2.85-2.17-.02-4.47.4-6.52-.49-2.48-.98-3.95-3.51-4.38-6.04-.59-4.53-.33-9.15-.23-13.72.44-9.64,1.41-19.25,2.42-28.84.5-3.55.61-7.34,2.47-10.51,1.08-1.73,3.36-1.66,5.07-2.29,7.49-2.47,14.46-6.97,19.26-13.29,2.02-2.78,3.89-5.9,4.38-9.37.25-1.22-.8-2.1-1.78-2.57-2.53-1.28-5.05-2.71-7.83-3.4-.51.02-.84.42-.95.9-.86,2.95-1.71,5.99-3.34,8.62-2.33,4.04-6.23,7.27-10.85,8.31-7.25,1.52-14.96-.93-20.53-5.64-1.6-1.74-3.81-2.69-5.85-3.82-.56-.36-1.55-1.08-2.09-.31-.67,2.28-.68,4.76-.34,7.1.36,3.31,2.38,6.09,4.64,8.39.74.59,1.3,1.42,1.2,2.4-.46,7.53-1.72,14.95-2.47,22.45-1.14,9.09-1,18.27-1.14,27.42-.19,2.84.25,5.85-.93,8.52-.53,1.33-1.87,2.23-3.31,2.1-4.58-.42-8.66-2.85-12.75-4.76-.45-.41-1.26-.23-1.3.43.82,7.46,1.87,14.93,3,22.37.29.94-.06,2.3.95,2.88Z" fill="#cac872"/>
    <path d="M198.67,318.36c.96,4.2,3.74,7.92,7.35,10.23,3.73,2.44,8.44,2.89,12.74,2.05,2.34-.45,5.09-1.36,5.96-3.83,1.18-3.54-.21-7.27-1.68-10.5-.36-.63-.58-1.6-1.3-1.86-.06,0-.11,0-.17.02-2.41,1.1-4.97,2.03-7.57,2.65-4.39,1.22-9.07,1.65-13.57.79-.57-.13-1.67-.44-1.77.45Z" fill="#a5a5a3"/>
    <path d="M198.09,214.81c.08.01.17.03.25.04-.15-.1-.28-.22-.41-.36.05.11.1.22.15.32Z" fill="#45738b"/>
    <path d="M198.38,189.16c-.04-.07-.1-.13-.14-.19-.07-.11-.14-.21-.21-.32-.1.12-.2.25-.29.37.07-.02.14-.04.22-.05.16.04.3.11.43.19Z" fill="#45738b"/>
    <path d="M160.88,31.21c-.09.06-.17.11-.26.17.11-.04.23-.09.34-.13l-.08-.05Z" fill="#45738b"/>
    <path d="M222.76,313.59c.05-.85.93-1.33,1.14-2.14,1.76-3.72,1.17-8.05.67-12.02-1.25-7.57-2.81-15.09-4.49-22.57-3.78-15.93-8.76-31.57-15-46.7-1.65-3.96-3.4-7.62-7.09-12.65-.47-.64-2.65-4.3-4.21-8.73l-1.7-.07c-.44.95-1.7.81-2.51,1.26-9.97,3.24-20.46,4.95-30.96,4.78-8.68.12-17.29-1.27-25.65-3.53-4.25-1.2-8.47-2.61-12.49-4.43l-3.64-1.37c.3,2.26.45,3.39.45,3.42,1.32,11.63-.15,20.53-.36,23.77-1.14,17.68-3.12,35.31-3.73,53.03-.07,8.17-.34,16.36.48,24.5l.22,1.13c1.35.15,2.28,1.32,3.55,1.71,5.51,2.51,11.87,2.49,17.8,1.72,2.91-.41,5.74-1.24,8.61-1.83l2.83-.67c.3-.98,1.54-.97,2.27-1.4.3-.8-.02-1.71.1-2.55-.14-10.41,1.63-20.74,3.88-30.87,1.96-8.56,4.4-17.03,7.47-25.24.21-.52.95-.75,1.24-.19,1.06,1.29,1.6,2.92,2.53,4.31,9.04,16.13,18.37,32.25,24.45,49.76,1.39,3.69,3.54,7.32,6.89,9.53l5.04,2.35c4.5.85,9.18.42,13.57-.79,2.6-.61,5.16-1.54,7.57-2.65l1.07-.88ZM186.16,105.41c-.49,3.47-2.36,6.59-4.38,9.37-4.8,6.32-11.76,10.82-19.26,13.29-1.72.63-3.99.56-5.07,2.29-1.86,3.17-1.97,6.96-2.47,10.51-1.01,9.59-1.98,19.2-2.42,28.84-.1,4.57-.35,9.18.23,13.72.44,2.53,1.9,5.06,4.38,6.04,2.04.89,4.34.47,6.52.49,5.8-.39,11.5-1.67,17.17-2.85,3.1-.67,6.16-1.55,9.23-2.31l1.91-.54c1.46-19.91,2.85-25.48,6.98-28.59.31-.23.57-.4.66-.46,2.98.65,5.96,1.36,8.93,2.03.59.2.6,1.03.03,1.31-1.8,1.81-3.61,3.67-4.87,5.9-3.8,6.17-5.18,12.68-6.44,19.75-.3.95,3.19,7.38,4.4,7.7l7.28,4.47c.69-.27,10.63.71,11.13.19,4.84-4.75,8.02-10.86,11.09-16.85,4.06-8.23,7.62-16.76,10.34-25.53.26-2.2-.96-4.23-1.86-6.16-4.27-8.06-10.34-15.08-16.8-21.44-10.18-9.89-22.19-17.91-35.16-23.69l-1.55,2.53ZM113.12,132.51c.57-.21-.02,2.15-.22,2.77-.49,3.98-.93,7.98-.88,12-.22,10.03.36,20.06,1.35,30.04.1.98.17,1.66.26,2.52l4.2,1.27c4.09,1.91,8.17,4.34,12.75,4.76,1.44.14,2.77-.77,3.31-2.1,1.18-2.67.74-5.68.93-8.52.14-9.14,0-18.32,1.14-27.42.75-7.5,2.01-14.92,2.47-22.45.1-.98-.46-1.8-1.2-2.4-2.26-2.3-4.28-5.09-4.64-8.39-.34-2.34-.33-4.82.34-7.1l-3.84-2.69c-3.25.66-.2.18-3.48.56" fill="#45738b"/>
    <path d="M143.98,112.47c1.28.12,4.76-1.2,6.72-3.47,4.76-6.49,8.66-13.65,11.4-21.23l2.76-9.04c1.07-4.84,2.36-9.43,2.29-14.41l-.23-5.35c-.15-1.55-.36-3.48-.61-5-.46-2.33-.54-4.78-1.43-7l-1.18-4.42c-.85-3.06-2.07-6.03-3.49-8.87-.14-.57-1.64-1.88-2.23-1.59-2.32,1.4-4.15,2.35-6.86,1.67-2.4-.43-4.23-2.61-6.74-2.63-1.21.05-2.74.8-3.45,1.67-2.5,3.14-4.53,6.14-8.25,7.86-1.12.69-3.89,1.13-4.57,2.44l-5.81,8.95c-5.38,12.88-5.83,28.06.23,40.71,1.88,3.88,4.6,7.6,7.51,10.77l13.94,8.95ZM138.24,89.51c-3.76-.97-7.63-2.39-10.39-5.22-.57-.42-1.03-1.76.02-1.85,3.11.83,6.23,1.61,9.44,1.94,3.15.39,6.45.68,9.52-.32,4.08-1,8.07-2.48,12.23-3.09.11,0,.22-.03.33-.03.95-.12,1.9.9,1.37,1.81-.86,1.66-2.78,2.38-4.31,3.29-5.56,2.82-11.96,4.49-18.21,3.46Z" fill="#e3ddbb"/>
    <path d="M217.95,330.44c5.16-.88,7.01-2.78,6.78-6.97-.09-1.68-.53-3.46-1.3-5.31-.66-1.6-1.59-3.44-1.74-3.44-.07,0-.53.22-1.04.48-2.02,1.05-7.81,2.69-11.32,3.2-2.72.39-6.86.33-8.86-.14-1.55-.36-1.63-.36-1.63-.02,0,.43.68,2.22,1.34,3.53,2.3,4.56,6.53,7.79,11.34,8.66,1.47.27,4.89.27,6.44,0ZM112.33,323.04c3.98-.29,8.15-.99,12.39-2.1,2.59-.67,6.69-1.95,8.12-2.54,1.26-.51,1.18-.57,2.11,1.28l.67,1.32.9.04c2.06.1,4.78-.93,6.18-2.33,1.04-1.04,1.46-2.05,1.47-3.57,0-1.4-.13-1.97-.46-1.97-.15,0-1.23.25-2.42.56-4.75,1.22-8.39,1.73-12.59,1.74-2.9,0-4.52-.14-6.83-.63-2.43-.52-5.13-1.6-7.23-2.89l-.8-.5-.96.32c-4.44,1.48-10.79,4.88-13.29,7.13-.82.74-1.56,1.78-1.56,2.2,0,.14.21.38.46.54,1.91,1.17,8.2,1.81,13.85,1.4ZM209.47,315.37c3.62-.65,8.88-2.26,10.19-3.12,1.82-1.2,2.57-3.23,2.57-6.93,0-3.41-.34-5.65-2.4-15.93-1.52-7.58-2.25-10.86-3.53-15.95-4.51-17.86-11.15-37.02-16.99-49.08-1.62-3.34-2.7-5.31-4.19-7.62-.62-.97-1.44-2.35-1.82-3.06-.38-.72-.73-1.33-.78-1.36-.05-.03-.95.23-1.99.57-18.21,6.01-37.9,6.67-56.57,1.9-3.29-.84-6.1-1.71-9.49-2.92-1.39-.5-2.6-.9-2.7-.9-.12,0-.18,1.55-.24,6.03-.11,8.75-.33,11.41-2.85,34.29-2.51,22.78-3.37,33.84-3.55,45.47-.08,5.32.09,12.08.32,12.68.12.3,2.08,1.42,3.5,1.99,2.76,1.11,5.73,1.61,9.67,1.61,3.08,0,5.52-.25,8.81-.92,3.47-.7,8.71-2.25,9.32-2.76.15-.13.2-.73.2-2.86,0-9.88,2.14-25.06,5.86-41.68,1.38-6.17,3.21-13.07,4.69-17.74l.42-1.32-.75-1.85c-.81-1.98-1.83-4.97-1.98-5.79-.19-.99.28-.51,1.55,1.58,4.29,7.1,12.28,20.97,17.6,30.56,7.47,13.48,11.74,22.49,15.77,33.28,1.7,4.55,2.54,6.09,4.43,8.09,2.04,2.15,4.21,3.32,7.22,3.89,1.43.27,5.92.2,7.72-.13ZM214.21,215.9c2.7-.2,3.01-.31,3.62-1.26.76-1.18,2.75-5.18,3.07-6.15.88-2.72-.6-6.09-3.52-7.99-1.31-.85-2.05-.72-3.21.57-1.64,1.83-2.47,5.15-1.53,6.15.24.26.53.37,1.14.44,1.03.12,1.64.48,1.91,1.15.28.67.08,1.42-.53,1.93-.63.53-1.33.49-2.57-.16-1.9-1-2.63-2.08-2.74-4.08-.14-2.57,1-5.31,3.03-7.29.5-.49.76-.84.67-.92-.07-.07-.67-.2-1.33-.29-4.8-.67-8.85-2.7-11.92-5.97-.59-.63-1.33-1.51-1.65-1.96-.32-.45-.66-.82-.76-.82-.22,0-1.14,1.21-1.77,2.33-1.21,2.17-1.85,4.25-2.09,6.83-.39,4.21.8,9.29,3.51,14.98l.58,1.22.74.15c2.18.44,6.54.95,9.69,1.13,2.75.16,3.66.16,5.66.01ZM164.35,214.34c6.8-.4,13.71-1.51,19.88-3.19,2.17-.59,5.51-1.62,6.62-2.03.91-.34.92-.37.5-1.97-.36-1.37-.92-5.05-1.15-7.47-.21-2.24-.21-10.32-.01-12.69.1-1.19.1-1.67-.02-1.79-.12-.13-.73,0-2.62.53-10.28,2.9-24.22,5.19-28.28,4.65-4.5-.6-6.7-3.23-7.25-8.67-.19-1.93-.2-9.67,0-13,.48-8.36,1.99-25.25,2.76-30.86.66-4.79,1.44-7.11,2.8-8.37.81-.75,1.26-.94,3.08-1.3,2.88-.58,8.25-3.04,11.81-5.41,4.28-2.86,7.09-5.61,9.76-9.59,2.01-3,3.3-6.05,3.38-8.03.03-.77.01-.83-.46-1.23-.63-.53-2.37-1.54-3.77-2.18-1.34-.62-4.35-1.83-4.84-1.96-.55-.14-.8.27-1.26,1.99-2.79,10.55-9.24,16.26-18.38,16.26-3.17,0-6.1-.58-9.26-1.84-3.03-1.21-6.03-3.1-7.98-5.04-.66-.66-1.25-1.05-2.54-1.7-.92-.46-2.14-1.14-2.7-1.5-.56-.36-1.11-.62-1.22-.58-.42.16-.86,3.5-.73,5.5.25,3.69,1.68,6.78,4.39,9.46.71.7,1.37,1.42,1.45,1.59.2.39.21,2.91.02,4.86-.08.8-.52,4.51-.98,8.23-1.24,9.99-1.63,13.77-2.13,20.58-.09,1.16-.21,6.81-.27,12.55-.12,11.13-.15,11.64-.87,13.56-.38,1.02-1.36,2.06-2.17,2.28-2.4.66-6.89-.67-13.01-3.87-1.1-.58-2.07-1.05-2.15-1.05s-.14.24-.14.53c0,.7.8,6.88,1.78,13.78,1.22,8.58,1.58,10.82,1.78,11.01.26.25,3.96,1.71,6.95,2.73,8.57,2.94,17.14,4.65,26.08,5.21,2.68.17,8.38.18,11.14.01ZM217.2,195.74c.64,0,.73-.05,1.6-.88,5.64-5.4,13.41-20.4,19.41-37.49,1.27-3.63,1.29-3.68,1.01-4.76-.72-2.77-3.46-7.53-7.13-12.41-3.19-4.23-6-7.4-10.3-11.64-7.56-7.44-15.9-13.69-25.34-18.99-2.48-1.4-8.11-4.2-8.43-4.2-.22,0-.3.22-.5,1.48-.81,4.95-3.42,9.5-8.02,13.96-2.47,2.4-5,4.28-8.23,6.13-3.21,1.84-7.82,3.78-9.87,4.16-.7.13-1.42.33-1.6.44-.71.46-1.37,2.54-1.85,5.9-.75,5.24-2.2,22.38-2.68,31.65-.27,5.25-.09,12.47.35,14.17.52,1.99,1.43,3.11,2.89,3.56,2.45.76,11.09-.34,21.43-2.73,3.29-.76,7.42-1.85,9.44-2.49,1.21-.38,1.06-.07,1.48-3.14.96-7.12,2.8-15.27,4.94-21.92.27-.83.49-1.6.49-1.71,0-.12-.53-.42-1.3-.74-3.21-1.33-5.92-3.07-7.94-5.09-2.86-2.85-3.88-5.36-1.14-2.81,2.21,2.06,5.14,3.75,8.69,5.03,2.33.84,4.57,1.44,9.51,2.56,2.24.51,4.72,1.09,5.5,1.28,1.82.46,6.15,1.89,6.15,2.03,0,.06-.49.29-1.09.5-2.21.79-2.47.9-3.4,1.45-4.21,2.52-7.74,7.96-10.31,15.9-.78,2.42-1.67,5.91-2.14,8.42l-.31,1.67.39.8c.7,1.43,2.18,3.51,3.36,4.71,2.44,2.48,5.47,4.11,8.99,4.83,1.43.29,3.6.49,4.58.41.39-.03,1.01-.06,1.39-.06ZM193.95,190.7c.39-.63,1.13-1.63,1.63-2.23.5-.6.98-1.17,1.05-1.27.09-.13.04-.39-.18-.83-.4-.81-.39-1.18.04-3.48,1.05-5.66,2.87-11.33,5-15.62,1.86-3.75,4-6.65,6.41-8.71.4-.35.65-.67.61-.78-.05-.12-.72-.31-1.81-.52-.96-.18-3-.63-4.53-1.01-1.54-.38-2.85-.65-2.92-.61-.15.09-.71,1.79-1.53,4.66-2.64,9.18-4.32,18.96-4.84,28.16-.22,4.02-.14,4.19,1.07,2.26ZM113.13,131.66l.39-.93c.58-1.38,1.52-2.8,1.84-2.8s.33.08,0,1.71c-.26,1.27-.55,3.44-.86,6.35-.77,7.4-.34,18.27,1.35,33.58.63,5.73.86,7.43,1,7.57.28.27,3.55,2.1,5.69,3.18,2.62,1.32,4.45,2.07,6.2,2.54,1.42.38,2.02.42,2.32.12h0c.28-.29.59-1.39.78-2.81.21-1.53.42-7.76.42-12.48.01-8.16.69-15.48,2.9-31.44.97-7.02,1.2-8.95,1.2-10.35v-1.11l-1.06-1.07c-1.47-1.49-2.2-2.51-3.1-4.31-1.66-3.32-2.1-7.38-1.22-11.4.15-.67.21-1.27.15-1.33-.07-.07-1.35.06-2.87.27-.85.12-1.67.13-2.41.19l.79-2.33c2.47-.34,2.68-.38,2.68-.57,0-.08-.64-.86-1.42-1.72-4.17-4.63-7-9.76-8.79-15.96-3.04-10.51-2.58-22.19,1.26-32.14.35-.91.64-1.74.64-1.85s-.29-.62-.65-1.14c-2.35-3.43-3.1-6.95-2.15-10.03.37-1.19.69-1.84,1.5-2.98l.64-.9-.16-.79c-.84-4.05-.28-8.9,1.45-12.65.9-1.94,2-3.21,3.53-4.05.51-.28.99-.51,1.06-.51s.14.55.14,1.28c0,3.19,1.02,5.43,2.69,5.94,1.72.51,4.88-1.18,8.73-4.69,4.56-4.15,7.07-5.62,9.59-5.62,1.23,0,2.03.25,3.3,1.04.61.38,1.21.65,1.45.65.61,0,1.25-.61,2.92-2.79,4.24-5.54,7.41-7.22,11.03-5.84,1.06.4,2.16,1.19,3.82,2.7,2.39,2.19,3.02,2.69,3.99,3.16.9.43.96.44,3.11.46,3.62.03,4,.27,6.76,4.24.96,1.38,2.38,3.31,3.16,4.28,1.78,2.23,5.09,5.55,7.55,7.57,2.11,1.73,2.77,2.45,3.88,4.22,1.16,1.85,2.01,4.25,2.56,7.24.39,2.1.35,7.46-.07,10.08-.39,2.45-.99,4.86-1.74,6.98-.31.89-.82,2.46-1.12,3.49-.93,3.15-1.93,5.32-3.43,7.41-.41.57-.79,1.11-.84,1.19-.05.08.19.55.52,1.04,1.45,2.12,1.97,3.66,1.96,5.83,0,2.15-.7,4.02-2.23,6-1.9,2.47-5.43,4.78-8.42,5.52l-1.24.31-.66,1c-1.25,1.87-2.88,3.68-5.07,5.61-.33.29-.6.62-.6.74s.02.21.04.21c.13,0,4.16,1.51,5.97,2.23,18,7.22,34.71,19.29,46.97,33.93,5.08,6.06,9.2,12.6,10.4,16.5.14.47.31.88.37.92.06.04.15.43.2.86.07.58.03.91-.13,1.26-.12.26-.64,1.72-1.16,3.23-2.49,7.33-6.13,15.98-9.66,22.98-3.74,7.42-6.96,12.32-10.28,15.67-1.22,1.23-1.74,1.66-2.08,1.72-.25.05-.46.17-.46.27s.45.53.99.95c3.17,2.47,4.65,6.49,3.58,9.71-.46,1.38-1.48,3.52-2.83,5.96-.88,1.59-1.14,1.96-1.55,2.15-1.37.65-5.48.95-13.01.93-3.01,0-5.47.05-5.54.12-.07.07.4,1.14,1.14,2.58,6.93,13.42,15.2,37.72,19.88,58.43.78,3.44,3.23,15.69,3.67,18.32.53,3.16.74,5.35.75,7.68.01,3.5-.47,5.56-1.77,7.5l-.56.84,1.28,2.63c1.48,3.04,1.59,3.28,2.23,5.17,1.41,4.12,1.13,7.17-.91,9.75-1.43,1.8-4.2,3.22-7.36,3.74-.58.1-1.09.22-1.13.28-.09.13-2.92.25-3.73.17h0c-.31-.03-.69-.12-.85-.18-.15-.07-.82-.23-1.48-.36-5.34-1.06-10.33-5.26-13.33-11.22-.81-1.61-1.67-4.16-1.98-5.86-.13-.71-.27-1.34-.32-1.42-.05-.07-.47-.42-.94-.78-1.24-.94-2.94-2.78-3.8-4.11-1.14-1.76-1.92-3.42-3.05-6.51-2.49-6.84-5.11-12.89-8.82-20.37-3.52-7.1-5.2-10.22-12.47-23.19-2.3-4.11-4.35-7.79-4.55-8.18-.2-.39-.46-.83-.57-.99-.19-.25-.24-.26-.42-.07-.11.12-.65,1.51-1.2,3.1-4.81,14.01-8.26,28.61-9.6,40.67-.54,4.87-.61,6.09-.63,10.64l-.02,4.58-1.2.51-1.2.51.05,1.76c.08,2.92-.43,4.47-2.02,6.16-1.87,1.98-4.51,2.99-7.84,2.99-2.1,0-2.58-.27-3.29-1.87-.2-.44-.43-.81-.52-.81s-.65.28-1.23.62c-6.9,3.97-14.65,6.25-22.64,6.65-5.34.27-10.85-1.04-13.19-3.14-.95-.85-1.33-1.69-1.32-2.93,0-1.28.48-2.3,1.6-3.42,1.85-1.86,4.26-3.12,11.03-5.81,2.76-1.1,5.14-2.08,5.28-2.18.23-.17.24-.33.08-2.42-.61-8.04-.59-17.57.06-29.38.35-6.51.72-11.36,2.18-29.26,1.82-22.26,2.28-33.22,1.68-39.62-.08-.85-.39-3.23-.69-5.29-2.36-16.08-3.84-30.22-4.53-43.14-.23-4.4-.24-15.41,0-18.33.21-2.68.53-5.62.75-6.82.1-.58.1-.87,0-.98l.86-3.13ZM159.56,115.59c5.89-.95,10.28-4.98,12.67-11.61.37-1.02.48-1.79.26-1.7-.06.03-1.42.71-3.01,1.51-2.91,1.47-3.35,1.61-3.56,1.07-.13-.34.02-.53.79-1.05,3.16-2.13,6.73-5.05,9.21-7.53,2.69-2.7,4.44-4.99,5.85-7.67.53-.99.66-1.16.91-1.09.98.28,1.59.24,2.81-.18,3.26-1.12,6.25-3.85,7.14-6.52.24-.72.29-1.12.23-1.9-.13-1.77-.88-3.14-2.75-5.04l-1.22-1.23,1.02-1.03c.56-.56,1.02-1.14,1.02-1.27,0-.64-1.78-3.59-3.39-5.6-1.14-1.43-3.47-3.74-4.89-4.85-.69-.54-.99-.87-.94-1.01.12-.32.41-.26,1.45.29,3.04,1.6,6.46,5.5,7.85,8.97.5,1.23.62,1.34,1.04.9.43-.46.41-.9-.12-2.23-1.89-4.75-4.66-8.27-8.88-11.24-1.85-1.31-1.55-1.59.62-.57,1.57.74,2.75,1.55,4.07,2.83,2.03,1.95,3.65,4.52,4.52,7.16.21.64.44,1.2.5,1.24.51.32-.02-2.66-.85-4.79-1.64-4.18-4.49-7.47-9.81-11.31l-.45-.32,1.25-1.88c2.83-4.27,4.06-7.06,3.64-8.26-.3-.85-1.61-1.31-4.5-1.57-2.11-.19-3.71-.11-7.26.38-1.47.2-3.06.34-3.53.32-1.56-.1-2.96-1.01-6.83-4.48-2.08-1.86-3.27-2.82-3.52-2.82-.05,0-.74.41-1.54.92-3.1,1.97-4.3,2.4-6.79,2.39-2.13,0-3.01-.27-5.27-1.6-1.79-1.06-2.57-1.34-3.49-1.25-1.03.1-1.64.61-3.61,3.01-2.03,2.48-4.09,4.52-5.5,5.46-1.21.8-3.19,1.8-4.27,2.14-.43.14-.89.35-1.03.47-.36.32-2.32,3.25-3.18,4.77-2.97,5.24-4.93,11.55-5.89,19.01-.36,2.76-.36,9.9,0,12.55,2.06,15.36,10.12,26.4,22.33,30.57,3.61,1.24,6.79,1.77,11.39,1.9,3.02.09,3.1.1,3.14.39.03.18-.06.34-.21.41-.14.06-1.71.14-3.5.17-2.52.05-3.7,0-5.29-.18-2.61-.31-2.57-.31-2.64-.1-.09.25,2.73,1.56,4.69,2.19,1.42.46,3.21.85,4.44.99,1.25.13,3.71.08,4.87-.11ZM140.46,96.91c-.7-.21-1.55-.72-2.04-1.23-.51-.53-.69-1.14-.29-.98.6.23,2.44.25,3.35.03,1.7-.4,2.81-.19,3.6.66.56.61.15,1.05-1.32,1.43-.87.23-2.7.27-3.32.09ZM141.96,91.83c-3.76-.36-8.01-1.89-11.66-4.21-.74-.47-1.44-.86-1.57-.86-.16,0-.26.17-.32.54-.13.82-.38.95-.93.5-.56-.47-1.47-1.81-1.95-2.85-.49-1.08-.52-2.51-.07-3.36.3-.57,2.08-2.31,2.36-2.31.08,0,.15.36.15.83,0,1.3.15,1.41,3.38,2.48,6.9,2.29,14.31,1.76,21.83-1.56,1.61-.71,4.05-2.06,4.32-2.38.14-.17.1-.38-.19-1.12-.42-1.05-.48-1.78-.15-1.78.93,0,5.96,4.18,6.71,5.58,1.01,1.87.8,5.09-.45,6.81-.48.67-.7.65-.7-.05,0-.85-.3-1.9-.66-2.33-.54-.64-1.19-.58-2.32.21-4.28,3-6.68,4.26-9.85,5.13-2.4.66-5.55.95-7.94.72h0ZM145.66,89.49c5.39-.79,11.98-3.45,14.41-5.83.95-.93,1.14-1.42.73-1.97-.82-1.1-1.22-1.04-10.57,1.59-3.85,1.08-5.12,1.38-6.27,1.48-3.33.29-10.53-.64-14.28-1.84-1.67-.53-2.1-.52-2.16.08-.11,1.1,2.67,3.33,5.89,4.72,1.63.7,3.7,1.38,5.19,1.69,1.6.34,4.98.36,7.06.06ZM141.02,75.65c-.69-.34-1.61-1.3-2.68-2.81-2.18-3.08-2.09-3.97.72-6.91,2.77-2.91,4.73-5.59,6.18-8.45.77-1.51,1.55-2.56,1.8-2.4.63.39-2.21,7.38-4.24,10.45-1.43,2.16-1.8,2.94-1.88,3.97-.09,1.08.1,1.65.92,2.85,1.19,1.76,1.4,2.51.87,3.18-.35.44-.94.49-1.68.12ZM183.95,72.55c-.57-1-1.29-1.83-2.06-2.4-1-.75-.88-1.13.23-.67,1.12.47,2.31,1.98,2.55,3.23.14.76-.23.69-.72-.15ZM187.06,69.89c-1.42-2.24-3.02-3.93-4.78-5.05-1.44-.92-.67-1.25,1.02-.42,1.6.78,3.25,2.49,4.14,4.29.72,1.45.88,2.15.52,2.22-.14.03-.46-.33-.9-1.03ZM164.7,62.56c-3.15-2.53-4.87-3.38-7.53-3.72-1.22-.15-1.57-.36-1.42-.83.12-.38.86-.76,2.43-1.23,1.03-.31,1.53-.38,2.94-.39,1.58-.01,1.75.01,2.57.39,1.81.84,2.77,2.47,3.08,5.26.21,1.94-.17,2.04-2.06.52ZM130.59,62.8c-1.58-1.67-1.23-6.77.58-8.41.98-.89,1.94-.5,2.54,1.03.46,1.16.46,3.75.02,5.18-.39,1.24-1.03,2.23-1.65,2.52-.7.33-.91.29-1.49-.32ZM167.11,49.39c-1.1-1.39-3.95-3.59-5.22-4.04-.93-.33-1.05-.41-1.1-.74-.06-.42.63-1.08,1.36-1.3,1.46-.44,2.71.82,4.76,4.82.43.85.76,1.61.74,1.7-.03.08-.27-.12-.53-.45ZM130.17,47.02c0-.18,1.2-1.58,1.87-2.19,1.07-.97,2.09-1.31,2.79-.94.36.19.7.87.7,1.4v.43l-1.03-.02c-1.08-.02-.91-.07-3.87,1.23-.25.11-.46.15-.46.09ZM196.01,63.17c1.4-2.9,2.47-6.53,3.05-10.35.36-2.37.32-7.22-.07-9.4-.85-4.64-2.49-7.49-5.87-10.16-3.86-3.05-7.24-6.76-10.75-11.78-.89-1.28-1.82-2.54-2.06-2.8-.79-.85-1.06-.92-3.47-.95-3.43-.04-4.3-.43-7.33-3.24-2.99-2.77-4.14-3.47-5.71-3.47-2.13,0-4.35,1.68-7.31,5.52-2.01,2.61-3.02,3.38-4.41,3.38-.74,0-1.22-.2-2.78-1.17-1.05-.65-1.76-.76-2.92-.46-1.99.51-3.48,1.56-8.46,5.97-2.4,2.12-5.01,3.69-6.87,4.12-.42.1-1.15.14-1.63.11-2.22-.18-3.63-1.59-4.39-4.41-.37-1.37-.57-1.47-1.19-.56-1.74,2.52-2.79,7.29-2.41,10.92.35,3.3,1.49,5.58,3.28,6.56.64.35.95.42,2.02.47,1.55.07,2.59-.17,4.4-1.03,2.8-1.32,4.8-3.08,7.42-6.52,2.45-3.22,3.5-4.01,5.47-4.1,1.29-.06,2.18.16,4.07,1.04,3.56,1.65,5.12,1.42,8.88-1.29,2.19-1.58,2.69-1.81,3.88-1.81,1.84,0,3.06.94,5.85,4.5,1.78,2.27,3.15,3.67,4.02,4.08.73.35,1.6.25,5.08-.55,3.38-.78,5.07-.98,7.39-.88,3.37.15,5.32,1.08,6.31,2.99.44.85.57,2.3.32,3.5-.36,1.73-1.88,4.21-4.15,6.76-.59.66-1.07,1.27-1.07,1.35s.46.51,1.02.96c4.6,3.66,7.96,8.63,8.84,13.09.37,1.85.5,1.82,1.56-.39ZM123.03,48.4c.53-1.01,1.41-2.5,1.94-3.32.53-.82.97-1.58.97-1.69s-.25-.27-.6-.36c-1.4-.37-2.84-1.44-3.86-2.87-.38-.53-.65-.43-1.09.44-.57,1.13-.8,2.12-.8,3.49,0,1.55.25,2.58.99,4.14.64,1.34,1.07,2,1.31,1.99.09,0,.6-.83,1.14-1.83Z" fill="#231f20"/>
  </g>
</svg>